<?xml version="1.0" encoding="utf-8"?>
<!-- Generator: Adobe Illustrator 26.3.1, SVG Export Plug-In . SVG Version: 6.00 Build 0)  -->
<svg version="1.1" id="Layer_1" xmlns="http://www.w3.org/2000/svg" xmlns:xlink="http://www.w3.org/1999/xlink" x="0px" y="0px"
	 viewBox="0 0 803.5 801.5" style="enable-background:new 0 0 803.5 801.5;" xml:space="preserve">
<style type="text/css">
	.st0{fill:#F9F5E6;}
	.st1{fill:#202020;}
</style>
<g id="Layer_2_00000148639451972916346870000005717944856079796640_">
	<path class="st0" d="M802.9,398.5c-0.1,0-0.2,0.1-0.3,0.1c-0.2,0.1-0.4,0.1-0.6,0.2c-0.1,0-0.2,0.1-0.3,0.1c-0.1,0-0.1,5.3-8.2,8.3
		c-0.1,0.1-0.4,0.1-0.5,0.2c-1.1,0.3-2.3,0.6-3.6,1c-0.4,0.1-0.8,0.2-1.2,0.3c-1.5,0.4-3.1,0.8-4.9,1.2c-0.3,0.1-0.6,0.1-0.8,0.2
		c-7.8,1.9-16.1,4.8-25.9,7.1c-0.5,0.1-0.9,0.6-1,1.1c-0.1,3.3-0.7,14.5-0.7,15.3c-0.1,1.6-0.2,3.3-0.4,4.9
		c-0.1,1.1-0.2,2.2-0.3,3.2c0,0.2,0,0.3-0.1,0.5c-0.1,1-0.2,1.9-0.3,2.9c-0.1,0.9-0.2,1.8-0.3,2.7c-0.1,0.7-0.2,1.4-0.3,2.1
		c-0.2,1.4-0.4,2.7-0.5,4.1s-0.4,2.7-0.6,4.1c-0.1,0.7-0.2,1.4-0.3,2c-0.1,0.7-0.2,1.4-0.3,2c-0.2,1.3-0.5,2.7-0.7,4l0,0.2
		c-0.2,1.2-0.4,2.3-0.6,3.5c-0.3,1.5-0.6,2.9-0.9,4.4c-0.3,1.2-0.5,2.5-0.8,3.7c-0.3,1.2-0.5,2.3-0.8,3.5c-0.3,1.2-0.5,2.3-0.8,3.5
		c-0.2,0.8-0.4,1.7-0.6,2.5c-1.2,4.9-2.6,9.8-4,14.7c-0.3,1.1-0.7,2.2-1,3.3c-0.1,0.2-0.1,0.3-0.2,0.5c-0.4,1.4-0.9,2.8-1.3,4.1
		c-1.2,3.6-2.4,7.2-3.7,10.8c-0.3,0.7-0.5,1.4-0.8,2.1c-1,2.8-2.1,5.7-3.2,8.4c-0.5,1.2-0.9,2.3-1.4,3.5c-0.2,0.6-0.5,1.1-0.8,1.7
		c-0.1,0.4-0.3,0.9-0.5,1.3c-0.3,0.9-0.5,1.6-0.9,2.3c-0.6,1.4-1.2,2.8-1.8,4.2l-0.1,0.2c-0.5,0.7-3,5.8-3.2,6.7l-0.1,0.3
		c-0.7,1.4-1.4,2.8-2.1,4.1l-0.1,0.2c-0.5,0.7-3.9,7.1-4.2,8.1l-0.2,0.5c-14.9,27.6-27.9,50.3-49.7,72.7
		c-72.4,74.6-140.1,101.5-227.9,112.6c-1.9,0.2-10.1,1.1-13.3,1.4c-0.5,0-1,0.4-1.1,1c-1.8,8.6-9.4,41.2-15.4,43.8
		c-0.4,0.2-0.7,0.5-0.8,0.9c-0.3,1.7-1.4,4.1-2.6,4.5c-0.3,0.1-0.7-0.3-1-0.9c-0.1-0.2-0.2-0.4-0.3-0.7c-0.1-0.2-4.1,0.4-5.3-2.3
		c-4.9-11-8-22-13.3-45.3c-0.1-0.5-0.6-0.9-1.1-1c-55.4-2.3-105.2-18.4-151-43.5c-2.4-1.3-4.8-2.7-7.2-4.1c-1.9-1.1-3.9-2.3-5.8-3.4
		c-1.4-0.9-2.9-1.7-4.3-2.6c-1-0.6-2-1.3-3.1-1.9c-6.3-4-12.4-8.2-18.5-12.6c-1.2-0.8-2.3-1.7-3.5-2.6c-4-3-8-6.1-11.9-9.3
		c-1.3-1.1-2.6-2.1-3.9-3.2c-1.3-1.1-2.6-2.2-3.8-3.3c-1.3-1.1-2.5-2.2-3.8-3.3c-1.2-1.1-2.5-2.2-3.7-3.4c-1.2-1.1-2.5-2.3-3.7-3.4
		c-1.2-1.1-2.4-2.3-3.6-3.5c-1.2-1.1-2.4-2.3-3.6-3.5c-2.2-2.2-4.4-4.5-6.6-6.7c-0.7-0.8-1.5-1.6-2.2-2.3c-0.6-0.6-1.1-1.2-1.7-1.8
		c-5.5-5.9-10.8-12-16-18.3c-1.1-1.3-2.1-2.6-3.1-3.9c-1-1.3-2.1-2.6-3.1-3.9c-1-1.3-2-2.7-3-4c-1-1.3-1.9-2.6-2.9-3.9
		c0-0.1-0.1-0.1-0.2-0.2c-0.3-0.3-0.6-0.6-0.8-0.9c-0.1-0.1-0.2-0.2-0.3-0.2c-0.4-0.3-0.8-0.5-1.2-0.8c-0.4-0.3-0.6-0.8-0.5-1.2l0,0
		c0.1-0.3,0-0.7-0.2-0.9c-2.2-3.1-4.4-6.3-6.5-9.5c-1.1-1.7-2.2-3.3-3.3-5l0,0c-1.1-1.7-2.1-3.4-3.2-5.1c-0.9-1.5-1.9-3.1-2.8-4.6
		c-0.9-1.4-1.7-2.9-2.5-4.3c-0.1-0.2-0.2-0.3-0.3-0.5c-0.9-1.5-1.7-3-2.6-4.6c-0.8-1.4-1.6-2.8-2.3-4.2c-0.1-0.2-0.2-0.4-0.3-0.5
		c-0.4-0.8-0.8-1.6-1.3-2.4c-0.4-0.8-0.9-1.6-1.3-2.4c-0.9-1.8-1.8-3.5-2.7-5.3c-0.9-1.8-1.8-3.7-2.7-5.5c-0.9-1.8-1.7-3.6-2.5-5.4
		c-1.7-3.7-3.3-7.4-4.9-11.1c-0.4-0.9-0.8-1.9-1.2-2.8c0-0.1-0.1-0.1-0.1-0.2c-0.5-1.3-1-2.6-1.6-3.9c-0.5-1.3-1-2.6-1.5-3.9
		c-1.6-4-3-8.1-4.4-12.2c-1.2-3.5-2.3-7-3.4-10.5c-0.4-1.4-0.8-2.7-1.2-4.1c-0.4-1.4-0.9-2.9-1.3-4.4c-0.4-1.5-0.8-2.9-1.2-4.4
		l0-0.1c-0.4-1.4-0.8-2.9-1.1-4.3c-0.4-1.5-0.8-3-1.1-4.4c0-0.1,0-0.1-0.1-0.2c-0.7-2.9-1.4-5.9-2-8.8s-1.2-5.9-1.8-8.9
		c-0.2-1-0.4-2-0.6-3c-0.2-0.9-0.3-1.8-0.5-2.7c-0.2-1.3-0.4-2.5-0.7-3.8c-0.3-1.9-0.6-3.8-0.9-5.7c-0.2-1.5-0.5-3.1-0.7-4.6
		c-0.2-1.5-1.8-14.6-1.9-15.8l0,0c-0.1-0.2-0.2-0.4-0.2-0.6c-1.6-0.4-3.3-0.7-5-1.1c-0.6-0.1-1.1-0.3-1.7-0.4
		c-0.6-0.1-1.1-0.3-1.7-0.4c-0.5-0.1-1-0.2-1.6-0.4c-5.8-1.4-11.7-2.9-16.8-4.6c-0.3-0.1-0.6-0.2-0.9-0.3l-1.1-0.4
		c-0.3-0.1-0.6-0.2-0.9-0.3c0,0-0.1,0-0.1,0c-0.3-0.1-0.7-0.2-1-0.4c-2-0.7-3.7-1.5-5.2-2.2c-0.2-0.1-0.5-0.3-0.7-0.4
		c-1.4-0.7-2.7-2.3-3.4-3c-0.1-0.1-0.2-0.2-0.3-0.3c0,0,0,0,0,0c-0.1-0.1-0.2-0.2-0.3-0.4c-0.1-0.1-0.1-0.2-0.2-0.3c0,0,0,0,0-0.1
		c0-0.1-0.1-0.2-0.1-0.3c0-0.1-0.1-0.2-0.1-0.4c-1.6-0.1-3-1.1-4.5-1.9c0-0.1,0-0.1,0.1-0.2c0,0,0-0.1,0.1-0.1c0,0,0,0,0-0.1
		c0,0,0.1-0.1,0.1-0.1c0,0,0.1-0.1,0.2-0.1c0,0,0,0,0,0c0.1-0.1,0.2-0.1,0.3-0.2c0.3-0.1,0.6-0.2,0.9-0.3c0.1,0,0.2-0.1,0.3-0.1
		c0.1,0,0.2-0.1,0.4-0.1c0.3-0.1,0.6-0.4,0.9-0.4c0.3-0.1,0.6-0.1,0.9-0.2c-0.1-1.1,0.1-1.9,0.6-2.9c0,0,0,0,0,0
		c-0.1,0-0.1,0-0.2-0.1c-0.1-0.1-0.2-0.1-0.3-0.2c0,0-0.1-0.1-0.1-0.1c0,0-0.1-0.1-0.1-0.1c-0.1-0.1-0.2-0.2-0.2-0.3
		c0,0-0.7-1.8,2.9-3.2c0.2-0.1,0.3-0.1,0.5-0.2c8.7-3,30.4-8,37-9.2c0-0.1,0-0.4,0-1c0.1-2.7,0.5-7.8,0.7-12.8
		c0.1-2.3,0.2-4.2,0.3-4.9c0.4-3.7,0.8-7.4,1.2-11.1c0-0.2,0-0.3,0.1-0.5c0.2-1.8,0.4-3.5,0.7-5.3c0.2-1.9,0.5-3.7,0.8-5.6
		c0.5-3.6,1-7.1,1.6-10.6c0.1-0.5,0.2-0.9,0.2-1.4c0.6-3.4,1.2-6.7,1.8-10c0.4-1.8,0.7-3.6,1.1-5.5c0.2-0.9,0.4-1.8,0.6-2.7
		c0.4-1.8,0.8-3.6,1.2-5.4c0.2-0.9,0.4-1.8,0.7-2.7c0.2-0.9,0.5-1.8,0.7-2.7c0.4-1.6,0.8-3.1,1.2-4.7c1.2-4.7,2.6-9.3,4-13.9
		c0-0.1,0.1-0.3,0.1-0.4c0.3-0.9,0.6-1.8,0.9-2.7c0.3-0.9,0.6-1.7,0.9-2.6c0-0.1,0-0.1,0-0.2c1-5.7,3.9-12.4,5.8-15.9c0,0,0,0,0,0
		c0.4-1,0.8-2,1.2-3c0.4-0.9,0.8-1.9,1.1-2.8c0.4-1,0.9-2.1,1.3-3.1c0.4-0.9,0.8-1.8,1.2-2.7c0.5-1,0.9-2.1,1.4-3.1
		c0.4-1,0.9-2,1.3-2.9c0.4-1,0.9-1.9,1.3-2.9c0.5-1,0.9-1.9,1.4-2.9c0.9-1.9,1.9-3.8,2.8-5.7c0.5-1,1-1.9,1.5-2.9
		c0.5-0.9,1-1.9,1.5-2.8c0.5-0.9,1-1.9,1.5-2.8c0.5-0.9,1-1.9,1.5-2.8c0.5-0.9,1-1.7,1.4-2.6c0.1-0.1,0.1-0.3,0.2-0.4
		c0.5-0.9,1-1.7,1.5-2.6c0.5-0.9,1.1-1.8,1.6-2.8c0.5-0.9,1.1-1.8,1.6-2.7c0.6-0.9,1.1-1.8,1.7-2.7c0.6-0.9,1.1-1.8,1.7-2.7
		c0.6-0.9,1.1-1.8,1.7-2.7c0.6-0.9,1.2-1.8,1.7-2.7c0.6-0.9,1.2-1.8,1.8-2.7c0.5-0.8,1.1-1.7,1.7-2.5c0.1-0.1,0.2-0.2,0.2-0.4
		c0.6-0.8,1.1-1.7,1.7-2.5c0.6-0.9,1.2-1.8,1.8-2.6c0.6-0.8,1.1-1.6,1.7-2.4c0.1-0.2,0.2-0.3,0.3-0.4c0.6-0.8,1.1-1.6,1.7-2.4
		c0.6-0.9,1.3-1.7,1.9-2.6c0.6-0.8,1.2-1.6,1.8-2.3c0.7-0.9,1.4-1.9,2.1-2.8c0.7-0.8,1.3-1.7,2-2.5c0.7-0.8,1.3-1.7,2-2.5
		c0.7-0.8,1.3-1.7,2-2.5s1.3-1.7,2-2.5c0.7-0.8,1.4-1.6,2.1-2.5c0.7-0.8,1.4-1.6,2.1-2.4c0.7-0.8,1.4-1.6,2.1-2.4
		c0.8-0.9,1.7-1.9,2.5-2.8c0.6-0.6,1.2-1.3,1.8-1.9c0.7-0.8,1.4-1.6,2.2-2.4c0.7-0.8,1.5-1.6,2.2-2.3c0.7-0.8,1.5-1.6,2.2-2.3
		c0.7-0.8,1.5-1.6,2.3-2.3c0.7-0.8,1.5-1.5,2.2-2.2c0.7-0.7,1.4-1.4,2.1-2.1c0.1-0.1,0.2-0.2,0.3-0.3c0.7-0.7,1.4-1.4,2.1-2.1
		c0.7-0.7,1.5-1.4,2.2-2.1c0.1-0.1,0.2-0.2,0.3-0.2c0.7-0.7,1.4-1.4,2.2-2c0.8-0.7,1.6-1.5,2.3-2.2c0.8-0.7,1.6-1.4,2.4-2.2
		c0.9-0.8,1.8-1.6,2.7-2.4c0.7-0.6,1.4-1.2,2.1-1.8c3.2-2.8,6.5-5.6,9.8-8.3c0.8-0.7,1.7-1.3,2.5-2c0.8-0.7,1.7-1.3,2.5-2
		c0.9-0.7,1.9-1.5,2.8-2.2c0.8-0.6,1.5-1.1,2.3-1.7c0.9-0.7,1.7-1.3,2.6-1.9c5.2-3.9,10.5-7.6,15.8-11.2c0.8-0.6,1.7-1.1,2.5-1.6
		c3.7-2.4,7.4-4.8,11.2-7.1c0.8-0.5,1.6-1,2.4-1.4c0.9-0.6,1.8-1.1,2.8-1.6c11.8-6.9,23.9-13.1,36.4-18.7c1-0.4,2-0.9,2.9-1.3
		c0.7-0.3,1.4-0.6,2.2-0.9c5.2-2.2,10.4-4.3,15.7-6.3c0.6-0.2,1.3-0.5,1.9-0.7c1.5-0.6,3.1-1.1,4.6-1.6c1-0.4,2-0.7,3-1
		c1-0.3,2-0.7,3-1c3.9-1.3,7.9-2.5,11.9-3.7c1-0.3,2.1-0.6,3.1-0.9c16.5-4.6,33.4-8,50.5-10.1c0.8-0.1,1.5-0.2,2.3-0.3
		c1.6-0.2,3.1-0.3,4.7-0.5c1.5-0.2,3.1-0.3,4.6-0.4c4.7-0.4,10.7-0.6,14.2-0.9c1.6-0.1,3.8-0.4,5-3.9c0.7-2.4,6.8-24,10.7-25.9
		c0.3-0.2,0.5-0.5,0.6-0.8c0.3-1.6,1.3-3.5,2-3.7c0.4-0.1,0.5,0.3,0.6,0.5c0,0.1,0.1,0.2,0.1,0.2c0.2,0.6,0.6,1.2,0.8,2.1
		c0.1,0.5,0.5,0.8,1,0.9c0.8,0.1,1.5,0.5,2.2,1c0-0.1,0-0.2,0.1-0.2c0-0.1,0-0.1,0.1-0.2c0-0.1,0.1-0.2,0.1-0.3
		c0-0.1,0.1-0.1,0.1-0.2c0,0,0.1-0.1,0.1-0.1c0,0,0.1,0,0.1-0.1c2.2-3.3,9.1,24,10.4,29.6c0.1,0.5,0.6,0.9,1.1,0.9
		c115.4,4.9,233,72.6,289.7,175c0.2,0.4,0.2,1-0.1,1.4c-0.1,0.2-0.3,0.3-0.4,0.5c0.2,0.3,0.3,0.5,0.5,0.8c0.1,0.2,0.2,0.4,0.4,0.5
		c0.8,0.6,1.6,1.2,2.3,1.8c0.1,0.1,0.2,0.2,0.3,0.4c27.1,49.4,46.4,107.4,44.9,164c0,0.6,0.4,1.1,1,1.2c7.1,1.6,14,4.2,21,6.2
		l0.3,0.1c1.2,0.5,11.6,3.9,11.7,3.8c3.4,1,6.4,2.6,9.1,4.8c0.1,0.1,0.1,0.1,0.2,0.1C803,396.4,804.3,398.1,802.9,398.5L802.9,398.5
		z"/>
</g>
<path class="st1" d="M796.8,396.4c-2.7-2.2-5.7-3.8-9.1-4.9l-11.7-3.8c-7.4-2.1-14.6-4.9-22.1-6.5c1.8-56.7-16.9-116.1-44.1-165.5
	c-1.2-1-2.5-1.9-3.7-2.9h0c-1.6,0.3-3.1,0.7-4.7,1c30.9,54.2,40.6,105.4,48.3,166.5c-17.5-3.5-35-7.4-52.5-10.8
	c-4.2-63.5-31.4-126.7-73.9-174.1c-0.6,0.8-1.1,1.7-1.7,2.5c2.9,3.1,5.6,6.3,8.3,9.5c-3.4-4-6.3-7.2-8.4-9.4
	c-27,39.5-49.2,82.7-78.3,120.6c-2.6,3.4-5.4,6.8-8.2,10.2c2.2-2.6,5.6-8.3,7.7-11.3c27.6-39.5,46.9-84.3,75.6-123
	c0,0-0.1-0.1-0.1-0.1c0-0.1,0.1-0.2,0.2-0.2c0,0,0.1,0.1,0.1,0.1c0.6-0.8,1.2-1.6,1.8-2.3c-0.1-0.1-0.1-0.2-0.2-0.2
	c2.2-2.9,16.7-20.2,13.4-22.5c-1.4,0-2.7,0.3-3.8,1c6-5.8-15.8,1.5-18.4,2.8c-15.3,7.1-29.8,18.4-43.6,28.1
	c-16.9,11.8-33.3,24.2-50.5,35.5c-13.8,9.1-36.7,20.7-47.3,32.7c16.5-19.6,39.8-31.7,60.6-45.8c24-16.3,47.2-33.8,71.3-50
	c-39.1-36.4-88-64.1-140.5-75.1c-5.7-0.6-29.7-5-32.5-5.2c-0.5-2-0.9-4.1-1.3-6c0.2-1,1-2.4-0.6-2.7c-1.9-9.1-4.1-18.2-6.2-27.2
	c0.2,0.8,0.5,1.7,0.7,2.5c68.1,3.6,135.4,28,189.1,70.1c1.4-2.1,6.6,1.6,3.5,2.8c19.5,15.7,37.2,33.5,52.7,53
	c13.6,17.1,25.5,35.7,35.5,55.2c3.8,7.5,27.6,52.3,25.1,56.4c6.6-11.5-15.3-47.9-20.7-58.7c-1.7,0.9-3.4,0.8-5.1-0.4
	c1-1.2,2.3-1.9,3.9-1.9C650.1,129.7,539.3,58.1,419.2,52c-0.6-2.4-1.2-4.7-1.6-7.1c116,3.7,224.6,69.8,283.8,168.9
	c1.6-0.3,3.1-0.7,4.7-1c0.1-0.1,0.2-0.3,0.3-0.4c0.3-0.4,0.7-0.8,0.9-1.1C651.1,108.8,531.5,41.3,416.3,36.7
	c-0.3-1.7-6.4-30.9-8.5-30.5c0,0-0.1,0-0.1,0c0,0-0.1,0.1-0.1,0.1c0,0-0.1,0.1-0.1,0.2c0,0.1-0.1,0.2-0.1,0.3c0,0,0,0.1,0,0.2
	c0,0.1,0,0.1-0.1,0.2c-0.7,3,0.5,12,0.6,12.8c-3.9,0.4,0.4,9.2-2.1,10c-0.2-2.5-0.6-16.6-1.8-23.7c-0.2-1.2-0.4-2.3-0.7-3
	c0-0.1-0.1-0.2-0.1-0.2c-0.1-0.2-0.1-0.3-0.2-0.4c-0.1-0.1-0.1-0.2-0.2-0.3c-0.1-0.1-0.2-0.2-0.3-0.2c-0.8,1.5-1.2,3-1.3,4.6
	c-3.4,0.1-9,22-9,22s-1.2,7.9-7.6,8c-4.7,0.2-9.4,0.5-14.1,0.9c-1.5,0.1-3.1,0.3-4.6,0.4c-1.5,0.2-3.1,0.3-4.6,0.5
	c-0.8,0.1-1.5,0.2-2.3,0.3c-17,2-33.8,5.4-50.2,10c-1,0.3-2,0.6-3.1,0.9c-4,1.1-7.9,2.4-11.8,3.6c-1,0.3-2,0.7-3,1c-1,0.3-2,0.7-3,1
	c-1.5,0.5-3.1,1.1-4.6,1.6c-0.6,0.2-1.2,0.5-1.9,0.7c-5.2,2-10.5,4-15.6,6.2c-0.7,0.3-1.4,0.6-2.1,0.9c-1,0.4-2,0.8-2.9,1.3
	c-12.4,5.5-24.5,11.7-36.2,18.6c-0.9,0.5-1.8,1.1-2.7,1.6c-0.8,0.5-1.6,0.9-2.3,1.4c-3.8,2.3-7.5,4.6-11.1,7
	c-0.8,0.5-1.6,1.1-2.5,1.6c-5.3,3.6-10.6,7.3-15.7,11.1c-0.9,0.6-1.7,1.3-2.5,1.9c-0.8,0.6-1.5,1.1-2.2,1.7
	c-0.9,0.7-1.9,1.5-2.8,2.2c-0.8,0.7-1.7,1.3-2.5,2c-0.8,0.7-1.7,1.3-2.5,2c-3.3,2.7-6.5,5.4-9.7,8.2c-0.7,0.6-1.4,1.2-2,1.8
	c-0.9,0.8-1.8,1.6-2.7,2.4c-0.8,0.7-1.6,1.4-2.3,2.1c-0.8,0.7-1.6,1.4-2.3,2.2c-0.7,0.7-1.4,1.3-2.1,2c-0.1,0.1-0.2,0.2-0.2,0.2
	c-0.7,0.7-1.5,1.4-2.2,2.1c-0.7,0.7-1.4,1.4-2.1,2c-0.1,0.1-0.2,0.2-0.3,0.3c-0.7,0.7-1.4,1.4-2.1,2.1c-0.7,0.7-1.5,1.5-2.2,2.2
	c-0.8,0.8-1.5,1.5-2.2,2.3c-0.7,0.8-1.5,1.5-2.2,2.3c-0.7,0.8-1.5,1.5-2.2,2.3c-0.7,0.8-1.4,1.5-2.2,2.3c-0.6,0.6-1.2,1.3-1.7,1.9
	c-0.8,0.9-1.7,1.9-2.5,2.8c-0.7,0.8-1.4,1.6-2.1,2.4c-0.7,0.8-1.4,1.6-2.1,2.4c-0.7,0.8-1.4,1.6-2,2.4c-0.7,0.8-1.4,1.6-2,2.5
	s-1.3,1.6-2,2.5c-0.7,0.8-1.3,1.6-2,2.5c-0.7,0.8-1.3,1.7-2,2.5c-0.7,0.9-1.4,1.8-2.1,2.8c-0.6,0.8-1.2,1.5-1.7,2.3
	c-0.6,0.8-1.3,1.7-1.9,2.5c-0.6,0.8-1.1,1.6-1.7,2.3c-0.1,0.1-0.2,0.3-0.3,0.4c-0.6,0.8-1.1,1.6-1.7,2.4c-0.6,0.9-1.2,1.7-1.8,2.6
	c-0.6,0.8-1.1,1.6-1.7,2.5c-0.1,0.1-0.2,0.2-0.2,0.3c-0.5,0.8-1.1,1.6-1.6,2.5c-0.6,0.9-1.2,1.8-1.8,2.6c-0.6,0.9-1.2,1.8-1.7,2.7
	c-0.6,0.9-1.1,1.8-1.7,2.7c-0.6,0.9-1.1,1.8-1.7,2.7c-0.5,0.9-1.1,1.8-1.6,2.7c-0.5,0.9-1.1,1.8-1.6,2.7c-0.5,0.9-1.1,1.8-1.6,2.7
	c-0.5,0.9-1,1.7-1.5,2.6c-0.1,0.1-0.2,0.3-0.2,0.4c-0.5,0.9-1,1.7-1.4,2.6c-0.5,0.9-1,1.9-1.5,2.8c-0.5,0.9-1,1.9-1.5,2.8
	c-0.5,0.9-1,1.9-1.5,2.8c-0.5,1-1,1.9-1.5,2.8c-1,1.9-1.9,3.8-2.8,5.7c-0.5,0.9-0.9,1.9-1.4,2.9c-0.5,1-0.9,1.9-1.3,2.9
	c-0.4,1-0.9,1.9-1.3,2.9c-0.5,1-0.9,2.1-1.4,3.1c-0.4,0.9-0.8,1.8-1.2,2.7c-0.4,1-0.9,2.1-1.3,3.1c-0.4,0.9-0.8,1.9-1.1,2.8
	c-0.4,1-0.8,2-1.2,3c0,0,0,0,0,0c-0.2,0.6-0.5,1.2-0.7,1.8c6.8-0.4,8.2,5.2,7.8,11c19.5-56,54.1-106.7,98.8-145.5
	c-1.4-4.6,3.9-8,7.9-6.6C240.7,77.1,314.9,47.5,387,44.9c-0.6,2.3-1.1,4.7-1.6,7c-71.2,2.5-141.1,31.2-196.5,75.5c0,0,0,0.1,0,0.1
	c-0.8,3.9-3.2,6.3-7,5.6c-21.1,17.9-40.1,38.3-56.6,60.5c3,1.3,6.1,2.4,9.3,3.2c9.1-12.6,19.2-24.5,29.9-35.6
	c-1.6-2.4-0.4-3.6,3.6-3.7c57.6-58.1,134.5-91,215.5-97.5c-2.3,10.6-4.4,21.3-6.6,31.9c-9.8,0.6-19.5,1.7-29.1,3.3
	c-1.6,1.9-3.5,2.2-5.6,1c-57.6,10.3-110.3,36.9-152.6,77c14.8,6.6,153.2,97.2,152.5,98.6c-1.5,2.8-111.7-69.3-123.5-77.3
	c1.1,2.2-0.5,8-3.3,8.7c1.3,2.3,2.7,3,3.7,5.2c0.8,0.1,1.3,0.4,1.2,1.3c-0.2-0.4,0.3,2.5,0.3,2.6c-1.3-1.2-7.1-7.9-6.8-8.8
	c-6-1.2-9.6-14.6-1.4-13.3c-7.8-5.4-15.5-10.9-22.9-16.8c-0.4,0.4-0.8,0.8-1.2,1.2c-2-1.2-12.9-9-14.4-6.9c0,1.4,0.3,2.7,1.1,3.8
	c-5.5-5.9,0.4,13.6,1.3,15.3c-0.5,0.6-1.1,1.2-1.6,1.8c8.4,13.5,104.5,146.1,101.9,147.9c-2.3,1.6-13.3-16.3-13.4-16.4
	c-2.5,14.5-37.4,1.6-5-4c1.1,0.4,2,0.7,2.8,1c-30-41.9-62.8-82.2-86.9-127.9c-32.7,35.7-56.3,80.3-68.3,127.2l2.6,0.5
	c-0.9,0-1.8-0.2-2.7-0.4c-4.8,18.9-7.8,38.3-9.1,57.8c-8.6,2-17.4,3.6-26,5.7c2.3-63,23.7-124.8,59.3-176.7
	c-3.3-0.6-6.9-1.1-10.1-2.2C89.5,244.8,70.7,297.2,64.1,350c2,2.5,5.4,17.6-1.6,16.1c-0.5,5.3-0.8,10.7-0.9,16
	c-0.5,0.1-0.9,0.2-1.3,0.3l-1-1.3c0.1-6,0.4-11.9,0.9-17.9c-2.1-3.5,0.1-12.1-5-12.2c0,0-0.1-0.1-0.2-0.2c-0.3,0-0.7,0-1.1-0.1
	l0.7-0.2c0,0,0.2,0.2,0.3,0.3c2.4,0.2,4.5-2.6,6.7-2.4c2.3-20.3,6.3-40.3,12.2-59.9c-3.1-5.7-5.3-9.9-7.4-13.7
	c-0.3,0.8-0.6,1.7-0.8,2.5c-0.3,0.9-0.6,1.8-0.9,2.7c-0.3,0.9-0.6,1.8-0.9,2.7c0,0.1-0.1,0.2-0.1,0.4c-1.5,4.6-2.8,9.2-4,13.8
	c-0.4,1.5-0.8,3.1-1.2,4.6c-0.2,0.9-0.4,1.8-0.7,2.7c-0.2,0.9-0.4,1.8-0.6,2.7c-0.4,1.8-0.8,3.6-1.2,5.4c-0.2,0.9-0.4,1.8-0.6,2.7
	c-0.4,1.8-0.8,3.6-1.1,5.4c-0.7,3.3-1.3,6.6-1.8,9.9c-0.1,0.5-0.2,0.9-0.2,1.4c-0.6,3.5-1.1,7-1.6,10.6c-0.3,1.8-0.5,3.7-0.8,5.5
	c-0.2,1.7-0.4,3.5-0.7,5.2c0,0.2,0,0.3-0.1,0.5c-0.4,3.7-0.8,7.3-1.2,11c0.9,0.9,1.5,4.3-0.3,4.8c0,0-0.1,0-0.1,0
	c-0.3,5-0.4,10-0.6,15h0c2.9-0.3,5.7-0.7,8.5-1h0v0c-2.3,0.5-4.5,1.1-6.8,1.7c-3.9,0.9-28.9,5.1-38.4,8.4c-0.2,0.1-0.3,0.1-0.5,0.2
	c-0.3,0.1-0.6,0.2-0.9,0.3c-0.1,0.1-0.3,0.1-0.4,0.2c-0.2,0.1-0.5,0.2-0.7,0.3c-0.3,0.2-0.6,0.3-0.8,0.5c0,0-0.1,0.1-0.1,0.1
	c-0.1,0.1-0.1,0.1-0.2,0.2c0,0.1-0.1,0.1-0.1,0.2c0,0,0,0.1,0,0.1c0,0,0,0.1,0,0.1c0,0.1,0.1,0.2,0.2,0.3c0,0,0.1,0.1,0.1,0.1
	c0,0,0.1,0.1,0.1,0.1c0.1,0.1,0.2,0.1,0.3,0.1c0.1,0,0.1,0,0.2,0.1c4.1,1.2,21.5-2.1,23-2.4c10,2.1,22.1-0.4,32.1-0.8
	c-0.9,1.4-3.8-0.3-3.3,3c-3.5,0.1-40.1,0.8-52.6,3.2c-0.3,0.1-0.6,0.1-0.9,0.2c-0.3,0.1-0.5,0.1-0.8,0.2c-0.1,0-0.2,0.1-0.4,0.1
	c-0.1,0-0.2,0.1-0.3,0.1c-0.4,0.1-0.7,0.2-0.9,0.3c-0.1,0-0.2,0.1-0.3,0.2c0,0,0,0,0,0c-0.1,0-0.1,0.1-0.2,0.1c0,0-0.1,0.1-0.1,0.1
	c0,0,0,0,0,0.1c0,0-0.1,0.1-0.1,0.1c0,0.1,0,0.1-0.1,0.2c1.5,0.8,3,1.2,4.6,1.3c0,0.1,0,0.2,0.1,0.4c0,0.1,0.1,0.2,0.1,0.3
	c0,0,0,0,0,0.1c0,0.1,0.1,0.2,0.2,0.3c0.1,0.1,0.2,0.2,0.2,0.4c0,0,0,0,0,0c0.1,0.1,0.2,0.2,0.3,0.3c0.7,0.7,1.8,1.5,3.1,2.2
	c0.2,0.1,0.5,0.2,0.7,0.4c1.5,0.7,3.2,1.5,5.1,2.2c0.3,0.1,0.6,0.2,1,0.4c0,0,0.1,0,0.1,0c0.3,0.1,0.6,0.2,0.9,0.3l1.1,0.4
	c0.3,0.1,0.6,0.2,0.9,0.3c5,1.6,10.9,3.2,16.7,4.6c0.5,0.1,1,0.2,1.5,0.4c0.6,0.1,1.1,0.3,1.7,0.4c0.6,0.1,1.1,0.3,1.7,0.4
	c1.7,0.4,3.3,0.7,4.9,1.1c8,1.7,14.7,2.9,17.1,3.4c-0.7-0.1-1.5-0.2-2.2-0.3c4.6,62.1,28,124.4,64.6,174.5l5.1,0.2
	c-0.9-2.3-6-12.7-3.1-16.7c-21.3-31.2-37.8-64.9-47.6-101.4c-10-0.5-10.4-10.5-10.9-17.7c1.7-0.8,3.4-1.5,5.1-2.3
	c0.4,0.3,0.9,0.5,1.3,0.8c-2.4-11.8-4.3-23.9-5.2-35.9c8.7,1.7,17.3,3.8,26,5.6c4.1,38.4,15.9,75.9,34.1,109.9
	c0.5,0.3,0.7,0.8,0.7,1.3c13.4,24.7,30.4,47.2,50,67.2c7.4-8.4,14-17.2,20.1-26.3c-2.4,3.1-5.5,5.2-10.3,4.7
	c-0.1-2.5-0.6-5.1-0.1-7.5c1.7-8.6,9-4.4,12.1,0.3c10.5-15.8,19.7-32.4,29.6-48.9c-1.2-2.4-2.7-4.6-4.5-6.6c3-0.2,5.6,0.1,8,1
	c4-6.7,8.1-13.4,12-20.1c-2.4-2.4,3.2-7.6,4.9-8.5c6.6-11.5,13.2-23.1,20.8-34c-56-12.9-112.6-23.5-168.8-35.8c0-0.5-0.1-1-0.1-1.5
	c-3-0.6-6.1-1.2-9.2-1.6l0.1,1.1c-28-6.2-55.7-13.5-83.8-19.4c27.5,0.8,55.2,0.4,82.7-0.4c0,0.4,0,0.8,0,1.3c3,0.2,6.1,0.2,9.2,0.3
	c0-0.6-0.1-1.2-0.1-1.9c44.5-1.7,89.1,0,133.6-0.4c1-2.1,2.5-3.6,4.5-4.7c-3.6,0.1-7.2,0.2-10.9,0.3c0.6,0.3,1,0.9,1.2,1.7
	c-1.7,1.8-4.6-0.7-3.5-1.7c-39.9,0.9-79.8,0.7-119.7,1.2c22.3-1.6,44.7-1.2,67-2.2c11.2-0.5,22.3-0.9,33.5-0.8
	c6.8,0.1,35.8-3.7,39.9-0.2c17.6-0.3,35.2-0.2,52.8,0.2c0,0.2,0,0.3,0,0.5c-17.4,0-34.8,0.2-52.2,0.7c-0.2,2-1.4,3.6-3.5,4.8
	c18.5-0.2,36.9-0.2,55.3,0c1.8-1.5,3.2-1.5,4.1,0c27.9,0.3,55.8,0.5,83.7,0c-29.9,21.2-61.1,42-89.4,65.5c-5.8-4-17.1-5-23.8-6.4
	c-0.1,7.1-15.6,25.5-19.4,31.9c9.6-2.6-6.2,10.9-6.4,11c-0.1,0-0.2,0-0.2,0c-4,6.8-8,13.5-12,20.3c2.2,1.3,4,3.2,5.4,5.8
	c-2.9-0.6-6.5,1.1-9,0.5c-2.2,3.9-4.5,7.7-6.8,11.6l2.2-3.4c-14.4,22.8-25.6,52.4-47.8,68.9c0.5,0.5,0.9,0.9,1.3,1.4
	c-4.2,5.2-13.7,14.5-13.6,21.4c-11.9-11.8-22.8-24.5-32.9-37.8c-2.2,1-4.4,2-6.6,3c0.1,2.4,0.3,4.9,0.4,7.3
	c18.9,24.6,41.2,45.9,65.7,64.9c-25.2-17.2-47.5-40-66.1-64.1h0c-0.6-0.5-5.2-6.9-6.3-8.4h0c0,0,0-0.1-0.1-0.1
	c-0.1-0.1-0.1-0.2-0.1-0.2C88.5,543.9,65.6,483,60.4,420.2c-4.3-0.6-8.5-1.5-12.6-2.7c0,0.2,0,0.3,0,0.5l0,0
	c0.1,1.2,0.2,2.4,0.3,3.6c0.1,1.1,0.2,2.1,0.3,3.2c0,0.3,0,0.5,0.1,0.8c0.1,0.6,0.1,1.2,0.2,1.8c0.1,1,0.2,2,0.4,3.1
	c0.2,1.5,0.4,3.1,0.6,4.6c0.2,1.5,0.4,3.1,0.7,4.6c0.3,1.9,0.6,3.8,0.9,5.7c0.2,1.3,0.4,2.5,0.6,3.8c0.2,0.9,0.3,1.8,0.5,2.7
	c0.2,1,0.4,2,0.6,3c1.1,5.9,2.4,11.8,3.9,17.6c0,0.1,0,0.1,0,0.2c0.4,1.5,0.7,2.9,1.1,4.4c0.4,1.4,0.8,2.9,1.1,4.3l0,0.1
	c0.4,1.5,0.8,2.9,1.2,4.4c0.4,1.5,0.8,2.9,1.3,4.3c0.4,1.4,0.8,2.7,1.2,4.1c1.1,3.5,2.2,7,3.4,10.4c1.4,4.1,2.9,8.1,4.4,12.1
	c0.5,1.3,1,2.6,1.5,3.9c0.5,1.3,1,2.6,1.5,3.9c0,0,0,0.1,0.1,0.2c0.4,0.9,0.8,1.9,1.2,2.8c1.5,3.7,3.2,7.4,4.8,11
	c0.8,1.8,1.6,3.6,2.5,5.3c0.9,1.8,1.8,3.7,2.7,5.5c0.9,1.8,1.8,3.5,2.7,5.3c0.4,0.8,0.8,1.6,1.3,2.4c0.4,0.8,0.8,1.6,1.2,2.3
	c0.1,0.2,0.2,0.4,0.3,0.5c0.8,1.4,1.5,2.8,2.3,4.2c0.8,1.5,1.7,3,2.6,4.5c0.1,0.2,0.2,0.3,0.3,0.5c0.8,1.4,1.7,2.9,2.5,4.3
	c0.9,1.5,1.9,3.1,2.8,4.6c1,1.7,2.1,3.4,3.2,5l0,0c1.1,1.7,2.1,3.3,3.2,5c2.2,3.3,4.4,6.6,6.7,9.8c0,0,0,0,0,0.1c0,0,0,0,0,0.1
	c0.7,1,1.4,1.9,2.1,2.9c0.2,0.2,0.4,0.5,0.5,0.8c1,1.3,2,2.7,3,4c1,1.3,2,2.6,3,4c1,1.3,2,2.6,3.1,3.9c1,1.3,2.1,2.6,3.1,3.9
	c5.1,6.3,10.4,12.3,15.9,18.2c0.6,0.6,1.1,1.2,1.7,1.8c0.7,0.8,1.5,1.6,2.2,2.3c2.2,2.3,4.4,4.5,6.6,6.7c1.2,1.2,2.3,2.3,3.5,3.4
	c1.2,1.2,2.4,2.3,3.6,3.4c1.2,1.1,2.4,2.3,3.7,3.4c1.2,1.1,2.5,2.2,3.7,3.3c1.2,1.1,2.5,2.2,3.8,3.3c1.3,1.1,2.5,2.2,3.8,3.2
	c1.3,1.1,2.6,2.1,3.8,3.2c3.9,3.2,7.8,6.2,11.8,9.2c1.2,0.9,2.3,1.7,3.5,2.6c6,4.4,12.1,8.5,18.3,12.5c1,0.7,2,1.3,3,1.9
	c1.4,0.9,2.8,1.8,4.2,2.6c1.9,1.2,3.8,2.3,5.8,3.4c2.4,1.4,4.8,2.7,7.2,4.1c1.4-0.3,2.8-0.6,4.1-0.9c2.5-3.1,4.5-3.2,6.9-0.7
	c-0.4,1.5-0.5,2-0.8,3.5c-0.6,0.2-1.2,0.4-1.8,0.5v0c-1.4-1.1-2.8-2.2-4.2-3.2c-1.4,0.3-2.8,0.6-4.1,0.9
	c45.8,25.1,97.7,40.2,153.2,42.3c0-0.2-0.1-0.4-0.1-0.5c0,0.2,0.1,0.3,0.2,0.5c0,0,0,0,0,0.1l-0.1,0c5.3,23.8,10.8,46.9,12.3,46.7
	c0,0,0.1,0,0.1-0.1c0,0,0.1-0.1,0.1-0.1c0.1-0.1,0.2-0.2,0.2-0.3c1.6-3.3-1.9-21.8-2.2-23.4c2.5-11.6-0.5-25.4-1-37.1
	c0.4,0.8,0.9,1.6,1.4,2.5c0.1-0.2-0.2-0.5-0.2-0.7c-0.1-0.6-0.3-1.4-0.3-1.4c0.2-0.3,0-0.7-0.2-0.8c0,0,0,0.1,0,0.1
	c-0.4-0.3-0.2-0.2,0-0.1c0-0.1-0.1-0.3-0.1-0.5c-0.1-0.1-0.1-0.1,0-0.1c0,0,0,0,0,0.1c0,0,0.1,0.1,0.3,0.2c0.1-0.5-0.7-1.7-1-2.1
	c-0.2-5.6-0.4-11.1-0.5-16.7c1.7-2.3,0.9-7.3-0.2-5c-0.2-3.5-0.5-7-0.8-10.4c1.3,0,2.6,0.1,3.9,0.1c0.3,8.2-0.5,79.2,3.8,96.3
	c0.1,0.4,0.2,0.7,0.3,1.1c0,0.1,0.1,0.2,0.1,0.3c0.1,0.3,0.2,0.5,0.3,0.8c0.1,0.2,0.2,0.5,0.3,0.7c0.3,0.5,0.6,0.8,1,0.9
	c0.8-1.5,1.2-3,1.3-4.6c6.3-0.2,14.5-39.3,15.9-46.4c2.1-0.1,4.2-0.3,6.2-0.5c-0.3-1.2-0.7-2.3-1-3.4c2.5,0.5,3.8,1.6,4.5,2.9
	c0,0,0,0.1,0.1,0.1c0,0,0,0.1,0.1,0.1c52.3-4.7,102-21,147.4-47.2c0,0,0-0.1,0-0.1c-0.3-3.1-0.4-4.4,1.7-6.7
	c1.4-1.5,3.5,0.3,3.6,3.6h0v0c26.8-16.2,51.3-36,72.8-58.7c21.5-22.6,40-48.1,54.9-75.7c-0.3,0-0.6,0-0.9,0c-0.1,0-0.3,0-0.5-0.1
	c-0.2,0-0.3,0-0.5-0.1c-0.1,0-0.2,0-0.4-0.1c-0.3,0-0.5-0.1-0.8-0.2c-0.7-0.2-1.5-0.4-2.2-0.7c0.4-0.8,0.8-1.6,1.2-2.6
	c0.4-0.6,0.8-1.2,1.2-1.8c1.4,0,3-1.1,4.8-1.9c0.2-0.1,0.4-0.2,0.6-0.2c0.2-0.1,0.5-0.2,0.7-0.3c0.2,0,0.4-0.1,0.5-0.1
	c0.2-0.1,0.4-0.1,0.5-0.1c0.8-1.5,1.5-3,2.2-4.4c-5.9-2.6-0.5-10.2,2.6-7.5c0,0,0.1,0.1,0.1,0.1c0,0,0.1,0.1,0.1,0.2
	c0.1,0.1,0.2,0.3,0.3,0.4c0.6-1.4,1.3-2.8,1.9-4.3c0.2-0.4,0.3-0.7,0.5-1.1c0.5-1.2,1-2.3,1.5-3.5c0.1-0.2,0.2-0.5,0.3-0.7
	c0.5-1.1,0.9-2.3,1.4-3.4c1.1-2.8,2.2-5.6,3.2-8.4c0.2-0.7,0.5-1.4,0.8-2c1.3-3.5,2.5-7.1,3.7-10.7c0.4-1.4,0.9-2.7,1.3-4.1
	c0-0.2,0.1-0.3,0.2-0.5c0.3-1.1,0.7-2.2,1-3.3c1.4-4.8,2.8-9.7,4-14.6c0.2-0.8,0.4-1.7,0.6-2.5c0.3-1.2,0.6-2.3,0.8-3.5
	c0.3-1.1,0.5-2.3,0.8-3.4c0.3-1.2,0.5-2.5,0.8-3.7c0.3-1.5,0.6-2.9,0.9-4.4c0.2-1.2,0.4-2.3,0.6-3.4l0-0.2c0.2-1.3,0.5-2.7,0.7-4
	c0.1-0.7,0.2-1.4,0.3-2c0.1-0.7,0.2-1.4,0.3-2c0.2-1.4,0.4-2.7,0.6-4.1c0.2-1.3,0.4-2.7,0.5-4c0.1-0.7,0.2-1.4,0.2-2
	c0.1-0.9,0.2-1.8,0.3-2.7c0.1-1,0.2-1.9,0.3-2.9c0-0.2,0-0.3,0-0.5c0.1-1.1,0.2-2.1,0.3-3.2c0.2-1.6,0.3-3.3,0.4-4.9
	c0.1-0.9,0.1-1.9,0.2-2.8c0-0.7,0.1-1.3,0.1-2c0-1,0.1-1.9,0.1-2.9c0-0.1,0-0.2,0-0.3c0-1,0.1-1.9,0.1-2.9c0.1-1.7,0.1-3.4,0.1-5.1
	c0-0.3,0-0.6,0-0.9c-4,1-8,2.1-11.9,3.1c-7.2,45.3-17.3,87.7-39.2,128.5c0.2,0,0.1,0,0,0c-0.7,1.3-3.9,7.1-4.6,8.3
	c-12.3,21.6-27.2,41.8-44.2,60c0.8,0.4,1.3,1,1.7,1.8c-0.4,0.4-0.7,0.8-1.1,1.2c0,1.7-0.9,1.9-0.9,0.1c-0.9-0.3-0.9-0.4-1.8-0.7
	c-36.6,38.6-80.3,69-130.4,87.4c-1,1.4-2.2,2.5-4.3,2.4c-0.1-0.3-0.1-0.5-0.1-0.8c-28.3,10-57.4,15.7-87.3,17.5
	c2-8.9,3.9-17.8,5.6-26.8c4.5-0.4,9-0.9,13.4-1.5c-14.4-10.2,5.7-27.6,6.7-2.9c0.8,0.4,1.4,0.9,1.9,1.5
	c55.1-9.9,106.9-35.3,148.9-72.2c-17.8-11.2-37.1-20.6-53.5-33.9c-0.4,1.7-2.9,2.5-5,3.1c-1.6-3.1-2.5-6.3-2.8-9.7
	c-22.2-19-46.4-34.4-70.2-51.4c23.5,16.6,48.9,29.4,71.5,48c4.5-6.2,4.5,1.6,4.8,3.9c18.2,14.7,39,24.6,58.9,36.6
	c0.2-0.2,0.4-0.4,0.7-0.6c2.4,1.7,20.5,17,22.9,13.7c0-1.4-0.3-2.7-1.1-3.8c3.8,4.1-2.7-20.7-6-25.9c0.5-0.5,0.9-1,1.4-1.5
	c-13.8-22.8-28.4-45.4-44.5-66.7c-14.1-18.6-32.1-34.5-43-55.4c-2.5,0.9-4.8,1.8-6.8,3.5c7.7,12,16.1,22.8,24.9,34
	c-0.1-2,0.7-3.4,2.3-4.4c4.8,0.5,3.8,7,0.6,8.9c1.9,3.6,4.2,7,6.4,10.4c0.7-0.3,1.2-0.1,1.7,0.4c0.2,0.6,0.1,1.1-0.5,1.5
	c11.6,12.8,20.2,29.6,29.8,44c0.9-0.5,1.8-0.8,2.8-1.2c1.6-11,10.5,8.5,10.8,11.7c-1.5,0-2.9,0-4.4,0.1c-0.9-0.8-1.8-1.7-2.7-2.5
	c-0.5,0.4-0.3,0.3-0.8,0.7c3.4,5.5,7,10.7,10.6,16c-5.3-5.2-10.7-10.5-15.7-16.1c-1.4,0-2.8,0-4.1,0c0.9-1.3,3-2.6-0.1-3.9
	c0-0.2,0.1-0.3,0.1-0.5c-23.9-23.6-50.1-45-73.5-69.1c0-2.7-0.2-4.8-3.7-4c-1.6-1.9-3.2-3.8-4.8-5.6c-0.4-1.7-0.8-3.5-3-3
	c-28.1-26.9-54.4-55.8-82.4-82.6c-0.5,0.2-1,0.4-1.6,0.6c0.3-0.5,0.6-0.9,1.1-1.1c-0.2-0.2-0.5-0.5-0.7-0.7c0.3,0.2,0.7,0.4,1,0.5
	c0.5-0.2,1-0.2,1.6,0c-0.3,0.1-0.6,0.2-0.9,0.3c21.6,11.9,40.5,28.2,60.8,42.3c1.2-1.5,2.8-2.8,4.9-3.7c-8.2-5.7-16.4-11.6-25-16.7
	c6.1,1.5,13.7,2.4,20,2.5c-0.6,0.5-3.3,2-2.4,3.3c-1.1,0-2,0.4-2.8,1.2c0.1,3.4,12.5,3.5,15.2,4c-0.4,0.3-0.8,0.7-1.2,1.1
	c-1.2,0.1-6.4,0-6.4,1.6c0.6,1.2,1.5,2.1,2.8,2.6c0,0.1,0,0.2,0.1,0.3c3.3-1.3,6.7-1.8,10.2-1.5c-0.5,1.2-1.3,2.2-2.2,3.2
	c3,0.6,6.3-0.7,9.3-0.8c-0.9,0.8-1.8,1.6-2.7,2.3c-3,0.7-5.7,0-8.8,0.6c-0.4,0.4-0.8,0.8-1.1,1.1c0,0.5,0.6,1.3,0.9,1.7
	c-0.4-0.4-0.9-0.8-1.3-1.3c-2.1,3.1,4.1,5.2,2.5,8.5c0.4,0.3,4.2,3.2,4.3,1.3c5.7,0.4,13.3-2,19-3.4c0,4.7,5.7,10.8,8.1,14.4
	c0-5.6,0-6,2.1-11.9c4.1,0.7,17,5.8,7.3,9.1c29.9,39.3,64.6,75.5,89.5,118.4c30.8-36.7,54-78.3,66.6-124.7c-3-1.3-28-3.8-25-8
	c1.6-2.2,22.5,3.5,25.8,4.8c3.3-14.5,5.7-29,7.5-43.8c2.1-0.5,24.9-5.2,47.4-10.2c10.1-2.2,20.1-4.5,28.1-6.5
	c0.3-0.1,0.6-0.1,0.8-0.2c1.7-0.4,3.3-0.8,4.8-1.2c0.4-0.1,0.8-0.2,1.2-0.3c1.2-0.3,2.3-0.6,3.4-0.9c0.2,0,0.4-0.1,0.6-0.2
	c1.5-0.4,2.8-0.8,3.8-1.2c0.4-0.1,0.7-0.2,1-0.4c0.1,0,0.3-0.1,0.4-0.1c0.2-0.1,0.3-0.1,0.5-0.2c0,0,0,0,0.1,0
	c0.1,0,0.2-0.1,0.2-0.1c0.1-0.1,0.2-0.2,0.3-0.2c0.1-0.1,0.1-0.1,0.1-0.2c0,0,0-0.1,0-0.1c0-0.1,0-0.1-0.1-0.2c0,0,0-0.1-0.1-0.1
	c0,0-0.1-0.1-0.1-0.1s-0.1-0.1-0.2-0.1c-3.1-1.7-21.9,1.9-23.4,2.2c-7.8-1.7-17.6-0.1-25.5,0.4c1.2-0.6,3.3-1.4,3.9-2.8
	c6.2-0.1,12.3-0.7,18.5-1.1l7.6-0.7c1.2-0.2,13.4-0.3,19.7-1.3c0.1,0,0.3,0,0.4-0.1c0.3,0,0.5-0.1,0.8-0.2l0.4-0.1
	c0.1,0,0.2,0,0.2-0.1c0.2,0,0.4-0.1,0.6-0.2c0.1,0,0.2-0.1,0.3-0.1c0.1,0,0.2-0.1,0.3-0.1c0.1,0,0.1-0.1,0.2-0.1
	c0.1,0,0.1-0.1,0.2-0.1c0.1,0,0.1-0.1,0.2-0.1c0.1-0.1,0.1-0.1,0.1-0.2c0,0,0-0.1,0-0.1C799.9,396.9,798.4,396.5,796.8,396.4z
	 M619.2,179.8c1.2-2.3,2.9-4.1,5-5.5c-2.2,2.2-4.1,4.7-6.1,7c0,0-0.1,0-0.1,0C618.3,180.8,618.8,180.3,619.2,179.8z M545.3,163.2
	c1-2.8,12.5-22.3,15.1-20.5c1.5,1-5.3,10.7-6.3,12.2C553.6,155.4,543,169.3,545.3,163.2z M253.2,92.8l-1.4-0.9l1.7-0.5L253.2,92.8z
	 M321.8,107c3.8-7.6,9.1,9.1,8.9,12.7C330.2,129.6,321,108.8,321.8,107z M297.8,108.5c11.5-1.8,0.8,9.7,0.4,7.3
	C298,115.1,291,109.6,297.8,108.5z M233.9,162.8c-1.6,2.2-9.7-4.9-10.4-7.5c-1.7-6.4,6.4,0.5,7.2,3.3
	C231.2,158.9,234.6,161.8,233.9,162.8z M251.2,208.5L251.2,208.5c-1-0.6-1.9-1.1-2.9-1.7C253.7,202.8,253.7,207.9,251.2,208.5z
	 M279.4,195c-1.3,3-4.3,2.4-7,1.9c-5.6,1.9-19.1,0-10.1-8.4C265.5,185.5,282.5,187.6,279.4,195z M287.8,181.4
	c-3.1,4.6-5.1-5.3-5-4.7C286.1,159.2,292.7,174.4,287.8,181.4z M294.3,163.7c0-3-29.7-39.1-21.6-44
	C272.3,120,295.6,158.1,294.3,163.7z M300.4,140.5c-6.9-0.5-8.7-11.4-2.8-9.5C301.1,132.2,308.8,141,300.4,140.5z M314,136.2
	c1.1-3.8,4.6,0.4,5.2,1.2c-0.8,0.8-2.7,2-4.1,2C314,139.4,313.3,138.6,314,136.2z M325.1,228.9c-7.1,3.3-12.4-13.1-4.8-15.1
	C326.9,212,330.7,226.2,325.1,228.9z M329.4,202.2c-7.9-1.9,2.8-6.5,2.4-5.7C331.9,196.3,336.5,203.9,329.4,202.2z M182.4,180.4
	c-1.5-0.8-2.6-1.9-3.4-3.4c1.2,1.1,2.3,2.2,3.5,3.3C182.5,180.3,182.5,180.3,182.4,180.4z M246.1,473.6c0.6,0,0.6,0.2,0,0.5
	c0,0.1,0,0.1,0,0.2l-0.2-0.1c0.1,0,0.1-0.1,0.2-0.1C246.1,473.9,246.1,473.8,246.1,473.6z M241.4,494.4c1.5-0.1,2.6,0.5,2.8,2
	C241.8,499,239.6,494.6,241.4,494.4z M126.3,497.4c-0.7-1.4-0.4-2.5,1-3.3c2.3,0.6,3.4,1.9,3.3,4
	C129.1,497.9,127.7,497.7,126.3,497.4z M174.9,562.8c-3.6,3.7-6.7,9.9-11.8,11.5c-9.9,3,5.1-9.1,6.1-10
	C178.6,555.7,189.1,548.5,174.9,562.8z M140.5,446.1c2.5-1.7,5.1-1.7,7.7-0.2c-0.3,2.5-0.7,5-1,7.5
	C145.6,452.8,136.8,450.3,140.5,446.1z M131.5,528.8c1.8-2.1,32.3-14.6,34.3-13.5C171.1,518.4,128.2,532.4,131.5,528.8z
	 M112.2,479.9c0.4-0.7,17.6-5.1,17.9-4.8C134.3,479.2,108.6,485.9,112.2,479.9z M59.7,389c-1,0.2-2.1,0.3-3.1,0.3
	c1.2-0.3,2.3-0.6,3.5-0.9l2.4-0.6c2.4-0.6,4.9-1.2,7.3-1.9c-0.8,1.2-1.3,1.2-2.3,2.1c-1.7,0.2-3.3,0.4-4.8,0.6L59.7,389z
	 M71.9,396.2c-2.3,0-4.6,0.1-6.9,0.1c0.1-0.3,0.2-0.5,0.3-0.7c1.1-1.4,1.1-1.6,2.4-2.4c2.5-0.1,5.1-0.2,7.6-0.3
	C74.2,394,71.6,393.9,71.9,396.2z M76.2,387c1-1.4,3.4-0.6,3.8-2.5c0.6,0,1.3-0.1,2-0.1c-0.6,0.8-1.1,1.5-1.5,2.4
	C79,386.8,77.6,386.9,76.2,387L76.2,387z M83.1,396.3c-2,0-4,0-6-0.1c0.5-1.9,2.8-2.2,3.1-3.6c2.9,0,5.7-0.1,8.5-0.1
	C87,394.4,85.3,395.1,83.1,396.3z M90.8,396.1c-0.2,0-0.4,0-0.6,0c1.4-1.7,2.6-3,4.6-3.9c0.4,0,0.8-0.1,1.2-0.1c0,1.2,0,2.4,0,3.6
	C94.3,395.9,92.5,396,90.8,396.1z M96.3,385.9l-0.2,0.2c-2.4,0-4.8,0.1-7.2,0.2c0,0,0.1,0,0.1-0.1c0.6-0.7,1.2-1.5,0.5-2.3
	c2.3-0.2,4.6-0.5,6.9-0.7L96.3,385.9z M151.7,631.9c1.5,0.1,2.9,0.1,4.4,0.2C154.5,633.6,153,633.5,151.7,631.9z M651.6,635.4
	c0.8-0.3,1.6-0.3,2.4-0.5c-0.3,0.8-0.6,1.5-0.9,2.3C652.5,637.3,648.9,636.4,651.6,635.4z M625.9,613.1c0.2-0.2,0.5-0.3,0.8-0.2
	c0.5,1,0.7,0.8-0.5,1.5C625.8,613.9,625.7,613.5,625.9,613.1z M619.7,617c2.4,2.1,4.9,3.8,6.9,6.3c-2.2-2.2-4.7-4-7-6.1
	C619.6,617.1,619.6,617,619.7,617z M607.1,605.5c-2-0.5-1.1-0.8-1.7-1.5c-0.1-0.1-0.1-0.2-0.1-0.3
	C605.9,604.3,606.5,604.9,607.1,605.5z M601,613.9c1.2,0.9,2.5,1.7,3.8,2.4c-0.1,0.1-0.1,0.1-0.2,0.1c-1.4-0.9-3.4-2.3-6-4.1
	C599.4,612.9,600.3,613.4,601,613.9z M561.6,574.9c-0.7-1.1-2.3-1.8-1.6-3.2c0.3,1.2,3.2,3.8,2.9,4.7
	C562.6,575.8,562.2,575.3,561.6,574.9z M562.7,581.3c-0.1,0-0.2-0.1-0.3-0.2c1.5-1-0.3-2.8,0.2-4.1c0.1,0.4,2.6,5.3,3,5.9
	C564.7,582.4,563.7,581.9,562.7,581.3z M596.3,594.7c0.1-0.1,0.1-0.2,0.1-0.3c0.2,0.2,0.4,0.5,0.6,0.7c-0.2,0.1-0.5,0.2-0.7,0.3
	C596.1,595.2,596.1,595,596.3,594.7z M594,599.6c-1.3-0.9-2.6-1.7-3.9-2.5c-0.5-2.4-2.8-3.2-3.7-5.2c-0.8-0.1-1.3-0.5-1.2-1.3
	c0.2,0.3-0.3-2.5-0.3-2.6c1.4,1.3,2.3,3.1,3.8,4.5C589.1,593,594.4,598.9,594,599.6z M573.7,571.6c2.3,2.2,4.7,4.4,7,6.6
	c2.3-0.1,3.8,1.7,4.1,3.7c0.8,0.7,1.6,1.4,2.3,2.2c-1,0.5-1.7,1.6-2.5,2.2c0.1-0.7-0.1-0.7-0.3-1.2l-0.1,0.7c-2.8,0.5-5.4-0.1-8-1.7
	c-0.7,0-10.5-1.4-4.7-4.2c1.2-0.6,2.7-0.9,4.1-1.3C574.7,576.2,574.7,573.9,573.7,571.6z M567.6,567.6c0.2-0.3,0.6-0.5,0.8-0.8
	c0.6,0.6,1.2,1.1,1.8,1.7c-0.7,0.3-1.4,0.6-2.1,1C567.8,569.1,567.3,567.9,567.6,567.6z M557.5,556.9c0-0.1,0.1-0.1,0.2-0.2
	c2.8,2.7,5.7,5.3,8.5,8c-3,0.2-5.4,2-7.4,4C558.7,566.6,556.6,558.5,557.5,556.9z M551.5,550.1c1,1.2,2,2.3,3.1,3.5
	c-2.8,0.9-3.5,2.3-5.5,3.9c0.8-2.4-0.5-8.2-0.9-11C549.4,547.7,550.5,548.9,551.5,550.1z M548.6,558.5c1.1,4.4,5.7,8.6,6.5,12.3
	c0.2,0.8,1.6,6.6,1.6,6.7c-1.7-1.4-3.4-2.7-5.3-3.8C550.4,571.3,547.2,561.1,548.6,558.5z M678.5,288.7c9.7,25.1,16,51.8,18.5,78.9
	c-1.3-10.2-6-41.9-18.5-79.2C678.5,288.6,678.5,288.6,678.5,288.7z M680.4,334.7c-12.5,4-22.3-0.6-5.1-2.1
	C685.1,332.8,696.5,329.5,680.4,334.7z M646.5,228.8c0.5,0.2,1,0.4,1.5,0.6C647.3,231,645.8,230.6,646.5,228.8z M626.6,241.1
	c1.8-1.8,16.2-12.8,17.4-11.2c1.2,1.7-6.6,7.4-8.1,8.4C635.5,238.4,622.1,245.7,626.6,241.1z M625.9,294.8
	c3.1-3.1,43-22.3,46.4-20.6c2.1,1.1-18.7,11.8-21.7,13.4c-4.5,2.4-9.9,6.7-14.9,7.8C634.8,295.6,623.1,297.5,625.9,294.8z
	 M646,312.4c-0.6,0.9-1.3,1.8-1.9,2.7c-0.7-0.9-1.4-1.7-2.1-2.6C642.1,312.7,644.8,307.3,646,312.4z M612.2,214.7
	c0.4-0.8,2.2-1.1,3.7-1.7c3.5,0.5,6.2,2.2,8,5C621.3,219.5,609.1,220.6,612.2,214.7z M605.2,308.5c1-12.5,9.3,1.8,8.3,1.7
	C613.2,310.2,604.3,319.2,605.2,308.5z M624,355.4c-6.3-1.1-12.7-2.4-19-4.1L624,355.4z M575.5,345c-9-1.7-18.1-3.3-26.9-5.8
	L575.5,345z M559.2,276.1c-1.8,2.2-3.2,4.3-4.6,6.7c-11.3-0.6-20.8,2.9-32.6,0.1c2.2-2.2,4.3-4.5,6.3-6.8c3.6,9,25.2,2.3,31.6-0.9
	C559.7,275.5,559.5,275.8,559.2,276.1z M532.7,290.1c-0.5,0.1-1.1,0.3-1.6,0.4c-0.8,0.2-1,0.1-1.7-0.3
	C530.6,290,531.5,289.8,532.7,290.1z M565.8,266.4c-0.6,1-1.2,1.9-1.8,2.9c-7.6,0-25,7.4-32,2.3c1.1-1.6,2.3-3.2,3.5-4.7
	c6.6,12.6,22.2-7,31.4-2.5C566.6,265,566.2,265.7,565.8,266.4z M539.2,262.6c1.4-1.5,2.8-3,4.3-4.5c0.4,0.7,2.7,3.2,3.6,3.5
	C545.8,261.8,540.4,263.2,539.2,262.6z M570.6,256.1c-0.4,0.5-0.7,1.1-0.9,1.7c-6.7,2.1-13.8,1.3-20.2,3.2c2.9-2,18-6.7,21.6-5.7
	C570.9,255.6,570.8,255.9,570.6,256.1z M549,252.5c1.9-1.8,3.9-3.5,5.8-5.3c1,2.5,2.1,2.8,3.6,4.6
	C556.5,251.2,551.2,251.9,549,252.5z M571.6,267c-0.2,0-0.2-0.3,0-0.3C571.8,266.7,571.8,267,571.6,267z M576.4,246.9
	c-0.6,0.8-1.2,1.8-1.8,2.7c-2.5,0.9-12.6,4.1-15.2,2.8c3.3-0.8,16.2-10.2,19-8C577.8,245.2,577.1,246,576.4,246.9z M558.6,243.4
	c2.4-2.6,4.7-5.2,7.1-7.7c0.6,2.7,2,4.7,3.9,6.6C566.1,242.3,562.1,241.9,558.6,243.4z M572.6,240.9c1.2-0.3,3.8-3.2,4.6-2.9
	C575.5,238,574.8,242,572.6,240.9z M582.2,238.2c-0.1,0.1-0.1,0.2-0.2,0.3c-1-1.5-2.8,0.3-4.1-0.2c0.5-0.1,5.3-2.5,5.9-3
	C583.3,236.2,582.8,237.2,582.2,238.2z M598,210.8L598,210.8c-2.4,0.5-3.2,2.8-5.2,3.7c-0.1,0.8-0.5,1.3-1.3,1.2
	c0.4-0.2-2.5,0.3-2.6,0.3c1.1-1.2,10.8-9.6,11.6-9.1C599.7,208.1,598.8,209.4,598,210.8z M605,195.4c0.5-0.5,0.9-0.9,1.4-1.4
	c-0.2,1.1-0.3,1.8-1.5,1.5L605,195.4z M604,196.7c-0.1,0.3-0.4,0.4-0.7,0.3c0.2-0.2,0.5-0.5,0.7-0.7L604,196.7z M473.9,275.8
	c29.6-16.8,57.4-39.1,85.4-58.5c0-3.2,3-3.6,5.7-4c12.6-9,25.8-17.1,38.5-25.9c-6.1,6.3-12.3,12.3-18.6,18.3
	c5.8-0.6,8.6,7.8,1.8,9.9c0.2,0.2,0.3,0.4,0.5,0.7c-1.8-0.3-1.2,0.4-2.9-0.3c-0.1,0-0.1,0-0.2,0c-0.2,0.1-5.2,0-7.6-0.3
	c-1.1,1.3-2.2,2.7-3.4,4c0.4,2,1.2,3.9,2.2,5.8c0.5-0.6,1.1-1.2,1.7-1.8c2.3-2.3,4.3-4.8,6.3-7c-1.4,1.9,0.4,6.2,1.8,7.5
	c-0.4,0.1-0.8,0.1-1.2,0.2c-2.2,0.9-5,1.6-8.1,2.1c8.9,15.5-4.9,7.6-13.1,5c-15.1,17-31.4,34.1-47.6,50.2c-3.4-3-6.5,1.2-5,4.7
	c-1.4,1.2-2.9,2.5-4.2,3.7c-3.1-2.3-5.7,1.4-4.3,4.3c-0.9,1-1.9,2-2.8,3c-1.7,0.3-2.7,0.7-2.5,2.7c-23.8,25.1-48,49.7-72.7,73.8
	c5.7-10.8,14-21.2,21.2-30.9c1.1-1.5,14-21.3,22.8-33.5c-1.4-0.4-2.8-0.7-4.2-1.1c-7.9,6.3-14.7,19.8-19.6,28.1
	c0.9-3.6,1-7.4,1.3-11.1c1.8-1.5,3.2-3.1,4.7-4.9c1.2,3.8,3.4-3.4,3.7-4.3c1-1.1,2-2.2,3-3.2c1.1,3.2,4-3.1,4.2-4.1
	c0.4-0.3,0.7-0.7,1.1-1c-3.2-1.2-7.1-4.2-4.7-8.2c1.4-1.1,3-1.6,4.7-1.6c-0.1-1.8-0.5-3.5-0.6-5.2c0.6-0.7,1.2-1.5,1.9-2
	c0.1,2.2,0.4,4.4,0.6,6.6c-0.3,0.3-0.7,0.5-1,0.9c0.6,0.3,3.1,7,3.5,7.6c0.3-0.2,0.5-0.3,0.7-0.5c-0.2,0.2-0.4,0.4-0.6,0.6
	c0.8,1,1.4,2,1.7,3.2c3.9-5.4,6.9-9.3,7.5-9.3c0.1-1.6-0.1-3.2-0.4-4.8c1-1,1.9-2.9-0.5-2.8c-1-5-2.1-10-3.3-14.9
	C471.8,276.9,472.8,276.4,473.9,275.8z M414.8,170.7c0,1.2,0.1,2.3,0.1,3.5c-1.9,1-4,3.2-4,5.5c-0.4-3.5-0.6-6.9-0.7-10.4l0-0.5
	l4.3-8.8c0.1-0.1,0.1-0.1,0.2-0.2v0.3L414.8,170.7z M415.5,269.9c0.1,0.1,0.2,0.1,0.3,0.2c-0.1,7.1-0.1,14.2-0.3,21.3
	c-0.7,0.6-1.4,1.1-2,1.8c0-14.5-0.2-28.9-0.7-43.4c1.1-1.2,1.9-2.7,2.9-4c0.1,6.7,0.1,13.4,0,20.1
	C415.3,266.9,414.3,269,415.5,269.9z M413.8,241.4c-0.4,0.4-0.8,0.9-1.2,1.4c-0.2-6.2-0.4-12.4-0.6-18.7c1.5,0.1,2.8-1.9,3.5-2.9
	c0.1,6.2,0.2,12.4,0.2,18.5C415.1,240.4,414.5,240.9,413.8,241.4z M414.4,244.8l-0.7-0.3l0.7-0.5L414.4,244.8z M415.5,214.1
	c0,0.3,0,0.7,0,1c-1.3,0.8-2.8,2.2-3.6,3.6c0-5,0.2-10,0-15.1c1.7-0.6,2.9-3.6,3.9-4.9C415.8,203.9,415.6,209,415.5,214.1z
	 M415.5,192.1c-1.2,1.7-2.5,3.2-3.8,4.9c0-5.5-0.3-11.1-0.8-16.6c0.8,3.1,3.5,0.6,4.4-0.7c0.3,4,0.4,8,0.4,12
	C415.7,191.8,415.6,191.9,415.5,192.1z M413.5,300c0.6-0.8,1.2-1.6,1.9-2.4c-0.2,6.6-3,79-0.8,79.3c1.7,0.2,3.5-14.3,3.6-15
	c2.7-2.8,4.3-6.4,6.9-9.3c0.3,0.8,0.6,1.6,0.9,2.4c0.8-3.8,12.2-20.2,13.7-23c0.1,3.1-0.4,7.1,0.6,10c-5.4,8.8-11.6,17.1-17,25.8
	c-4.8,7.9-9.3,16.2-15.6,23C416.6,362.9,413.2,328.9,413.5,300z M428.7,166.1c0-1.7,0-3.3,0-5c2.1-3.1,4.3-6.2,6.3-9.3
	c-0.5,3.2-0.3,6.9,0,10.2c-2.4,0.9-2.9,3.5-4.3,5.4c1.3,1.9,0.1,3.8-1.6,5.2L428.7,166.1z M439.9,303.2c0.7,0.4,1.3,0.9,2,1.4
	c-0.6,0.9-1.2,1.8-1.9,2.7c0,1,0,2,0,2.9c-1.2,1.2-2.2,2.6-3.3,4c0-2.3,0.1-4.7,0.2-7c-1.2-1-2.5-1.9-3.7-2.9c2-2.5,2.9-3.5,4-3.2
	c0-0.5,0-1,0-1.5c1.1-1.2,1.6-2.8,2.7-4C439.8,298.2,439.8,300.7,439.9,303.2z M446.5,224.3c-1.4,2-3.1,3.7-4.5,5.7
	c-0.8-6.4-0.1-12.8-0.4-19.2c1.6-1.7,2.9-3.7,4.3-5.6C445.8,211.7,445.8,217.8,446.5,224.3z M440.2,315.9c0,3.2-0.8,6.5-0.7,9.7
	c-1.6,2-2.6,4.3-4,6.5c0.8-3.6,1.2-7.3,1.2-11C437.8,319.3,438.8,317.4,440.2,315.9z M433.5,334.5c-1.8,2.2-3.6,4-5.2,6.4
	c0-1.2,0-2.5,0-3.9c0-1.5,0-3,0-4.6c1.4-2.2,2.4-4.8,4.2-6.8C432.3,328.7,432.7,331.6,433.5,334.5z M428.2,326c0.1-4,0.4-8,0.3-12
	c0-0.9,0-1.7-0.1-2.6c0.8-1.6,1.9-3.3,2.9-4.8c-0.1,5,0.3,10,0.8,15C430.7,323.1,429.4,324.4,428.2,326z M431.4,296.2
	c-0.1,0-0.1,0-0.2,0c0.1,1.7,0.2,3.3,0.2,5c-1.3,1.1-2.5,3-3.4,4.3c-0.6-7.8-1.2-15.6-1.5-23.4c1.4-1.2,2.5-2.6,3.7-4
	c0.3,5.8,0.7,11.5,1,17.2C431.8,295.4,431.9,295.7,431.4,296.2z M427.5,198.2c-0.1,0.1-0.2,0.2-0.3,0.3c-2.1,1.8-2.4,4.7-4.1,6.9
	c0-5.9-0.3-11.9-0.7-17.8c1.2-2,2.2-4.4,3.8-6C427,187.1,427.3,192.6,427.5,198.2z M427.6,203.9c-0.2,4.5-0.2,9,0,13.5
	c0.1,1.2,0.1,2.5,0.2,3.7c-1.8,2-2.9,4.7-4,7.1c-0.3-6.1-0.8-12.2-0.7-18.4C424.4,207.7,426.4,206.4,427.6,203.9z M428,227.1
	c0.4,7.2,0.8,14.4,1,21.7c-0.8,0.8-1.7,1.3-2.2,2.3c-0.6,0.8-1.1,1.7-1.7,2.5c-0.3-6.9-0.7-13.8-1.1-20.7
	C425.9,231.2,427.1,229.3,428,227.1z M429.3,253.1c0,1,0.1,2.1,0.1,3.1c0.2,5.1,0.3,10.3,0.5,15.4c-1.4,1.6-2.1,4.3-3.6,6
	c-0.2-5.8-0.5-11.6-0.8-17.4C426.6,257.8,427.9,255.4,429.3,253.1z M431,192.8c-0.2-4.9-1.4-9.8-1.6-14.8c1.9-2.8,4.1-5.2,6.1-7.9
	c0.2,5.2-0.1,10.5,0.4,15.7C434.3,188.3,432.4,190.3,431,192.8z M425.9,175c-1.1,2.2-2.6,4.2-4.2,6.2c-0.4-2.6-0.6-5.2-0.7-7.9
	l0-0.4l4.7-8l0.1,9.3C425.9,174.4,425.9,174.7,425.9,175z M425.5,157.8c-0.9,1.9-2.2,3.3-3.4,5l-1.4,2.6l-0.1-3.2
	c-0.2-5.1,0.1-10.2-0.1-15.2c1.6-1.4,2.7-3,3.7-4.9C424.8,147.2,425.4,152.5,425.5,157.8z M425.1,100.4c0.6,2.6,1.3,5.2,1.9,7.9
	c-0.4,0.3-1,0.5-1.5,0.8C425.4,106.1,425.3,103.2,425.1,100.4z M423.4,270.9c-1.2,1.9-2.5,1.6-4-0.9
	C420.6,268.1,422,268.4,423.4,270.9z M421,306.8c-0.1-5.5-0.1-11,0-16.5c0.1-0.2,0.2-0.3,0.3-0.5c0.5,7.5,1,15,1.3,22.5
	c-0.5,0.4-1,0.9-1.5,1.4C421.1,311.4,421,309.1,421,306.8z M420.9,329.9c0.1-3,0.1-6.1,0.1-9.1c0.5-0.8,1-1.5,1.6-2.2
	c0,5.1,0.1,10,0.5,15.1c-0.8,1-1.9,1.7-2.7,2.6C420.7,334.1,420.8,332,420.9,329.9z M419.5,344.6c1.4-1.8,2.7-3.7,4.1-5.5
	c0.3,2.7,0.6,5.4,0.8,8c-1.3,2.2-3.9,4.3-5.5,6.3C419.1,350.4,419.3,347.5,419.5,344.6z M455.5,306.1c-0.4,0.4-0.8,0.8-1.2,1.2
	c0.3-1.6,0.6-3.2,0.5-4.8c0-0.6-0.1-1.6-0.2-2.7c0.4-0.5,0.8-0.9,1.3-1.3C455.9,301.1,455.4,303.6,455.5,306.1z M454.6,291.4
	c-0.2,0.4-0.5,0.8-0.8,1.2c-0.4-3.6-0.4-7.3-0.6-10.9c0.5-0.6,1.1-1.2,1.7-1.8c0.3,3.5,0.5,6.9,0.6,10.4
	C455.2,290.6,454.9,291,454.6,291.4z M454.8,271.7c-0.7,1-1.4,1.9-2.2,2.8c-0.5-6.5-0.9-12.7-1.1-19.2c0-0.9-0.1-1.8-0.1-2.7
	c0.6-0.9,1.4-1.6,2-2.5C454.5,255.9,455.6,265.9,454.8,271.7z M461.8,283.6c0,0.4,0.1,0.7,0.2,1.1c-0.5,0.4-1,0.7-1.6,1
	c-0.4-3.4-1-6.7-1.4-10c0.6-0.8,1.4-1.4,2-2.2C460.6,276.2,461.3,281.3,461.8,283.6z M467.2,304.7c1.1-1.2,1-2.6,1.6-4
	c1.4-0.8,2.4-1.8,3.5-3c0.3,0.9,0.7,1.8,1.2,2.6C471,301.2,469.1,302.8,467.2,304.7z M470.7,293.1c-0.8,0.4-1.5,0.8-2.3,1.3
	c-0.4-2.5-0.6-5-1.4-7.4c0.5-0.6,0.9-1.2,1.4-1.8C469.2,287.8,469.9,290.5,470.7,293.1z M500.3,212.1c-9-2.9,0-5.9,0.1-6.7
	C500.5,203.5,510.3,215.3,500.3,212.1z M494.3,163.4c2.2-4.6,25.7-42.4,26-41.8c1,2.3-10.6,20.1-12.2,23.6c-2,4.3-3.5,11.2-6.7,14.9
	C500.2,161.5,491.6,168.9,494.3,163.4z M477.9,128.4c0.1,8.7-5.3,1.1-5.8,1.1C473.5,129.1,476.5,123.8,477.9,128.4z M465.9,130.5
	c0.7-2.8,8-25.7,9.5-25.3c2.3,0.7-1.5,12.6-2.1,14.6c-0.6,2-0.3,7.3-1.8,9C470.7,129.6,464.9,134.5,465.9,130.5z M464.9,270.4
	c0.8,3.9,1.7,7.7,2.7,11.5c-0.5,0.1-1.1,0.2-1.8,0.4c0.2-3.1-1-8.2-1.8-11.3C464.4,270.8,464.7,270.7,464.9,270.4z M462.8,263.7
	c0.2-0.8,0.2-1.4,0.2-2.2c0.2,1.1,0.5,2.2,0.7,3.3c-0.3,0.2-0.6,0.4-1,0.6C462.6,264.8,462.6,264.3,462.8,263.7z M462.3,257.8
	c-2.4-7.2-3.6,6.7-2.8,9.4c-0.3,0.1-0.7,0.3-1,0.5c-0.5-6.8-1.8-13.5-2.1-20.5c1.4-0.9,2.2-2,3.2-3.3
	C460.8,248.4,461.6,253.1,462.3,257.8z M454.5,223.3c1.3,5.4,2.6,10.8,4,16.2c-0.8,0.2-1.6,0.6-2.2,1.1c0.4-2.4,0.8-13-2.8-13
	c-2.6,0-1.6,14.1-1.4,15.9c-0.7,0.4-1.2,0.8-1.8,1.3c-0.6-5.4,0.2-10.8-0.1-16.2c1.5-1.5,2.6-3.3,4-4.9L454.5,223.3z M449.7,211.8
	c0.3-2.2,0.4-4.3,0.5-6.5c0.8,4.1,1.9,8.2,2.9,12.3c-1.1,0.8-2.5,1-3.4,2.1C449.4,217.1,449.4,214.5,449.7,211.8z M448.5,310.4
	c0,0.1,0,0.2,0,0.3c0.1,1.1,0.2,2.2,0.3,3.3c-0.9,1.3-1.9,2.6-2.9,4c0.2-2.6,0-5.2-0.1-7.8c0.5-0.6,0.9-1.1,1.4-1.7v0
	c0.5-0.6,1-1.2,1.5-1.9C448.6,307.8,448.4,309,448.5,310.4z M446.2,306.6L446.2,306.6c0.2,0.3,0.3,0.6,0.5,0.9
	C446.5,307.2,446.4,306.9,446.2,306.6z M448.6,298.8c-1.1,1.3-2.1,2.6-3,4.1c-0.3-4-0.2-8.1-0.3-12.1c0.9-1.1,1.9-2.2,2.9-3.4v2
	C448.2,292.5,448.5,295.6,448.6,298.8z M448,279.9c-1,1.2-2,2.5-2.9,3.9c-0.2-7.5-0.8-15-1.3-22.5c1.2-1.5,2.5-3,3.8-4.3
	C447.2,264.7,447.7,272.2,448,279.9z M447.2,248.9c-1.1,1.8-2.6,3.2-3.8,4.9c-0.1-5.7,0.2-11.3-0.3-17c1.3-1.7,2.7-3.4,4.1-5
	c0.4,5.6-0.6,11.1,0.3,16.7C447.4,248.6,447.3,248.7,447.2,248.9z M445.7,183.3c0.6,2.5,1.2,5,1.7,7.5c-1.8,1-1.5,5.7-1.5,7.8
	c-1.5,1-3.7,1.9-4.8,3.3c-0.3-4.1-0.5-8.3-0.9-12.4c1.5-1.9,4.1-4,5.4-5.9C445.6,183.5,445.6,183.4,445.7,183.3z M439.8,165.4
	c0.2-0.2,0.5-0.5,0.6-0.7c1.1,4.7,2.6,9.2,4,13.8c-1.8,0.3-3,1.7-4.6,2.4c0.3-5.1,0.2-10.3-0.2-15.4
	C439.7,165.5,439.8,165.5,439.8,165.4z M439.8,272.6c0.1,5.4,0.2,10.9,0.2,16.3c0.3,0.1,0.6,0.3,0.9,0.5c-0.4,0.4-0.8,0.7-1.2,1.1
	c0,0,0,0,0-0.1c-0.9,1.1-2,2.2-2.7,3.4c-0.6-7.5-1.2-15.1-1.6-22.6c1.5-1.5,2.9-2.7,4.2-4.4C439.6,268.7,439.7,270.6,439.8,272.6z
	 M439.3,259.2c-1.5,2.1-2.8,4.2-4.2,6.3c-0.3-5.9-0.7-11.8-1-17.7c1.1-2.8,3-5,5.5-6.7C439.5,247.1,439.1,253.1,439.3,259.2z
	 M439.4,160c-0.1,0-0.2,0-0.3,0c-0.1-0.8-0.2-1.6-0.3-2.4C439,158.4,439.2,159.2,439.4,160z M439.2,234.2c-1.7,2.7-3.7,4.7-5.5,7.2
	c-0.4-6.3-0.9-12.6-1.4-18.8c2.5-2.2,4.1-5.6,6.2-8.2c-0.1,1.8-0.1,3.7-0.1,5.5C438.5,224.8,438.5,229.4,439.2,234.2z M438.1,206.4
	c-2.2,3-4.5,5.9-6.3,9.1c-0.3-5.1-0.1-10.2-0.4-15.3c2.2-1.9,3.5-4.8,5.4-7c0.3,2.7,0.6,5.3,0.9,8
	C437.8,202.9,437.9,204.7,438.1,206.4z M436.5,149.5c0.1-0.1,0.3-0.2,0.5-0.3c0.1,0.4,0.2,0.8,0.2,1.2c-0.2-0.5-0.5-0.8-0.8-0.8
	C436.5,149.6,436.5,149.6,436.5,149.5z M432.6,130.3c1.2,4.5,2.4,9,3.3,13.6c-4.4,1-5.6,4.8-7.6,8.2c-0.3-4.9-0.7-9.8-1.2-14.8
	c1.8-2.2,2.7-4.4,4.8-6.1C432.3,131,432.5,130.7,432.6,130.3z M427.7,116.4c0.2-0.6,0.6-1.2,0.9-1.7c1,3.8,2,7.7,3,11.5
	c-2.1,0-3.3,1.4-5.1,2.2c-0.4-3.1-0.6-6.2-0.8-9.2C426.3,118.2,427.1,117.4,427.7,116.4z M427.3,86.8c-2,1.6-3.2,1.1-3.7-1.7
	C425.2,84,426.5,84.5,427.3,86.8z M422.3,124.8c0.4,2.9,0.7,5.8,1,8.7c-1.3,2-2.3,4.2-3.1,6.5c-0.2-4-0.4-7.9-0.7-11.9
	c0.9-1.1,2-1.9,2.7-3.1C422.2,125,422.2,124.9,422.3,124.8z M420.8,102.1c0.3,4.6,0.6,9.2,0.7,13.8c-1,1.9-1.8,3.7-2.6,5.7
	c-0.6-8.8-0.6-11.2,1.4-18.2C420.5,102.9,420.7,102.5,420.8,102.1z M417.7,81.3c0.5-1.6,0.8-3.2,1.4-4.8c-0.1,4.9,1.8,11-0.1,15.7
	c-0.5,0-1-0.1-1.5-0.1c-0.1-3.1-0.3-6.2-0.5-9.4C417.4,82.4,417.6,81.9,417.7,81.3z M414.9,60c0.1-0.2,0.1-0.4,0.2-0.7
	c0.7,2.8,1.4,5.7,2.2,8.5c-0.5,0.5-0.8,0.9-1.4,1.2C414.6,66,414.3,63,414.9,60z M414.4,151c-2,1.8-2.9,5.6-4.5,7.7l-0.1,0
	c-0.1-4.3-0.2-8.6-0.1-12.8c1.5-3.1,3.3-5.6,4.6-8.9C414.6,141.7,414.5,146.3,414.4,151z M413.1,123.1c0.1-0.3,0.2-0.6,0.4-0.9
	c0.2,3.1,0.4,6.3,0.6,9.5c-1.5,2.5-3.1,4.6-4.3,7.4c-0.1-4.8-0.4-9.6-0.6-14.5C410.6,127.2,412.7,124.7,413.1,123.1z M411.8,100
	c1,10.7-1.5,13.2-2.8,21.6c-0.3-8-0.7-15.9-1.1-23.9l0.9,0C408.9,99.2,410.3,100.5,411.8,100C411.8,100.1,411.8,100.1,411.8,100z
	 M410.8,75.3c0.2,5.1,1.5,11.5,0.2,16.5l-3.4-0.2c-0.3-5-0.3-10-0.2-15c1,0.9,2.2,1.1,3.1,0C410.8,76.2,410.6,75.7,410.8,75.3z
	 M410.2,61.5c-1.9,2.8-0.1,8.2-2.8,10.9c0-6.2-0.2-12.4-0.3-18.6c2.9-1.5,0.3-8,2.1-10.4C409.4,49.4,409.9,55.4,410.2,61.5z
	 M406.1,32.1c0.8,0.5,2.2,1,3.1,0.5c0,0.1,0,0.1,0,0.2c-2.6,1.1-2.5,1.6-3,4.4c-0.1-1.9-0.2-3.7-0.3-5.3C405.9,32,406,32,406.1,32.1
	z M405,110.2c0.8,10.7,1.7,21.6,1.6,32.3c-1,1.4-2.2,4.6,0,5.6c0,3.3,0,6.6,0.1,9.8l0.2,10.4c0.3,17.5,0.9,34.9,0.9,52.5
	c0,17,0.6,34.1,0.6,51.1c0,3.1-0.5,8-0.9,13.1c0,5.5,0.1,10.9,0.1,16.4c0.1,0.5,0.3,1,0.5,1.5c-0.2,6.7,0,13.3-0.1,19.9
	c-0.2-7.1-0.3-14.3-0.4-21.4c-0.9-4-0.6-10.3-0.1-16.4c-0.1-23.6-0.7-63.1-1.1-86.3c-0.2-10.1-0.5-20.1-1.1-30.2c0-0.2,0-0.4,0-0.6
	l-0.2-10.4C404.8,141.9,405.2,126.1,405,110.2z M405.9,385.1c-0.1,2.3,0.1,4.7,0.5,6.9c-0.3,0.3-0.6,0.7-0.8,1
	c-0.5,0.6-0.8,1.2-1.1,1.6C405,392.3,405.5,389.2,405.9,385.1z M403.7,398.4c0.2,0,0.3,0.1,0.4,0.1c0.1,0.1,0.2,0.2,0.5,0.3
	c0,0.3,0,0.6,0,0.9c-0.3-0.3-0.9-0.2-1.9,0.1c-0.4-1.1-0.9-2.1-1.5-3.2c0.4,0.4,0.8,0.8,1.1,1C402.6,399.9,403,400.1,403.7,398.4z
	 M360,179.6c-0.7,4.1-1.7,8.1-2.5,12.2L360,179.6z M381,98.5l1.1-0.1c0.4-2.3,1-4.6,1.7-6.8c-0.4,0-0.9,0-1.3,0
	c5.9-26.2,12.7-52.2,18.2-78.5c-0.7,26-0.4,52.2,0.3,78.2h-0.7c0.1,2.1,0.2,4.2,0.3,6.4c0.2,0,0.4,0,0.6,0
	c0.7,19.9,0.6,39.6,0.5,59.5l0,10.2c0.1,4.3,0.5,8.6,0.6,12.8l0,1.4c1.1,69.7-1.6,139.5-0.4,209.2c-21.2-30-42.1-61.1-65.5-89.4
	c2.3-3.3,2.9-8.3,3.8-12.1C356.8,226.7,367,161.8,381,98.5z M399.8,401.1c-1,0.5-2.1,1.1-3.3,1.8c0.6-0.6,1.1-1.1,1.5-1.6
	c0.7-0.1,1.2-0.2,1.5-0.4C399.7,400.9,399.7,401,399.8,401.1z M293.2,250c6.6,4,36.7,29.7,45.5,26.2c-1.6,7.6-3.7,15.7-3.7,23.5
	c-4.5-4.9,2.3,12.4,3.9,15c6.5,10.1,16.2,18.8,23.5,28.2c10.2,13,22.8,26.7,30.3,41.5c-25-29.8-54.1-55.5-82.9-81.7
	c2.2-2.8,2.9-27.7,1.4-31.2c-6.3-14.6-7.1,16.2-7.4,20.9c-0.5-7.9-2.8-16.2-3.8-23.8c-1-6.7-2-17.7-6.2-5.7
	C293,261.7,292.9,250.5,293.2,250z M295.3,270.9c-0.1,0.3-0.3,0.6-0.4,0.9c-0.2-1.2-0.5-2.2-0.2-3.4
	C295,269.2,295.2,270.1,295.3,270.9z M285.6,266.6c-2.6-8.1-2.3-18.2-5.8-25.4c2.5,2,4.8,3.7,7.5,5.3c-0.6,11.8,1.4,21.5-0.2,34
	c-2.5-2.5-5.1-4.9-7.8-7.2C281.3,272.8,286.6,269.4,285.6,266.6z M268.6,234.8c0.1-0.2,0.3-0.4,0.4-0.6c1.7,0.9,3.3,1.9,4.9,3
	c0,4,0,10.1,0.3,16.2c1.7,3.6,2.6,7.1,0.7,9.8c0.3,3,0.7,5.6,1.2,7.6c-2-1.4-3.9-2.9-5.7-4.6c2.2-0.8,3.6-1.9,4.4-3.1
	c-0.3-3-0.5-6.4-0.7-9.8C271,246.7,265.2,239.3,268.6,234.8z M266.7,262.7c-1.6-1.6-3.2-3.1-4.8-4.7c1-0.4,3.8-2.7,4.3-4
	C266.6,256.2,267.9,260.8,266.7,262.7z M260,230.1c0.8,0.5,1.6,1,2.5,1.4c2.1,6.7,1.3,13.8,3.2,20.2
	C263.7,248.5,258.9,233.9,260,230.1z M248.9,222.7c1.7,1.4,3.4,2.7,5.3,3.8c0.9,2.5,4.1,12.6,2.8,15.2
	C256.1,238.4,246.8,225.5,248.9,222.7z M256.4,243.8c0.3,3.1,0.1,6.5,0.8,9.5c-2-2.3-4-4.5-6.1-6.8c2.8-0.9,3.3-2.2,5.2-3.8
	C256.3,243.1,256.3,243.5,256.4,243.8z M243.9,225.3c0.7,1.1,2.3,1.8,1.6,3.2c-0.3-1.2-3.2-3.8-2.9-4.7
	C242.9,224.5,243.3,225,243.9,225.3z M242.8,218.9c0.1,0,0.2,0.1,0.3,0.2c-1.5,1,0.3,2.8-0.2,4.1c-0.1-0.5-2.6-5.3-3-5.9
	C240.8,217.8,241.8,218.4,242.8,218.9z M239.7,235.5c2.9-0.4,5.2-2,7.1-4c0,1.9,2.1,10.7,1.2,11.9c-2.8-2.6-5.6-5.2-8.4-7.9
	C239.6,235.6,239.6,235.6,239.7,235.5z M235.7,231.7c0.5-0.2,1.2-0.5,1.8-0.9c0.9,1.2,0.6,1.6-0.2,2.6c-0.6-0.6-1.2-1.1-1.8-1.6
	C235.5,231.7,235.6,231.7,235.7,231.7z M218.5,216.1c0.9-0.5,1.6-1.5,2.4-2.2c-0.7,4.2,3.6,7.2,7.9,2.2c0.1,0.4,0.1,0.8,0.2,1.2
	c1,2.9,1.1,7.8,2.8,11.1C227.3,224.3,222.7,220.4,218.5,216.1C218.5,216.1,218.5,216.1,218.5,216.1z M201.3,197.1
	c0.3,0.2,0.4,0.4,0.3,0.8c-0.3-0.3-0.6-0.6-0.8-0.9L201.3,197.1z M199.2,194.8c0.9,0.4,1.2,0.6,0.9,1.6c-0.6-0.6-1.1-1.1-1.7-1.7
	C198.7,194.7,199,194.8,199.2,194.8z M275.8,320.4c-13.3-17.9-24.3-38.4-38.7-55.3c-1.1,0.2-2.3,0.4-3.7,0.6c0-1.5,0.2-2.9,0.5-4.2
	c-16.1-18.1-27.9-43.4-41.7-63.5c31,29.9,63.4,58.6,93.5,89.4c-0.1,3.1,0.3,5.4,4.1,4.3c1.4,1.6,2.8,3.2,4.3,4.9
	c-0.2,2.1,1.1,4.4,3.4,3.8c27.5,28,55.6,55.9,83.5,83.4c-5.8-2.7-11.3-5.8-16.3-9.7c-0.2-1-1-1.6-2-1.4c-1.7-1.4-3.6-2.6-5.5-3.5
	c6.7-4.1-0.9-4-4.4-2.7c-3.4-2.5-52.6-34-52.5-37.9c-5.4-0.4-12.3,1.7-17.8,3.1C281.2,327.6,278.2,323.6,275.8,320.4z M301.3,376
	c0.4-0.3,0.8-0.6,1.2-0.9c0.7-1,1.5-2,2.5-2.8c7.3,0.2,14.5-0.6,21.7-1.2c-1.1,0.5-2.2,0.7-3.3,1.4c0.6,1.4,0.9,3,1,4.5
	c-3.3,5.2-4.5,4.3-6.2-1.9C312.5,375,306.9,375.6,301.3,376z M313,388.2c-2.2-0.3-4-1.3-5-3.2C310.9,384.5,312.1,386.1,313,388.2z
	 M266,368.5c-6.3,0.3-12.7,0.7-19,1.1c1.9-1.7,3.8-3.5,5.6-5.3c2.4,0.2,4.9,0,7.3-0.1c4.6-0.1,9.2-0.4,13.8-0.5
	C271.2,365.5,268.6,367.1,266,368.5z M271.1,373.8c-1.8,1.5-3.7,2.8-5.6,4.1c-1.1,0-2.3,0.1-3.4,0.2c1.6-1.3,3.1-2.7,4.6-4.2
	C268.1,373.9,269.6,373.8,271.1,373.8z M235.7,376.9l-0.2-0.1c0.1,0,0.1-0.1,0.2-0.1c0-0.2,0-0.3-0.1-0.5c0.6,0.1,0.6,0.2,0.1,0.5
	C235.7,376.7,235.7,376.8,235.7,376.9z M228.5,370.9c2.6-2.4,6.4-3.9,8.5-6.8c3-0.1,5.9-0.1,8.9-0.1c-2.7,2.1-5.4,4.2-8.1,6.2
	C234.8,370.5,231.7,370.7,228.5,370.9z M189.1,373c-2.9,0.5-5.8,0.9-8.7,1.1c2.6-2.4,5.6-3.8,7.9-6.7c3.2-0.4,6.5-0.8,9.8-1.1
	C195.1,368.6,192,370.7,189.1,373z M198,376.1c-2.2,1.9-4.7,2.7-6.7,4.9c-2.1,0.1-4.2,0.2-6.3,0.4c3.6-1.3,6.4-2.2,9.1-5.2
	C195.4,376.2,196.7,376.2,198,376.1z M180.3,380.9c0.7,0.5,1.5,0.8,2.4,0.8c-3.8,0.5-7.6,0.8-11.4,1c2-1.5,3.9-3.2,5.6-5
	c2-0.1,3.9-0.1,5.9-0.3C182.1,377.9,179.4,379.7,180.3,380.9z M171.6,386.7c-0.1,0.3-0.2,0.6-0.3,0.9
	C171.4,387.3,171.5,387,171.6,386.7L171.6,386.7z M133.2,383c-0.1,0-5-2.8-2.4-3.7c1.8-0.3,3.1,0.4,3.7,2.1c0.2-0.1,0.4-0.1,0.6-0.2
	c0.4-0.4,0.8-0.8,1.2-1.2c4.6-0.5,9.1-1,13.7-1.4c-1.9,1.5-3.9,3-5.7,4.5c-4,0.2-8,0.5-11.9,0.7c0.3-0.3,0.6-0.6,0.9-0.9
	C133.3,383.1,133.2,383.1,133.2,383z M117.3,374.4c3.4-0.9,6.9-1.8,10.4-2.7c-2.2,2.3-5,3.6-7.1,6.1c-2,0.1-4.1,0.1-6.1,0.1
	C115.3,377.6,117.7,375.4,117.3,374.4z M121.8,381.7c2.1-0.2,4.2-0.5,6.3-0.8c-1.6,1.2-3.6,2.2-5.1,3.6c-1.6,0.1-3.3,0.2-4.9,0.3
	C119.2,383.6,120.4,382.6,121.8,381.7z M125.3,377.5c7.2-5.4,10.6-8.3,20.2-10.1c0.8-0.1,1.6-0.3,2.3-0.4c-4.1,3.8-10,6.2-14.5,9.8
	C130.7,377,128,377.2,125.3,377.5z M145,363.3l8.6-2c-0.1,0.1-0.2,0.2-0.3,0.3c-0.1,0.1-0.2,0.2-0.3,0.3
	C150.4,362.4,147.8,362.8,145,363.3z M141.7,376c2.9-3.4,6.1-5,9.5-7.7c2.2,0.7,5.1,0.4,7.5,0.4c1.5,0,3.1-0.1,4.7-0.2
	c-3,2.1-6.4,4.1-9.2,6.6C150,375.4,145.9,375.7,141.7,376z M158,364.8c5.1-1.1,10.2-2.3,15.2-3.8c-0.2,0.2-0.3,0.3-0.5,0.5
	c-0.9,0.8-1.8,1.6-2.7,2.3C166,363.9,162.1,364.3,158,364.8z M152.3,385.4c1.8-1.7,4.5,2.4,2.3,2.7
	C152.1,388.1,151.4,387.2,152.3,385.4z M154.1,383.1c-0.5,0-0.9,0-1.4,0c1.7-1.6,3.3-3.2,4.8-5c3.6-0.2,7.5-0.2,11.1-0.2
	c-2.3,1.5-4.3,3.2-6.3,5C159.6,383.1,156.9,383.1,154.1,383.1z M161.6,374.9c2.7-1.8,4.7-4.5,7.1-6.7c4.8-0.2,9.6-0.2,14.5-0.3
	c-0.1,0-0.1,0.1-0.2,0.1c-3.6,2.2-6.4,3.9-9.7,6.5C169.3,374.7,165.5,374.9,161.6,374.9z M195,363.1c2.9-2.4,5.6-3.7,8.9-5.4
	c2,0,4.1,0,6.2,0.1c0.1,0,0.2,0,0.3,0c-2.3,1.7-4.9,3.3-7.5,4.7C200.3,362.7,197.7,362.9,195,363.1z M222,358.4
	c-1.9,1.4-4.1,2.2-6,3.6c-1.6-0.1-3.2-0.1-4.8-0.1c1.5-1.1,2.3-2.8,3.8-3.9c3-0.1,6.1-0.6,9.1-0.9C223.4,357.6,222.7,358,222,358.4z
	 M229.6,356.6c3.9-0.3,7.7,0.1,11.6,0.1c0,0-0.1,0-0.1,0.1c-2.1,0.9-4,2.4-5.7,4c-4,0.6-7.6,1-11.6,1.2
	C226,360.3,227.6,358.3,229.6,356.6z M219.7,351c-1.5,1.3-2.6,2.4-4.4,3.2c-2.3,0-4.6-0.6-7-0.7c0.1-0.2,0.2-0.4,0.2-0.7
	c4.1-1,8.3-2,12.4-3C220.5,350.2,220.1,350.6,219.7,351z M206,365.6c2.1-0.2,4.1-0.3,6.2-0.5c-3.1,2.3-6.6,4.5-9.6,7
	c-1.3,0.1-2.6,0.1-3.9,0.2C201.2,370.2,203.6,368,206,365.6z M202.8,379.7c1.3-1.2,2.6-2.6,4-3.7c2.8,0.1,5.6,0.2,8.4,0.1
	c-1.9,1.3-3.6,2.9-5.2,4.5c-2.7-0.1-5.4,0-8.1,0.1C202,380.4,202.4,380.1,202.8,379.7z M212.5,372h-0.9c2.5-2.2,5-4.4,7.5-6.7
	c3.5,0,7-0.2,10.5-0.3c-3.3,1.5-5.8,4.3-8.6,6.5C218.2,371.8,215.3,371.9,212.5,372z M219.7,379.3c1.3-1.2,2.6-2.4,3.9-3.6
	c2.9-0.1,5.7-0.3,8.5-0.4c-2.4,1.2-4.5,2.7-6.2,4.7c-2.5,0.1-5,0.3-7.6,0.4C218.8,380.1,219.2,379.7,219.7,379.3z M241.2,360.4
	c2.3-1.1,4.2-2.5,6.3-4c3.3-0.5,6.6-0.5,9.9-0.3c-0.6,0.4-1.1,0.7-1.7,1.1c-1.6,1.2-3.4,1.8-5,3
	C247.5,360.1,244.3,360.2,241.2,360.4z M258.3,360c1.5-0.9,2.8-2.1,3.8-3.6c4,0,8.4-0.4,12.2-0.6c3.5-0.1,7.1-0.2,10.7-0.3
	c-1.2,1.1-2.4,2.1-3.6,3.2C273.7,359,266,359.5,258.3,360z M269.3,351.4c1.1-0.9,2.3-1.8,3.5-2.6c7.4,1.2,16.8,0.1,24.3-0.9
	c-1.1,0.4-2,1.2-3.1,1.8c-8.2,1.1-16.7,1-25,1.9C269.1,351.5,269.2,351.5,269.3,351.4z M267.4,345.1c-1.4,0.5-2.7,0.8-4.1,1.2
	c0.5-0.4,0.9-0.8,1.2-1.4c2.7,0.5,7.2-1.9,10.2-2.2c-0.8,0.7-1.6,1.4-2.4,2.1C270.7,344.6,268.7,344.9,267.4,345.1z M306,337.3
	c-0.1-0.1-0.2-0.2-0.3-0.3c9.2,9.1,19.9,16.3,31.1,23.1c-3-0.7-6.1-0.9-9.2-1.2c3.1-4.4-4.6-1.4-6-0.8c-5.9-1-12.2-0.5-18.2-0.1
	c1.3-0.8,2.8-1.8,3.6-3.1c1.9,0.2,14.9,0.1,14.8-1.8c-0.1-3.8-18.1-4.4-21.5-4c0.1-0.5-0.1-1-0.5-1.3c2.2-0.2,14.4,1.3,14.4-1.4
	c-0.2-8.5-33.4-2.4-35.5-2.1C281.4,342.9,307.2,338.9,306,337.3z M338.3,363.9c-0.5,0.2-1,0.4-1.5,0.7c-2.2,1-3.8,1.9-5.7,3.4
	c-5.7-1-11.4-1-17.2-1C320.6,361.7,330.1,364,338.3,363.9z M318.6,361c-0.1-0.2,0.2-0.4,0.3-0.6c0.7,0.1,0.9,0.4,0.4,0.9
	C319.1,361.2,318.7,361.2,318.6,361z M299.8,354.9c-2,1-4.2,1.7-5.9,3.3c-2.3,0-4.6,0.1-6.9,0.2
	C291.5,355.2,294.3,355.3,299.8,354.9z M286.7,363.7c-0.4,0.1-0.8,0.3-1.2,0.5c-2.1,0.9-2.9,2.1-4.5,3.5c-2.3,0.2-4.5,0.4-6.8,0.5
	c1.8-1.3,2.9-3.2,4.7-4.5C281.4,363.7,284,363.7,286.7,363.7z M300.1,372.2c-2.5,1.5-5.1,2.5-7.4,4.3c-6.2,0.5-12.5,0.7-18.8,1
	C280.6,371,291.2,372.2,300.1,372.2z M286.6,367.2l0.7-0.4c1.8-1.1,3.7-1.8,5.5-3.1c6.6,0.1,13.2,0,19.8-0.2c-1.3,1.1-2.6,2.2-4,3.2
	C301.1,366.3,294,366.8,286.6,367.2z M315.7,381.8c0.3-0.3,0.7-0.6,1.1-0.8c2.8,0,5.5,0.1,8.3,0.1c-0.8,0.5-1.6,1.1-2.3,1.6
	c-2.7,0-5.4,0-8.1,0C315,382.3,315.4,382,315.7,381.8z M324.8,375.4c3.2-1.3,6-3,8.9-4.9c1.8,0,2.4-0.5,1.8-1.2
	c3.1-1.3,6.5-1.3,8.8-4.3c1.2,1,2.4,2,3.8,2.9c-0.3,0.1-0.6,0.3-0.9,0.5c-3.8,3-7.7,5.4-12.2,7C331.7,375.4,328.3,375.5,324.8,375.4
	z M349,371.8c0.9-0.6,2.8-0.7,3.9-1c2.1,1.1,4.1,1.7,6.1,3c-2.1,0.8-3.4,1.2-5.2,2.7c-3.5-0.7-7.1-1-10.7-1.2
	C345,374.2,347,373,349,371.8z M263.8,340.2c6.7-1.4,14.4-2.5,21.8-4.3c1.7-0.9,3.6-1.8,4.5-1.2c3.8-1.2,7.4-2.6,10.6-4.5
	c1,2.5,2.6,4.4,4.4,6.3c-4-3.6-10-1.5-14.5-0.6c0-0.6-0.2-1-0.5-1.1c-1.5,0.5-2.9,0.8-4.5,1.2c-1.4,0.8-2.6,1.6-3,1.8
	c-6.2-0.7-14.2,2.8-20.7,2.9C262.5,340.4,263.2,340.3,263.8,340.2z M259.4,349.7c2.6-0.1,5.7-1,8.2-1c-1.8,1.3-4,2.2-5.9,3.5
	c-3,0-6-0.1-9,0c1.5-1.2,3.9-1.7,5.6-2.6C258.6,349.7,259,349.7,259.4,349.7z M244.7,346.4c2.5-2,6.3-2.4,8.9-4.4
	c1.5-0.2,3.1-0.5,4.6-0.8c-1.5,0.5-3.3,3.4-0.8,3.9c-0.7,0.4-1.3,0.7-1.9,1.1c-4,0.2-8.3,1.6-12.3,1.4
	C243.7,347.2,244.2,346.8,244.7,346.4z M244.9,351.4c1.4-0.3,2.7-0.6,4.1-0.9c-1,0.9-2,1.8-3,2.7c-3.5,0.7-7.5,0.5-11,0.1
	c1-0.5,1.9-1.2,2.8-1.8C240,351.4,242.9,352,244.9,351.4z M231.7,347.6c0.3-0.2,0.6-0.4,0.9-0.7c2.7-0.7,5.4-1.3,8.1-2
	c-0.9,0.8-1.8,1.5-2.7,2.3c-2.4,0-4.4,0.3-6.8,0.7C231.4,347.8,231.6,347.7,231.7,347.6z M229.7,352.7l-1.2,0.7
	c-2.3,0.1-4.6,0.2-6.8,0.4c2.2-1.7,3.9-3.4,6.6-4.4c-1.2,1.7,2.1,2.3,2.8,2.4L229.7,352.7z M189.5,353.1l39.7-9.1
	c-10.6,6.2-27.8,6.7-39.7,9.3C189.5,353.3,189.5,353.2,189.5,353.1z M185.7,357.5c1.8-0.4,3.6-0.8,5.5-1.3c0.7,1.2,3.5,1.2,4.7,1.4
	c-2.2,2.5-4.6,4.6-7.5,6.1c-4.3,0.4-8.6,0-13,0c2.3-2,4.6-3.2,7.3-4.5C183.7,358.7,184.8,358.2,185.7,357.5z M181.5,354.9
	c-4.5,2.6-12.5,3.6-17.5,4.7c0.3-0.2,0.5-0.5,0.6-0.8L181.5,354.9z M167.7,289.5c10.9,3.2-7.3,15.5-12.1,15.8l-0.5-0.5
	C156.5,300.3,160.3,287.2,167.7,289.5z M150.1,228.7c0.6-1.4,13.6,6,13.9,7.7C164.5,239.1,147.5,234.7,150.1,228.7z M150.7,266
	c2.6,0.5,2.4,1.3-0.6,2.6C147.6,268.1,147.8,267.2,150.7,266z M126.5,270.8c-0.4,0.8,25.3,6.9,26.7,8.6
	C155.4,282.2,122.5,279.2,126.5,270.8z M110.1,328.8c1-1.1,19-0.3,19.5,0.9C131.2,333.7,106,333.2,110.1,328.8z M105.4,384.2
	c0.7-0.6,1.6-1.3,2.4-1.8c2.3-0.2,4.5-0.3,6.8-0.3c-1.2,1.2-2.4,2.3-3.7,3.4c-1.8,0.2-3.7,0.3-5.5,0.4
	C105.4,385.3,105.4,384.8,105.4,384.2z M111.8,397.2c-0.2,0.1-0.6,0-1,0C110.3,395.1,112.4,396.8,111.8,397.2z M136.9,389.4
	c-0.9,0.9-3.7,3.4-3.6,4.7c-5.4,0.2-10.8,0.5-16.1,0.7c-0.9,0.2-1.8,0.3-2.6,0.1c-1.9,0.1-3.8,0.2-5.8,0.3c1.3-1.5,2.5-3,4-4.3
	l2-0.2c-0.6,0.6-2.8,2.2-2,3.2c0.4,0.5,1,0.9,1.7,1c0.8,0,1.7-0.1,2.6-0.1c3.3-0.8,7.2-3.4,8.5-4.8c3.8-0.2,7.6-0.5,11.4-0.7
	C137,389.3,136.9,389.4,136.9,389.4z M230.4,391.4c-30.2,1-60.5,2.1-90.7,2.5c2.8-1.6,4.7-2.3,6.9-4.8c2.8,0.1,5.7,0.1,8.5,0
	c0.2,2.7,5.7,0.7,7,0.1c0.3-1.8,2.5-1.4,2.8-0.3c12.1-0.2,24.2-1.1,36.3-1.1c-4.8,4.7,6.6,0.7,8,0.1c11.1,0.5,22.3,0.1,33.4,0
	c1.2,1.5,4.3,0.6,5.8-0.1c1.3,0,2.6,0,4,0c-1.3,1.1-1.8,2.6,0.5,2.9C245.6,390.9,238.1,391.2,230.4,391.4z M252.9,378.5
	c-5.2,0.2-10.3,0.5-15.5,0.8c-0.3,0-0.7,0.1-1,0.1c0.2-0.2,0.4-0.4,0.6-0.6c1.3-1.3,2.6-2.8,4-4c5.9-0.2,11.9-0.5,17.8-0.7
	c-1.5,1.1-3.1,2.1-4.6,3.2C253.7,377.8,253.3,378.1,252.9,378.5z M277.8,388.1c-1.2,0.9-2.5,1.1-3.6,2.1c-6.2,0.1-12.4,0.2-18.6,0.4
	c1.9-0.6,5.2-1.4,6.7-2.8c5.3,0,10.5,0,15.8,0.1L277.8,388.1z M296.8,388.3c-1.2,0.3-2.1,0.9-3,1.8c-3.2,0-6.4,0-9.6,0
	c0.7-0.7,1.4-1.5,2.2-2.1c3.5,0.1,7.1,0.1,10.6,0.2C297,388.3,296.9,388.3,296.8,388.3z M299.7,382.7c-2.1,0-4.5,0-7-0.1
	c0.2-0.1,0.4-0.3,0.5-0.5c5.1-0.3,10.1-0.5,15.2-0.9c-0.7,0.4-1.5,0.9-2.2,1.3C304.2,382.7,302,382.7,299.7,382.7z M309.4,390.2
	c-1.5,0-3,0-4.7,0c0.8-0.8,1.7-1.3,2.6-1.9c2.2,0,4.3,0,6.5,0c-0.8,0.7-1.7,1.2-2.5,1.9C310.6,390.2,310,390.2,309.4,390.2z
	 M319.9,395.8c-2.7,0.1-5.6,0.2-8.5,0.2c3.8-0.8,8.2-0.4,12-0.3C322.2,395.8,321,395.8,319.9,395.8z M331.9,389
	c-0.4,0.4-0.9,0.8-1.3,1.1c-3.2,0-6.4-0.1-9.7-0.1c0.7-0.5,1.4-1.1,2.1-1.6c3.1,0,6.3,0,9.4,0.2C332.2,388.8,332,388.8,331.9,389z
	 M330.4,382.7c1.5-0.6,2.9-1.4,4.3-2.3c5.2-0.4,10.3-0.9,15.5-1.4c-3.3,0.7-6.7,3.1-9.7,4.6c-2.4-0.3-4.8-0.5-7.2-0.8
	C332.3,382.8,331.4,382.7,330.4,382.7z M352.7,390.4c-0.3,0.2-0.6,0.4-0.9,0.6c-4.1-0.5-8.1-0.8-12.3-0.9c0.3-0.2,0.6-0.5,0.9-0.8
	c4.4,0.4,8.8,0.4,13.2,0.4C353.3,390,353,390.2,352.7,390.4z M373.6,390.1c-0.1,0.2-0.3,0.3-0.5,0.2c-0.6,0.5-4.9,1.2-4.9,2
	c-3.1-0.2-6.2-0.5-9.4-0.7c3.3-4.1,9.7-1.6,14.8-1.8L373.6,390.1z M385.5,397.7c2.4,0.2,4.8-0.1,7.2-0.8c0.2-1.8-16.2-3.8-17.6-3.9
	c-0.1-1.1,2.4-1.8,3.1-1.9c1.2-0.8-1.1-6.2-3-3.1c-2.1-0.6-4.3-1.1-6.4-1.5c3.3-4.8-5.1-2.9-6.7-1c-4.9-0.6-9.8-0.9-14.7-1.2
	c2.8-4.7,11.4-4.7,15.6-7.6c9.5,7.5,22.1,16.9,33.5,21.6c0.2,0.1,0.3,0.3,0.4,0.4c-0.4,0.1-0.9,0.3-1.4,0.5
	C393.1,398.7,389.8,398.2,385.5,397.7z M394.5,419.6c3.5-5,6.8-10.2,8.6-15.6c0.1,0.6,0.3,1.3,0.6,1.8c-0.5,2.4-1,5.7-1.5,10
	c0.2-2.4-0.1-4.8-0.8-7.2c-1.3,2.6-2.1,5.3-2.5,8.1C397.7,416.9,396.1,418,394.5,419.6c-2,2.9-4.1,5.8-6.1,8.6
	c-1.4,2.2-2.6,4.2-3.5,5.3c1.1-1.8,2.2-3.5,3.5-5.3C390.3,425.3,392.4,421.9,394.5,419.6z M392.8,585c0.1-5.9-0.1-11.7-0.2-17.6
	c0.7-0.9,0.8-2.2,0-3.1c-0.1-5.3-0.2-10.7-0.2-16c1.2-0.9,1.9-1.5,2.8-2.7c0.6,18.9,0.8,37.7,1.2,56.6c-1.4-1.4-3,0.5-4,1.3
	c-0.1-4.4,0-8.7,0.2-13.1C394.3,589.4,396.3,583.9,392.8,585z M393,507c0-0.1-0.1-0.1-0.2-0.1c0.1-4.4,0.1-8.8,0.1-13.3
	c0.7-0.7,1.7-1.7,1.9-2.8c0.1,10.3-0.1,20.5,0,30.8c-0.3-0.9-1.4-1.4-2.3-1.1c0-3.7,0.1-7.4,0.2-11.1
	C393.3,508.7,393.4,507.9,393,507z M394,473.1c-0.2-0.3-0.5-0.5-0.8-0.6c0.1-2.6,0.3-5.2,0.5-7.8c0.4-0.1,0.7-0.4,1.1-0.7
	c-0.1,8.7,0,17.4,0.1,26.1c-0.2-0.8-1.1-1.4-1.9-1.2c0.1-4.2,0.1-8.4,0.2-12.6C393.8,475.6,394.6,474.1,394,473.1z M394.6,428.1
	c0-0.5,0-0.9-0.1-1.3c1.1-1.5,2.2-2.3,3.6-3.4c-1.2,10.7-2.1,21.6-3,32.3l-0.8,0.4C394.6,446.9,395,437.3,394.6,428.1z M392.8,525.6
	c1-0.8,1.7-1.8,2-3c0,6.2,0.2,12.6,0.3,19.4c-0.9-0.6-2,0.1-2.7,0.7c0-5.6,0-11.2,0.1-16.8C392.6,525.7,392.7,525.6,392.8,525.6z
	 M396.5,605.5c0.1,5.2,0.3,10.4,0.8,15.6c-1.7,1.1-2.6,2.2-4.1,3.5c0,0,0,0.1-0.1,0.1c-0.5-5.5-0.7-11-0.7-16.5
	C394.3,607.5,395.4,607,396.5,605.5z M397.8,625.5c0.3,4.7,0.5,9.5,0.6,14.2l-0.2,0.1c-2.1,1.6-2.8,3.2-4.4,5.4
	c-0.1-5.2-0.2-10.5-0.3-15.7C394.6,628.3,396,625.9,397.8,625.5z M393.8,649c1.9-1.1,3.5-2.6,4.6-4.5c0.2,5.2,0,10.5,0,15.8
	c-1.9,1.7-3.1,2-4.6,4.3C393.6,659.3,393.8,654.2,393.8,649z M360.9,610.3c1.1-1.2,1.5-2.6,1.3-4.3c-1-0.9-1.1-1.9,0.2-2.7
	c0-2.2-0.1-4.4-0.1-6.6c2.1-0.8,3.2-1.1,4.5-3.2c0.2,3.2,0.4,6.4,0.7,9.6c2.6,0.9,2.2,3.2,0.3,3.8c0,0.6,0.1,1.3,0.1,1.9
	c-1.2,1.6-8.1,9.6,0.5,5.9c0.3,3.9-0.2,7.9-0.1,11.9c-0.6,0.9-1.1,1.5,0,2.2c0.1,4.9,0.5,9.6,1.1,14.5c-0.7-3-1.4-6.1-2.1-9.1
	c-1.1-5-3.1-9.8-4.3-14.7c-1.5-0.6-1.6-1.1-0.7-2.7C361.9,614.6,361.4,612.4,360.9,610.3z M345.9,543.3c0.7,2.1,3.1,2.5,5,2.2
	c-0.1,2.3,0.3,28,3.9,28c2.6,0,1.6-13.8,1.5-15.6c0.6,0.1,1.2,0.2,1.8,0.1c0.3,9.8,2,21.6,0.4,31.2c-0.2,1.3-0.4,2.6-0.4,3.9
	c-0.2,0.2-0.3,0.4-0.5,0.6C353.8,576.9,348.7,560.3,345.9,543.3z M356.2,603.7l-10.2-41.4C350,575.9,353.6,589.7,356.2,603.7z
	 M334.7,500.8c2.5-1,4.4-2.6,6.3-4.4c-3.7,4.1-1.5,10.9-0.4,15.5c1.1-0.9,2.7-1.4,4.7-1.5c-0.1,2.9-1.2,5-3.4,6.2
	c1.3,4.6,4.9,16.1,3.5,20.8c-0.2,0.8-0.2,1.4-0.2,2.2c-1.6-7.5-3.1-14.9-5.1-22.3c-0.7,0.2-1.4,0.3-2.2,0.4c0.1-1.6,0.5-3,1.2-4.1
	C338,509.4,337,504.6,334.7,500.8z M345.6,511.2c-0.3-3.2-0.8-6.4-1-9.5c0-0.6,0.3-1.2,0.5-1.7c0.4,0,0.9,0,1.3-0.1
	c0.1,3.1,0.8,6.1,1,9.2C346.8,509.8,346.2,510.5,345.6,511.2z M346.7,513.5c0.3,0,0.7,0.1,1,0.1c0.3,3.5,0.8,7.1,1.4,10.6
	c-0.6,0.7-1.2,1.4-1.9,2.1c-0.4-4.3-0.7-8.6-1.5-13C346,513.4,346.3,513.4,346.7,513.5z M349.5,531c0.2,3,1.3,5.8,1.5,8.8
	c-0.5,0.3-1,0.7-1.4,1.2c-0.5-3.4-3-9.5-2.4-12.6c0.7,0.3,1.5,0.5,2.2,0.4C349.4,529.5,349.4,530.2,349.5,531z M353.5,498.5
	c0.1,1.7,0.3,3.4,0.4,5.1c-0.4,0.5-0.8,0.8-1.3,1.2c-0.3-2.3-0.7-5.2-0.2-7.5c0.4-0.3,0.7-0.6,1.1-0.9
	C353.5,497.1,353.4,497.8,353.5,498.5z M356.8,545.7c-0.1,2.5,0.1,5,0.6,7.4c-0.6,0.8-1,1.6-1.6,2.3c-0.9-3.4-2.1-7.7-1.6-11.3
	c0.8-0.4,1.8-0.4,2.5-0.9C356.7,544,356.7,544.9,356.8,545.7z M356.4,535.2c-0.8,0.7-1.5,1.6-2.3,2.3c-0.6-3.6-0.8-6.5-0.4-10.2
	c0.6-0.3,1.3-0.4,2-0.7c0.2,2.8,0.5,5.6,0.9,8.5C356.5,535.1,356.4,535.2,356.4,535.2z M354.6,519.9c-0.4,0.4-0.9,0.8-1.2,1.2
	c-0.3-3.1-0.4-6.3-0.5-9.4c0.6-0.2,1.3-0.3,1.8-0.6c0.1,2.8,0.3,5.6,0.5,8.4C354.9,519.6,354.7,519.8,354.6,519.9z M359.1,484
	c-0.1-1.2-0.2-2.3-0.4-3c-1-4.2-4,5.1-4.1,6.7c-0.8,0.6-1.7,1.2-2.4,1.9c-0.4-5.7-4.3,1.8-4.7,3.9c-1.3,0.5-2.3,1.4-3.2,2.5
	c-0.3-1.7-1.9-0.9-2.8-0.2c5.7-5.7,9.8-11.6,14.6-18.2c2.6,0.6,5.4-0.9,7.2-2.6c-0.1,2-0.5,3.9-0.8,5.8
	C361.5,481.9,360.3,483,359.1,484z M362.7,468c0.7-1.1,1.4-2.2,2-3.3c-0.2,0.6-0.3,1.3-0.4,2C363.8,467.1,363.2,467.6,362.7,468z
	 M359.7,490.3c0.9-0.8,1.7-1.7,2.5-2.5c0.1,2.8,0.1,5.6,0.3,8.4c-1,1-2,2-3.1,2.8c0-0.3,0-0.5,0-0.7
	C359.3,495.6,359.9,493,359.7,490.3z M362.9,502.6c0,3.3,0,6.7,0.2,10c-1,0.8-1.9,1.7-2.9,2.5c0-3.2,0-6.3-0.3-9.5
	C360.9,504.7,361.9,503.7,362.9,502.6z M363.3,519.2c0.1,3.1,0.3,6.3,0.4,9.7c-0.9,1-1.9,1.9-2.9,2.7c-0.2-3.2-0.4-6.4-0.5-9.6
	C361.3,521.1,362.3,520.2,363.3,519.2z M361.1,538.4c1.1-1,2.1-2,3.1-3.1c0.2,3.5,0.5,7,0.7,10.5c-1.5,1.5-2.9,2.9-4.2,4.5
	C360.6,546.5,361.2,542.4,361.1,538.4z M362.6,584.8c-0.2-1.8-0.4-3.5-0.6-5.3c1.8,0.4,3.2-0.2,4.7-1.2c0.1,2.7,0.1,5.3,0,8
	c-1.4,1.2-2.8,2.3-4.1,3.6C362.7,588.2,362.7,586.5,362.6,584.8z M361.7,576.6c-0.7-5.6-0.3-10.9-0.3-16.5c0-1.1,0-2.2,0-3.4
	c1.3-0.9,2.5-0.8,3.4-2.2c0.2,5.7,0.8,11,1.5,16.6C364.8,573.1,362.7,574.5,361.7,576.6z M387.2,492.5c-0.4,0.3-0.8,0.6-1.2,0.8
	c-0.2-4.1-0.4-8-0.3-12.1c0.5-0.3,1.1-0.5,1.6-0.7C387.3,484.5,387.2,488.5,387.2,492.5z M385.7,610.3c-1.6,0.6-3.3,3-4.2,4.2
	c-0.5-4.2-0.6-8.4-0.7-12.6c0.1-0.1,0.1-0.1,0.2-0.2c0.7-1.7,2.3-4.3,4.3-5.1C385.4,601.1,385.5,605.7,385.7,610.3z M382.1,619.1
	c1.9-1.3,2.4-3.2,3.8-4.8c0.4,5.3,1.2,10.5,1.4,15.9c-1.1,2.1-2.7,2.9-4.6,4.2c-0.2-5-0.2-10.1-0.7-15.2
	C382,619.2,382,619.2,382.1,619.1z M387.3,517.9c0-1.3-0.1-2.5-0.1-3.8c0,0,0.1,0,0.1,0C387.3,515.3,387.3,516.6,387.3,517.9z
	 M387,509.1c0,0-0.1,0.1-0.1,0.1c-0.3-3.9-0.4-7.7-0.6-11.6c0.3-0.3,0.7-0.5,1.1-0.6c0.1,4,0.1,7.9,0,11.9
	C387.2,509,387.1,509.1,387,509.1z M387.3,471.2c-0.1,1.5-0.1,3-0.1,4.4c-0.5,0.4-1.1,0.7-1.6,1.1c0-3.4-0.3-6.7-0.6-10.1
	c0.9-0.5,1.9-0.7,2.7-1.3C387.6,467.3,387.4,469.2,387.3,471.2z M385.2,591.8c-1.1,1.7-2.9,3-4.6,4.1c0.2-4.1,0.2-8.2,0.1-12.3
	c-0.1-1.8-0.2-3.7-0.3-5.5c1.6-0.9,3-2.1,4.2-3.5C385,580.3,385.3,586.1,385.2,591.8z M380.2,574.5c-0.2-4.2-0.4-8.3-0.6-12.3
	c0.1-0.1,0.2-0.2,0.3-0.3c1.1-2,2.3-3.8,3.7-5.5c0.2,4.2,0.5,8.5,0.7,12.7C383.4,570.8,381.9,573.5,380.2,574.5z M379.5,555.9
	c-0.1,0.1-0.1,0.2-0.2,0.4c-0.2-6.3-0.6-12.7-0.7-19c0.7-1.6,2.5-2.5,3.9-3.4c0.3,6.2,0.6,12.5,0.9,18.7
	C382.5,553.8,380.6,554.7,379.5,555.9z M372.2,613.6c0-0.2-0.1-0.4-0.1-0.7c1.5-2.4,3.4-4.5,5.1-6.8c0.1,3.6,0.5,7.1,1.1,10.7
	c-1.8,2.1-4,3.8-5.8,5.9C372.6,619.7,372.5,616.7,372.2,613.6z M373.2,629c2.7-1.5,3.7-2.7,5.8-5.3c0.2,4.7,0.6,9.4,0.6,14.2
	c-2.1,2.2-4.3,4.2-6.1,6.6c0-5.1-0.5-10.1-0.7-15.2C372.8,629.1,373,629.1,373.2,629z M378.5,532.7c-0.1-3.8-0.1-7.6-0.4-11.4
	c1.5-0.7,2.5-1.8,3.7-2.9c0.2,3.7,0.3,7.5,0.4,11.2C381.1,530.8,380,531.9,378.5,532.7z M381.1,513.9c-1.2,1.1-2.2,2.5-3.3,3.7
	c-0.3-4.2-0.4-8.4-0.7-12.5c1.2-0.8,2.7-1.4,3.7-2.4c0.2,3.6,0.5,7.1,0.8,10.7C381.4,513.6,381.3,513.8,381.1,513.9z M376.9,501.4
	c0.1-4.3,0.3-8.8,0-13.1c1-0.4,2.1-1,2.8-1.7c0.1,4,0.5,7.9,0.7,11.9C379.3,499.7,378.5,500.7,376.9,501.4z M369.4,573.4l1.9,0.4
	c0.9-2,2.8-3.9,4-5.7c0.3,3.4,0.5,6.9,0.8,10.4c-1.5,2-4.4,2.9-6.1,4.7c0-2.3-0.1-4.6-0.2-6.8c0.5-0.8,1-1.6,1.4-2.4
	C370.6,573.8,370,573.6,369.4,573.4z M371.3,506.4c-0.9,0.7-1.9,1.3-3,1.8c0-3.9,0.1-7.7-0.1-11.6l0.2-0.2c0.7-0.8,2-1.4,2.8-2.1
	C371.1,498.4,371,502.3,371.3,506.4z M368.9,513.1c0.8-1,1.7-1.4,2.7-2.1c0.2,3.6,0.5,7.2,0.8,10.7c-1,1.5-2.4,2.8-4,3.5
	c-0.1-3.8-0.1-7.6-0.1-11.4C368.5,513.5,368.7,513.3,368.9,513.1z M368.6,530.3c1.3-1.2,2.7-2.3,4.2-3.5c0.2,3.7,0.3,7.4,0.5,11.1
	c-1.8,1.3-2.8,2-4.3,3.8C368.8,537.9,368.7,534.1,368.6,530.3C368.6,530.3,368.6,530.3,368.6,530.3z M369,549.1c1.6-2,3.2-4,4.6-6.2
	c0.3,6,0.7,12,1.1,17.9c-1.8,2.3-3.6,4.6-5.5,6.8C368.6,561.5,368.6,555.3,369,549.1z M375.9,476.3c-0.1-0.7-0.1-1.4-0.1-2
	c1.6-0.8,2.9-1.8,4.3-3c0,3.6-0.1,7.2-0.2,10.7c-0.8,0.9-2,2.3-3.1,2.9C376.5,482,376.2,479.2,375.9,476.3z M380,464.1
	c0,0.8,0,1.6,0,2.4c-1.3,1.5-2.7,3.5-4.5,4.4c0-1.8-0.5-3.5-1.4-5.1c-1.2,2.3-1.9,4.8-2,7.4c-1.1,1.1-2,2.5-3.3,3.4
	c0.1-2.4,0-4.9-0.1-7.3c3.7-4.3,7.5-7.7,11.4-11.7C379.9,459.7,379.9,461.9,380,464.1z M368.9,481.3c0.9-0.5,1.9-1.6,2.7-2.3
	c-0.1,3.4-0.1,6.7-0.1,10.1c-0.9,1.1-2.1,2-3.3,2.8c0-3.4-0.3-6.8,0.1-10.2L368.9,481.3z M368.8,592c-0.2-0.9,0.4-1.5,1.2-1.7
	c2.3-2.4,3.9-4.9,6.4-7c0.4,5.4,0.2,10.8,0.5,16.2c-2.1,0.9-4,4.2-5.6,5.8c-0.5-3.9-0.8-7.8-1.1-11.7
	C369.4,593.4,368.9,592.9,368.8,592z M379.6,645.4c0.3,3.9,0.6,7.9,0.8,11.8c-4.9,3.9-8.4,8.1,0.6,7.3c0.3,3.8,0.6,7.6,1,11.4
	c-0.7,0.6-3.5,3.2-4,3.9c-0.1,0.1-0.1,0.2-0.1,0.2c-2.4-9.5-5-18.9-6.8-28.5C375.6,651.7,377.2,648.2,379.6,645.4z M382.6,683.1
	c0.1,3.4,0,6.8,0.2,10.2c-0.5,0-1-0.1-1.4-0.1c-0.6-2.3-1.2-4.6-1.7-7c-0.2-0.9-0.5-1.7-0.7-2.6
	C380.6,683.9,381.1,683.6,382.6,683.1z M383,698c0.1,0.9,0.1,1.8,0.2,2.7c-0.2-0.9-0.4-1.8-0.7-2.7C382.7,698,382.9,698,383,698z
	 M383.1,648.3c-0.3-2.3-0.4-4.5-0.4-6.8c1.7-2.3,2.6-4.1,4.8-5.7c0.2,5,0.2,9.9,0.2,14.8c-1.8,0.6-2.8,2.5-4.1,3.8
	C383.4,652.4,383.3,650.4,383.1,648.3z M387.9,656.8c0.3,4.4,0.5,8.7,0.8,13.1c-1.4,0.5-2.2,1.3-3.2,2.4c-0.4-3.7-0.8-7.4-1.2-11.1
	C385.6,659.8,386.9,658.4,387.9,656.8z M389,675c0.3,5.3,0.8,10.6,1.2,15.9c-0.8,0.9-1.9,1.6-2.5,2.7c-0.2,0-0.4,0-0.6,0
	c-0.3-4.8-0.2-9.6-0.7-14.3C387.5,678,388.2,676.5,389,675z M388.4,459.6c-0.2,0.2-0.5,0.4-0.7,0.6c-1,0.7-2,1.5-3,2.1
	c-0.3-2.8-0.6-5.6-0.8-8.4c5.6-1.5,5.8-9.2-0.5-4.6c-0.2-1.4-0.6-2.7-1.2-3.9c-0.2,0.3-0.4,0.7-0.6,1c-0.6,1.5-0.9,3-1,4.7
	c-3.8,3.2-8.6,7.9-12.1,11.4c0-1.2-0.1-2.4-0.4-3.5c1.5-2.4,3.4-4.4,5-6.8c3.9,0.1,6.5-2.4,8.6-5.8c0.2-0.4,0.3-0.8,0.5-1.2
	c0,0.1,0.1,0.1,0.1,0.2c3.1-5.5,5.2-12.7,9.4-15.1C389.6,440,389.5,449.8,388.4,459.6z M364.8,456.4c-1.2,1.6-29.4,44.9-31.7,44.9
	c-0.4,6.1,2.3,14.8,3.9,20.9c-0.2,0-0.3,0-0.5,0.1v0c-22.6,5.2-46.8,31.3-65.4,44.3c-22.7,15.7-46.2,30.5-69,46.4
	c25.3-26.6,53.9-52.7,76.5-81.7c-1.6-1.5-2.3-3.5-0.8-6c0.5-0.3,6.3-3.6,6.1-0.2c2.2-2.2,4.4-4.4,6.6-6.6c3.6,3.3,6.9-1,5-5
	c1.3-1.2,2.6-2.4,4-3.6c3.4,2,6.4-0.5,4.6-4.3c0.8-0.9,1.7-1.8,2.5-2.7c2-0.3,3.2-0.7,2.9-3c4.7-4.9,9.1-9.7,13.4-14.4
	c-1.9-0.4-3.4-1.3-4.3-3c2.7-0.5,3.9,0.8,4.7,2.6c2.3-2.5,4.7-5,7.1-7.5c-5.1-8,3-11.6,4.2-4.4c18-18.7,37.4-36.4,55.1-55.3
	C381.2,430.9,374,443.9,364.8,456.4z M237.4,567.2c-0.5,0.6-1,1.1-1.5,1.6c-0.2-0.5-0.5-0.9-0.7-1.4
	C235.8,566.9,236.8,566.5,237.4,567.2z M235.9,558c3.4,0,7.5,0.4,10.8-1.1c-2.3,2.5-4.6,5-6.9,7.5c-0.4-1.8-1.1-3.9-2.7-5
	C236.6,559.2,236.4,558.5,235.9,558z M247.2,548.5c1.1,0.4,7.4,0,8.8-0.5c-1.8,1.6-3.6,3.2-5.3,4.9
	C249.7,550.5,248.5,550.2,247.2,548.5z M258.5,538.6c1.4-0.2,6.4-1.5,7.7-1.1c-1.4,1.5-2.8,3-4.2,4.5
	C261.6,541.4,259.2,538.9,258.5,538.6z M254.6,511.3c2.4-4.2,30.6-40.6,25.6-45.6c6.5,1.2,13.2,3,19.8,3c-4.2,3.9,12.3-2.1,15.4-4.2
	c10.4-7.1,19.6-16.8,29.4-24.6c13.7-10.9,27.8-21.6,42.8-30.6c-30.2,25.2-55.7,55.1-81.8,84.5c0.1,0.2-29.5-0.6-30.7,0
	c-13.3,6.4,17.4,7.2,21.6,7.4c-7.9,0.5-16.3,2.8-23.8,3.8c-6.9,1-17.5,1.8-5.7,6.2c-1.2,0.7-12.4,0.8-13,0.5L254.6,511.3z
	 M276.2,509.9c-1.2,0.3-2.2,0.5-3.4,0.2C274.2,509.8,275,509.2,276.2,509.9z M261.6,514.9c-0.4,0.4-0.8,0.7-1.2,1.1
	C258.9,514.1,259.8,514,261.6,514.9z M246.3,524.1c1.8-2.2,3.1-4.3,4.6-6.7c11.2,0.6,20.7-3,32.4-0.2c-2.1,2.2-4.2,4.4-6.1,6.7
	c-3.6-8.9-25.2-2.2-31.6,0.9C245.9,524.7,246.1,524.4,246.3,524.1z M239.8,533.9c0.6-1,1.2-1.9,1.8-2.9c4.3,0,10-1.2,13.9-2.9
	c2.2-2.5,3.4-0.7,5.3,0.7c3.1-0.4,10.1-1.9,12.9,0c-1.1,1.6-2.3,3.1-3.6,4.6c-1.5-2.9-4.9-5.8-8-3.6c0.2,0.1,0.4,0.3,0.6,0.4l-2.1,3
	c-0.6,0.2-1.2,0.3-1.8,0.5c-0.8-0.7-1.7-1.3-2.5-2c-3.4,2-13.9,6-17.6,4.1C239,535.2,239.3,534.5,239.8,533.9z M234.9,544.1
	c0.4-0.5,0.7-1.1,1-1.7c6.7-2.1,13.8-1.3,20.2-3.2c-3.8,1.9-17.4,6.9-21.6,5.7C234.6,544.6,234.8,544.3,234.9,544.1z M229.1,553.3
	c0.7-0.8,1.2-1.8,1.8-2.7c2.5-0.9,12.7-4.1,15.2-2.8c-3.3,0.8-16.2,10.2-19,8C227.8,555,228.4,554.2,229.1,553.3z M232.9,559.3
	c-1.2,0.3-3.8,3.2-4.7,2.9C230.1,562.2,230.7,558.2,232.9,559.3z M223.3,562c0-0.1,0.1-0.2,0.2-0.3c1,1.5,2.8-0.3,4.1,0.2
	c-0.5,0.1-5.3,2.5-5.9,3C222.2,564,222.8,563,223.3,562z M218.6,583.9c4,0.4,6.8-3.7,1.9-7.9c0.4-0.1,0.8-0.1,1.2-0.2
	c2.2-0.8,7.7-0.8,10.1-2.4c-3.8,4.2-7.5,8.5-11.4,12.6c-0.6-0.8-1.4-1.4-2-2.2C218.5,583.9,218.5,583.9,218.6,583.9z M207.6,589.5
	L207.6,589.5c2.4-0.5,3.2-2.8,5.2-3.7c0.1-0.8,0.5-1.3,1.3-1.2c-0.3,0.2,2.4-0.3,2.6-0.3c-1.1,1.2-10.8,9.6-11.6,9.2
	C205.9,592.1,206.7,590.8,207.6,589.5z M202.1,603.2l-0.6,0.6C201.5,603.4,201.7,603.2,202.1,603.2z M200.6,604.8
	c-0.5,0.5-1,0.9-1.4,1.4C199.4,604.3,199.7,605.1,200.6,604.8z M187.5,618.9c0,0,0.1,0,0.1,0c-0.4,0.5-0.8,0.9-1.2,1.3
	c-1.2,2.3-2.9,4.2-5.1,5.6C183.6,623.6,185.5,621.2,187.5,618.9z M178.7,649.2c-1-0.7-1.1-1.3-0.3-1.9c0.5,0.2,0.9,0.5,1.4,0.8
	C179.4,648.5,179,648.9,178.7,649.2z M202.2,671.1c0.5-2.8,4.3-5.7,7.4-5.5C212.2,665.7,205.5,676.3,202.2,671.1z M231.4,679.9
	c-0.6-0.5-0.5-0.9,0.2-1.3c0.1,0.2,0.3,0.5,0.5,0.8C231.8,679.5,231.6,679.7,231.4,679.9z M297.1,725.7c-1.1-0.3-1.7-1-1.4-2
	C296.1,722.6,300.8,723.9,297.1,725.7z M381.1,724c-73.2-6-143.1-33.7-198.1-83.4c-4.2-0.9-7.6-2.9-9.4-7.2c0.4-0.1,0.8-0.3,1.2-0.4
	c-0.7-0.6-1.3-1.3-2-1.9c1.1-0.2,2.2-0.6,3.1-1.2c-0.6,0.5-1.8,2.5-0.7,3c3.7-2.2,7.5-2.8,11.5-2.1c4.7-2.1,10.6-4.1,14.9-6.8
	c0.1,0.1,0.3,0.2,0.4,0.4c20.8-20.2,47.2-33.4,70.4-50.5c7.4-5.5,57.7-50.8,65.3-45l-0.5-2c0.2-0.2,0.4-0.4,0.5-0.6
	c1.7,7,3.2,14.2,4.6,21.3l-4.1-16.6c-4.7,6.2-20,12.3-26.8,17.2c-12,8.7-23.4,18.2-35.2,27.2c-23.5,17.8-49.2,32.6-72.9,50.1
	c33.1,28.5,71.8,50.9,114.4,61.8c0.9-0.3,1.9-0.5,2.9-0.5l0.1-0.2l0.1,0.1c-0.1,0-0.2,0-0.2,0c-0.2,0.4-0.4,0.7-0.7,1.1
	c5.9,1.5,11.9,2.9,17.9,4.1c-0.1-0.5-0.2-0.9-0.1-1.4c-2,0.4-0.8-17.8,1.2-20.3c3-4,3.8,16.4,0.9,19c1.6,0.8,2.4,1.9,2.4,3.5
	c11.6,2.2,23.3,3.6,35,4.7c0.4,1.9,5.5,26.2,10.8,50C385.4,739.8,382.7,732.1,381.1,724z M336.2,613c-0.6,0.9-1.3,1.8-1.9,2.7
	c-0.7-0.9-1.4-1.7-2.1-2.6C332.2,613.3,335,608,336.2,613z M312.3,563.6c-3.2-2.3-4.9-5.4-5.1-9.4
	C312.5,555.3,312.5,559.5,312.3,563.6z M288.9,613.5c-1-0.6-1.2-1.4-0.7-2.3c0.8-1.4,1.7,0,1.7,0.7c2.2,1.1,3.8,6.9,0.9,6.2
	C291,618,288.9,613.5,288.9,613.5z M288.6,644.2c1.2,1.2,0.9,2-0.7,2.3c-0.8-0.7-0.9-1.2-0.5-1.8
	C287.7,644.6,288.3,644.4,288.6,644.2z M288,657.6c-1.4,1.9-3.3,3.1-5.7,3.6c-0.7,0.8-1.4,1.5-2.1,2.2c-0.2,2-0.5,3.9-0.7,5.9
	c-2.6-0.8-5.3-0.7-8-0.2c-0.2-4.9-1.4-9.6-3.5-14c-2-2.1-2.3-4.4-0.9-6.9c1.4,0.4,2.8,0.7,4.3,1.1c1.8-1,3.4-0.6,4.7,0.8
	c3.3,0.6,8.2,0.6,8.9,4.8C286,655.7,287,656.6,288,657.6z M284.7,669.1c4.3-4.4,6-14,8-19.8c1.1-3.1,1.2-8.7,3.6-11.1
	c3.6-3.7,4.5,0.1,1.9,3.8c-2.9,4-6.9,34.9-14.4,31.7C282.8,673.1,284.1,669.7,284.7,669.1z M305.9,670.7c0,0.3-0.2,0.6-0.3,0.9
	c-2.8,1-5.4,1-6.9-1.9C302.2,667.9,306.1,664.7,305.9,670.7z M257.2,600c0.6,0.7,1.2,1.3,1.8,2h-2.2
	C257,601.3,257.1,600.7,257.2,600z M255.1,596.9c0.1-1.1,0.5-1.9,1.5-2.2c0.3-0.1,0.7-0.2,1.1-0.2
	C256.8,595.3,255.9,596.1,255.1,596.9z M250.9,635.5c-1.3,3.6-16.1,20.7-14.5,12.4C236.9,645.2,251.5,631.8,250.9,635.5z M387.4,699
	c1,0.3,2.2-0.1,3.2-0.1c0.1,5.2,0.1,10.4,0.4,15.6c-0.2,0.1-2.2,1.8-2.2,1.7C388.6,710.4,387.8,704.7,387.4,699z M394,744.8
	c-2.5-9.8-4.5-17.8-5-27.7c0.6,0.7,1.6,1.2,2.4,1.6C391.8,727.5,393.3,736.1,394,744.8C394,744.8,394,744.8,394,744.8z M394.8,679.4
	c-0.2-3.5-0.4-7-0.6-10.6c1.9-0.5,2.3-3.7,4.4-3.9c0.2,5.1,0.4,10.3,0.6,15.4c-1.7,1.4-2.6,3.4-4,5
	C395.1,683.4,395,681.4,394.8,679.4z M395.9,694c-0.1-0.9-0.1-1.9-0.2-2.8c0.2-0.1,3.5-4.9,3.8-5.5c0.1,2.9,0.3,5.7,0.4,8.4
	C398.6,694,397.2,694,395.9,694z M400.4,478.1c1.1,46.9,0.7,93.8,1.9,140.7c-0.5-0.4-1-0.4-1.6,0
	C397.9,572.3,399.5,524.7,400.4,478.1z M401.4,631.6c0-2.6-0.1-5.2-0.3-7.9c0.5-0.5,1-0.9,1.4-1.5c0.5,5.2,0.7,10.5,0.9,15.8
	c-0.4-0.5-1.1-1-1.8-0.7C401.5,635.4,401.4,633.5,401.4,631.6z M402.7,683c0.2-0.2,0.3-0.5,0.4-0.8c0,2.9,0.1,5.8,0.1,8.6
	C403.1,688.2,402.9,685.6,402.7,683z M403.2,663c-0.2,5.9-0.2,11.8-0.1,17.7c-0.1-0.3-0.3-0.6-0.5-0.9c-0.3-5.6-0.7-11.3-0.9-16.9
	c0.7-0.9,0.6-2,0-2.9c0-5.8,0-11.6-0.1-17.3c0.8-0.5,1.1-1.1,1.7-1.9C403.3,648.2,403.5,655.6,403.2,663z M441,641.6
	c2.1-2,4.3,1.8,5.3,3.1c4.3,5.5-2.5,3.5-3.1,7.4c0.3-0.4,6.1,9,5.4,8.6c-2.7,0.1-5.3,0.1-8,0.2c1.4-3.4,0.7-6.3-2.2-8.6
	c-3.8,13.4-6,27.2-9,40.9l-0.1,0c-5.2,32-15.1,63.2-21.8,94.9c0.8-29.5,0.6-59.4-0.7-88.9c0.2,0,0.4,0,0.7,0
	c-0.6-1.5-0.7-3.2-0.4-4.9c-0.1,0-0.3,0-0.4,0c-2.6-79.7-4.9-161.8-0.7-241.3l6.2-6.2l-6.1,3.2c0.7-13.2,0.3-26.3,0.1-39.5
	c21.3,29.9,42.1,61.1,65.5,89.4c-1.6,3-2.7,6.2-3.2,9.6C457.3,552.9,451.1,597.7,441,641.6z M465.4,605c0.7-0.7,1.2-0.5,1.6,0.7
	C466.3,606.5,465.8,606.2,465.4,605z M466.3,628.5c-4.2,4.4-6.5-5.3-3.7-6.1C465.5,622.8,466.7,624.9,466.3,628.5z M454.9,662
	L454.9,662c0.5-0.1,1-0.3,1.5-0.4C455.9,661.7,455.4,661.9,454.9,662z M468.5,639.4L468.5,639.4c-4.8,7.5-20.6-2.7-0.8-0.7
	C468.5,638.1,469.6,637.6,468.5,639.4z M560,627.2c0.5-0.9,15.1,9.3,16.1,11.8c1.1-0.8,2.2-1.5,3.3-2.2c-1.1,0.8-2.2,1.6-3.2,2.3
	c0.9,2.6-2.3,4.8-3,2.1c-7.8,5.4-15.9,10.5-24.2,15.2c8.3-5.1,16.5-10.4,24.1-15.4C572,638.8,558.3,630.3,560,627.2z M532.9,632.2
	c6.5-1.6,7.7-12.9,15.6-7c2.8,2.1,3.1,13,0,15C541.3,645,532.2,632.4,532.9,632.2z M532,658.7c2.7-1.2,9.4,15.2-4.3,7.4
	c-1.6,0.3-2.6-0.4-2.9-2c0.7-1.4,1.8-1.9,3.3-1.5c0.1-0.1,0.1-0.1,0.2-0.2c-1.1-3.2-21.2-41.2-20.5-41.5c2.2-1.2,4.2,3.4,4.9,4.9
	C517.3,636.8,529.2,647.1,532,658.7z M509.9,590.2l0.2,0.5l-0.6-0.1L509.9,590.2z M496.2,576.6c1.2,0.8,1.2,1.2,0,1.2
	c-0.3-0.2-0.5-0.4-0.8-0.6C495.6,577,495.9,576.7,496.2,576.6z M499.1,599.6c3.8-2,6.8-0.4,9.7,1.8c2.2,0.6,5.5,3.2,1.9,5.3
	c-1.9,1-2.6-2.3-2.8-3.2c-6.3-0.5-11.7,1.2-16.1,6.1C491.3,603.8,495.2,601.7,499.1,599.6z M479.4,679.1c-0.6-4-2.5-14.8-1.8-18.5
	c1.6-8.4,4.1,5,3.7,8.5C484.1,679.5,482.1,696.4,479.4,679.1z M475.5,589c0.4-1.6,6.9,0.2,5.8,2.5C479.4,592.4,474.8,592,475.5,589z
	 M474.3,650.2c0.4,2.4-4.7,1.9-3.8-1.1C472.3,647.2,473.6,647.5,474.3,650.2z M545.5,570.2c-0.8-0.5-1.6-1-2.5-1.4
	c-2.1-6.6-1.3-13.8-3.2-20.2c1.6,2.4,4.3,11.1,4.5,13.8C544.6,563.8,545.8,569.2,545.5,570.2z M538.3,538.4c0.2-0.4,0.4-0.7,0.7-1.1
	c1.7,1.6,3.3,3.2,4.9,4.8c-1.1,0.4-4,2.7-4.5,4C539.1,544.8,537.8,539.6,538.3,538.4z M528.6,532.3c0.2-1.3,1.3-1.2,0.9-2.8
	c2,1.4,3.9,2.9,5.8,4.5c-14.9,5.4,5.8,22.8,1.2,32c-1.7-0.9-3.3-1.9-4.9-3C531.7,553,528.4,543.2,528.6,532.3z M511.7,525.6
	c2.8-4.2,8.8-13.2,12.6-4c-0.4,0.8-0.7,1.7-1.1,2.5c1,1,2,1.9,3,2.8c-3.1,0.8-3.7,2.6-5.8,4.5c-0.2,0.8-0.4,1.5-0.6,2.2
	c2.8,8.2,2.2,18.2,5.8,25.5c-2.5-2-4.8-3.7-7.5-5.3c0.3-6-1.6-11.6-1.8-17.4C509.5,536.7,512.1,529.6,511.7,525.6z M510.7,511.8
	c0.2,0.2,0.3,0.4,0.5,0.6c-0.2,0.2-0.3,0.3-0.5,0.5C510.7,512.4,510.7,512.1,510.7,511.8z M510.6,528.5L510.6,528.5
	c0.3,1.2,0.5,2.1,0.2,3.3C510.5,530.6,510,529.6,510.6,528.5z M502.4,504.7c0.2-0.4,0.3-0.8,0.2-1.2c0.2,0.2,0.3,0.3,0.5,0.5
	c-0.2,0.3-0.4,0.6-0.8,0.9C502.4,504.8,502.4,504.7,502.4,504.7z M425.8,430.2c18.6,25,47.1,46.3,70.1,67.1
	c-2.7,3.2-1.6,2.6-1.8,6.8c2.2-0.6,4.3-0.3,6.2,1c1.5,1.9-5.1,3.5-5.7,3.6c1,3.2-0.3,30.2,6.2,23.1c2.2-2.4,0.8-20,1.1-24
	c0.7,8,2.7,16.2,3.8,23.8c1,6.7,2,17.7,6.2,5.7c0.7,1.2,0.8,12.4,0.5,12.9c-12.9-7.7-27.7-22.2-42.6-26c1.5-7.4,3.5-15.2,3.6-22.8
	c4.4,4.8-2.2-12.2-3.9-15c-5.7-8.9-14.2-16.8-20.8-25c-10.5-13.1-24.3-27.2-31.9-42.2C419.8,422.8,423,426.4,425.8,430.2z
	 M498.9,527.1l-0.8-0.1l0.6-0.6L498.9,527.1z M468.9,430c-2,1.8-4.8,3.1-6.4,5.3c-0.3,0.1-0.7,0.1-0.9,0.2
	c-11.4-7-22.6-16-34.3-23.8c-1.4,0-3.4-1.1-3.8-2.5c-5.4-3.4-10.9-6.5-16.5-8.9c0.4-0.1,0.9-0.3,1.5-0.6c2.4,0.5,5.7,1,10,1.5
	c-2.4-0.2-4.8,0.1-7.2,0.8c-0.2,1.6,14.9,3.6,15.1,3.6c-2.6,1.2-3.2,2.5-2.9,3.6c1.3,0.8,2.6,1.6,3.8,2.5c0.7,0,1.2-0.3,1.4-0.8
	c3.1,0.9,6.2,1.6,9.3,2c-3.5,3.2-2.7,3.8,2.7,4.6c-0.9-2.2-0.6-4.6-0.4-6.9c5-4.2,8.8-0.9,12.8,1.6c-0.1,4.6-2.9,5.6-7.1,6.8
	c-3.3,3.4,10.6,4.2,10.4,4.2c-5.1,5.4,6.5,2.5,9.2,0.3c3.7,0,7.4-0.1,11-0.1c-2,1.7-4.4,3.2-6.3,5
	C468.1,428.8,467.6,429.3,468.9,430z M430.3,409.1c0.1-0.2,0.3-0.4,0.5-0.6c0.6-1.2,0.9-1.8,2.1-2.1c3.9,0.4,7.8,0.6,11.7,0.9
	c-0.7,0.7-1.4,1.4-2.1,2C438.4,409.1,434.3,408.9,430.3,409.1z M675.8,404.7c0.1,0,0.1,0,0.2-0.1c3.6-0.2,7.1-0.3,10.5-0.4
	c-8,5.4-14.7,5.4-24.4,5.7C666.3,407.5,671.3,406.4,675.8,404.7z M675.4,399.7c2.7-2,3.5-0.7,4.6,0.5
	C678.6,402.6,673.3,401.3,675.4,399.7z M682.9,401c0.2-0.2,0.5-0.3,0.7-0.5c3,0,5.9-0.1,8.9-0.1l-0.1,0
	C689.3,400.6,686.1,400.8,682.9,401z M627,442.7c8.9-2.5,17.8-4.7,26.9-6.2L627,442.7z M648.5,473.5L647,474l0.3-1.5L648.5,473.5z
	 M631.8,512c0.4,3.9-7.6,3.3-3.1-2.3c0.2-4.9,5-9.2,4.5-2.7c-0.3,0.5-0.5,1-0.7,1.6c-0.4,0.3-0.9,0.5-1.4,0.7
	C631.3,510.1,631.7,511,631.8,512z M622.5,440.4C622.5,440.4,622.6,440.4,622.5,440.4c-3.2,0.9-6.5,1.6-9.7,2.3
	c-1-1.8-4.4-1.3-6.3-1.5c3.2-1.9,6.3-4,9.4-6c4.1-0.4,8.2,0.1,12.3,0C627.1,436,621.7,438.9,622.5,440.4z M505,422.8
	c3.4-0.2,6.9-0.5,10.3-0.8c-2.1,1.2-4.3,3-6.1,4.3c-1.8,0.1-3.6,0.2-5.3,0.3c-1.4,0-2.7,0-4.1-0.1
	C501.4,425.2,503.1,423.9,505,422.8z M489.6,418c0.3-0.6,0.9-1.2,1.4-1.6c4.4,0,8.8-0.1,13.2-0.2c0.9,0,1.8,0,2.7,0
	c-0.4,0.2-0.9,0.5-1.2,0.9C500.4,417.3,495,417.7,489.6,418z M521.1,423.7c1-0.6,1.9-1.3,2.8-2c4.2-0.1,8.5-0.3,12.7-0.5
	c-1.8,1.6-3.9,3-6,4.1c-4.5,0.1-9,0.5-13.4,0.7C518.4,425.2,519.8,424.5,521.1,423.7z M520.7,411c1.4-0.4,3-1.2,4.1-2.2
	c3.8,0,7.6-0.1,11.6-0.2c-1,0.9-2.1,1.7-3.2,2.5C529.1,411.1,524.9,411.1,520.7,411z M637.1,430.7c-4.9,0.4-9.9,0.5-14.8,0.4
	c4.1-2.6,8.5-4.6,12.7-6.9c4.7-0.2,9.4,0.1,14.1-0.3c-0.5,0.2-0.9,0.5-1.4,0.8C644.2,426.6,640.7,428.6,637.1,430.7z M645.9,434.2
	c-1.9,0.4-3.8,0.9-5.6,1.3c0.4-0.3,0.8-0.5,1.2-0.8C643.2,434.5,644.6,434.3,645.9,434.2z M612.1,431.9c-7,0.9-14.2,2-21.3,1.9
	c3.8-2.7,7.9-4.7,11.9-7.1c7.4-0.4,14.6-1.6,22-2c-0.5,0.2-1.1,0.5-1.6,0.8C619.4,427.6,615.8,429.8,612.1,431.9z M633,421.1
	c-8.4,0.4-16.7,1.4-25,1.6c3.3-2.2,7-3.3,10.4-5.2c7.9-0.8,15.7-1.3,23.6-1.6l-0.5,0.3C638.5,417.7,635.9,419.7,633,421.1z
	 M609.4,418.2c-2.7,1.4-4.8,3.4-7.5,4.7c-5,0.1-10.1-0.2-15.1,0c2.5-1.3,4.9-3,7.3-4.5c5.2,0.1,10.4-0.2,15.6-0.3L609.4,418.2z
	 M604.4,407.7c-2.1,1-4.3,2-6.2,3.4c-1.8,0-3.6-0.1-5.5-0.2c1.3,0.8,1.7,2.5-0.5,3.2c-1-0.5-1.9-1-2.9-1.5c0.7-0.6,1.4-1.2,2.1-1.8
	c-2.9-0.1-5.9-0.1-8.8-0.1c1.4-0.9,2.6-2.1,3.5-3.5c6.5,0.1,12.9,0,19.4-0.1C605.2,407.3,604.8,407.5,604.4,407.7z M586.5,418.5
	c0.5,0,1,0,1.6-0.1c-2.8,1.9-5.8,3.4-8.8,4.9c-5.2,0.2-10.3,0.5-15.5,0.8l0.5,0.2l-1.4,1l-0.1-1.6l0.5,0.2c1.9-1.4,3.8-3,5.8-4.4
	C574.8,419.1,580.6,418.8,586.5,418.5z M572,428.3c-3.8,2.6-8.2,4.1-12.2,6.6c-2.9,0-5.8,0-8.7-0.3c-0.7,0-1.4,0-2.2,0
	c2-1.5,3.5-3.6,5.5-5.1C560.3,429.1,566.1,428.7,572,428.3z M556.2,424.4c-6.2,0.2-12.4,0.5-18.6,0.7c1.6-1.4,2.7-3,4.4-4.2
	c5.8-0.3,11.8-0.6,18.1-0.9c1-0.1,1.9-0.1,2.9-0.2C560.8,421.6,558.6,422.8,556.2,424.4z M540.4,430.3c2.9-0.2,5.9-0.3,8.8-0.5
	c-2.6,2.1-5.8,3-8.4,5c-5.5,0.3-10.9,0.4-16.4,0.5c1.6-1.5,3.3-3,5-4.4C533.1,430.6,536.7,430.4,540.4,430.3z M515.9,416.5
	c-1.1,0-2,0.1-3,0.2c0.1-0.1,0.3-0.2,0.4-0.3c2.3,0,4.7,0,7.1,0C518.9,416.4,517.4,416.4,515.9,416.5z M505.8,435.1
	c1.2-1,2.5-1.9,3.7-2.9c4-0.3,8.1-0.5,12.1-0.9c-1.7,1.4-3.4,2.7-5.1,3.9C513,435.3,509.4,435.2,505.8,435.1
	C505.8,435.2,505.8,435.2,505.8,435.1z M516.6,441.9c0.6-0.5,1.1-1,1.7-1.5c5.3-0.2,10.6-0.4,15.9-0.8c-1.6,1.2-3.2,2.3-4.8,3.4
	c-4.9,0.2-9.8,0.4-14.8,0.4C515.2,443,515.9,442.5,516.6,441.9z M531.8,447.7c3.1-0.3,6.2-0.6,9.3-0.9c-1.9,1.1-3.9,2.2-5.7,3.5
	c-2.2,0-4.4-0.4-6.6-0.4C529.9,449.2,530.9,448.4,531.8,447.7z M538,442.6c1.3-1.2,2.7-2.3,4.1-3.5c3.9-0.2,7.8-0.5,11.7-0.4
	c-2.1,1.4-4.2,2.8-6.4,4.1C544.2,442.9,541.2,442.5,538,442.6z M550.7,446.7c4.8-0.2,9.4-1.2,14.2-1.3c-0.9,0.7-1.8,1.3-2.7,2
	c-3.1-0.3-6.2,0.9-9.2,1.4c-2,0.3-4.1,0.8-6.1,0.6C548.1,448.5,549.4,447.6,550.7,446.7z M556.5,442.6c1.6-1.2,3.2-2.4,4.9-3.5
	c0.2-0.1,0.4-0.3,0.6-0.4c5.2-0.2,10.3-1.3,15.5-1.5c-2.8,1.8-5.8,3.4-8.5,5.3C564.8,442,560.6,442.1,556.5,442.6z M575.9,433.9
	c-2.4,0.1-4.8,0.3-7.1,0.7c3.2-2.1,6-4.7,9.2-6.8c5.2-0.4,10.3-0.8,15.5-0.8c-3.8,1.8-7.2,4.5-10.7,6.7
	C580.5,433.8,578.2,433.9,575.9,433.9z M580,441.6c2.2-1.5,4.5-3.1,6.7-4.7c6,0.2,12-0.2,18-0.7c-2.9,1.7-5.7,3.2-8.5,5
	c-5.6-0.1-11,0-16.6,0.6C579.7,441.8,579.9,441.7,580,441.6z M592.2,450.6c7.4-3.1,16.5-3.7,24.3-5.4l-25.6,5.9
	C591.3,451,591.7,450.8,592.2,450.6z M653.5,430.9c-1.5-0.6-3.2-0.9-4.9-0.7c2.7-1.7,5.4-3.4,8.1-5.2c-1.7-0.6-1.6-3.5-1.3-4.9
	c-5.3,0.5-10.5,0.8-15.9,0.8c3.4-2.3,7.3-3.2,10.9-5c5.1,0.1,10.1-0.2,15.2-0.5c-1.6,0.8-3.4,1.1-5,2c1,1.5,0.6,4-0.6,5.8
	c3.7-0.2,7.3-0.6,11-0.9C665.3,424.9,658.6,427.4,653.5,430.9z M667.2,418.9c2.2-1.3,4.1-2.3,6.1-4c5.2-0.3,10.3-0.7,15.5-1.1
	c-3,1.3-5.7,2-8.6,3.6C675.8,418,671.5,418.5,667.2,418.9z M663.9,404.7L663.9,404.7c2.9-0.1,3.7,0.9,2.3,3.1
	C664.4,407.8,663.6,406.8,663.9,404.7z M650.2,401.9c0.2-0.2,0.4-0.4,0.6-0.6c0.4-0.4,0.6-0.7,0.6-1.1c7.6,0,15.2,0.4,22.8,0.4
	C667,403.7,657.9,401.7,650.2,401.9z M650.3,405c4.1,0,8.3,0,12.4,0.1c-2.7,1.5-5.3,3.2-8,4.7c-7.7-0.1-15.3,0.2-23,0.3
	c4.2-2,8.8-2.7,12.9-5C646.6,405.1,648.4,405.1,650.3,405z M641.2,402.1c-7,0.1-14,0.3-21,0.9c0.3-0.3,0.6-0.6,0.8-0.8
	c0.2-0.3,0.4-0.6,0.5-0.8c7.9-0.2,15.7-1,23.6-1C643.8,400.8,642.5,401.5,641.2,402.1z M628,405.8c1.6-0.1,3.1-0.2,4.7-0.3
	c-3.2,1-6.3,3.3-9.1,5.2c-5.5,0.4-11,0.4-16.6,0.4c2.7-1.3,5.4-2.6,7.9-4.3C619.4,406.7,623.8,406.2,628,405.8z M612.5,403.3
	c-14,0.1-28-0.3-42.1-0.1c0.5-0.4,1-0.7,1.4-1.1c0.2-0.2,0.5-0.4,0.6-0.6c14.5-0.3,29,0,43.4-0.2C614.8,402,613.7,402.6,612.5,403.3
	z M580.3,407.3c-0.4,0.3-0.9,0.6-1.3,1c-1.3,1-2.7,1.8-4.1,2.6c-6.2,0.1-12.3,0.2-18.2,0.2c1.9-1.4,3.7-2.3,5.8-3.2
	C568.4,407.7,574.4,407.3,580.3,407.3z M562.1,403.4c-3.3,0.1-6.5,0.1-9.6,0.2c0.2-0.1,0.4-0.3,0.5-0.4c0.4-0.4,0.7-0.7,1-1
	c3.6-0.1,7.2-0.2,10.9-0.3C563.9,402.3,563,402.8,562.1,403.4z M554.5,408.2c-1.2,1-2.5,2-3.7,3c-4.1,0-8,0-11.9,0
	C544.4,407.8,547.6,408.4,554.5,408.2z M544.1,403.6c-6,0-11.8,0.1-17.4,0c-3.4-1.9-12.8-0.1-16.4-0.2c0.1-0.2,0.2-0.5,0.3-0.6
	c0,0,0,0,0-0.1c12,0,24-0.3,35.9-0.5C545.7,402.7,544.9,403.1,544.1,403.6z M516.3,408.8c-0.5,0.5-0.9,1.1-1.5,1.6
	c-0.2,0.1-0.3,0.3-0.5,0.5c-5-0.1-10-0.3-15-0.2c0.8-0.5,1.4-1.3,2.2-1.8C506.5,408.8,511.4,408.9,516.3,408.8z M503.6,403.4
	c-4.4-0.1-8.7-0.2-13.1-0.2c0-0.1,0.1-0.2,0.1-0.3c4.7-0.1,9.3-0.1,14-0.1C504.3,403,503.9,403.2,503.6,403.4z M494.6,408.7
	c0.5,0,1,0,1.6,0c-0.6,0.7-1.3,1.3-2.1,1.9c-4.5,0-8.9-0.1-13.4-0.2c0.6-0.5,1.2-1,1.8-1.6C486.5,408.9,490.6,408.8,494.6,408.7z
	 M480.6,403.2c1.2,0,2.3-0.1,3.5-0.1C483,403.6,481.8,403.2,480.6,403.2z M484.4,416.3c0.7,0,1.4,0,2.2,0c-0.8,0.6-1.7,1.1-2.5,1.6
	c-4.4,0-8.7,0.1-13.1,0.4c0.8-1,1.5-1.7,2.7-2.1C477.3,416.4,480.9,416.4,484.4,416.3z M474.7,410.4c-3.4-0.1-6.8-0.4-10.2-0.7
	l0.7-0.5c0.1-0.1,0.2-0.2,0.3-0.3c3.8,0,7.6,0,11.5,0.1C476.1,409.3,475.2,409.7,474.7,410.4z M465.4,415.5c0.6,0.1,1.2,0.1,1.8,0.2
	c-1.6,1.4-3.3,2.3-5,3.4c-2.6,0.3-5.3,0.5-7.9,0.7c1.5-1.8,3.2-3.3,4.8-5C461.2,415,463.3,415.3,465.4,415.5z M455.2,408.3
	c1.2,0.1,2.3,0.3,3.5,0.3c-0.3,0.2-0.5,0.5-0.8,0.7c-2.9-0.1-5.8-0.1-8.7-0.1c0.2-0.2,0.3-0.8,0.4-1.2c0-0.1,0.1-0.2,0.2-0.3
	c1.3,0.2,2.7,0.3,4,0.4c0.9-3,2.8-6.5,5.9-3C458.7,407,457.1,407.8,455.2,408.3z M484.4,432.6c-1.5,0.5-3,1.2-4.1,2.3
	c-2.7-0.2-5.4,0-8.1,0.1c1.1-1.2,2-2.4,3.3-3.5c3.2,0.5,6.4,0.5,9.6,0.6C484.7,432.3,484.5,432.4,484.4,432.6z M484.3,427.2
	c-1.8,0.2-3.5,0.3-4.9,0.5c1.3-1.3,2.5-2.5,3.6-3.9c4.6,0.2,9.1,0,13.7-0.3c-1.3,1.1-2.7,2.2-4.2,3.2
	C489.8,426.7,487,426.9,484.3,427.2z M493.8,432.1c2.1,0.1,4.1,0.3,6.2,0.4c-1.4,0.9-2.6,2-3.9,2.9c-2.1,0-4.2,0-6.3,0.1
	C491.2,434.3,492.5,433.2,493.8,432.1z M492.2,443.9c2.2-1,4.3-1.3,6.1-2.9c3.6-0.2,7.2-0.4,10.9-0.4c-1.3,1-2.6,2.2-3.8,3.3
	C501,444.1,496.5,443.6,492.2,443.9z M514.3,464.2c-0.3,0.3-0.5,0.6-0.6,0.9c-3.4,0.9-7.3,1.9-10.3,3.7c-1-2.5-2.6-4.4-4.4-6.3
	c4.4,3.9,13,1.3,17.8-0.2C515.7,463.1,514.9,463.7,514.3,464.2z M505.9,451.1c0.7-0.4,1.4-1,2-1.6c4.5-0.5,9-0.6,13.5-1
	c-0.9,0.7-1.8,1.4-2.7,2.1C514.5,450.8,510.2,450.9,505.9,451.1z M528.4,455.2c-1.4,0.9-2.8,1.5-4.3,2.1c-1.4,0-2.8-0.4-4.1-0.2
	c0.8-0.7,1.7-1.4,2.5-2c1.8-0.3,5.3-1.1,7.6-1C529.3,454.6,528.8,454.9,528.4,455.2z M540.2,458.8c-3.3,0.7-6.7,1.4-10,2.1
	c0.8-0.4,1.5-0.9,2.2-1.4c3.5-0.8,6.2-1.1,9.7-1.1C541.5,458.5,540.8,458.7,540.2,458.8z M553.2,453.1c-1.4,1.2-3.6,2.6-4.7,4.1
	c-0.9,0.1-1.8,0.3-2.7,0.4c8.1-2.7-5.2-3.4-6.1-3.6c0.7-0.5,1.5-1,2.3-1.5c4.3-0.3,8.3,0.1,12.6-0.6
	C554.1,452.4,553.6,452.8,553.2,453.1z M567.5,504.3c-1.9,0-2.7-1-2.3-3.1l0.1,0C568.1,501,568.8,502.1,567.5,504.3z M570.5,476.4
	c-1.8,1.9-3.5,4.1-6.8,4.2c0-0.4-0.1-0.8-0.2-1.1C565.7,473.2,571.5,475.3,570.5,476.4z M574.5,482c-1.4-0.1-1.6-0.5-0.7-1.1
	C574.6,481,574.8,481.3,574.5,482z M580.6,498c-1.1,1-2.5,1-4.2-0.1c-1.9-1.9,3.4-2.7,4.8-1.1C581.1,497.1,580.9,497.6,580.6,498z
	 M579.8,449.9c-6.3,1.5-12.7,3.1-19,4.7c2-0.8,3.6-1.6,5.2-2.9c2.2,0,9.9,0.1,9.9-3c0-1.9-2.8-1.6-4-1.7c0.7-0.6,1.4-1.1,2.1-1.5
	c5.3-0.2,11.1-1.3,16.4-0.7c-2.8,1.2-5.5,2.6-8,4.4C581.6,449.5,580.7,449.7,579.8,449.9z M595.2,535.6c-2.5,1.6-4.2,1.1-5.2-1.4
	C590.9,532.3,595.9,532.8,595.2,535.6z M594.7,469.8c4.2-1.1-10.8,3.4-10.6-0.1C584.7,461,600.2,468.4,594.7,469.8z M598.8,456.1
	c-1.7,3.6-3.6,4-5.7,1.3C592.2,453.1,599.4,453.4,598.8,456.1z M617.8,538.2c-2.4,5.4-12.5,1.8-8.5-4.5c2.5-4,8.5-5.2,10.1-0.9
	C618.9,534.6,618.6,536.5,617.8,538.2z M622.4,549.7c1.6,0,26.8,20.6,27.8,20.1C647.2,575,613.4,549.9,622.4,549.7z M687.4,473.3
	l-1.4,1l-0.1-1.6L687.4,473.3z M671.4,519.5c10.2,5.4-11.7-2.8-15.2-4.4c-2.8-1.3-27.8-8.8-23.9-15.3
	C632.6,499.7,667.3,517.1,671.4,519.5z M697.5,421c-9.2,2.9-18.6,5.5-28.1,7.9c4.5-2.6,9-5,13.4-7.8c5.1-0.3,10.3-0.1,15.4-0.4
	C697.9,420.8,697.7,421,697.5,421z M702.8,416.1c-3.8,0.3-7.7,0.6-11.5,0.7c1.9-1,3.6-2.3,5.3-3.6c2.2-0.2,4.4-0.3,6.5-0.3
	C703,413.9,702.9,415,702.8,416.1z M703.5,406.7c-0.3,0.2-0.7,0.4-1,0.6c-5.5,0.4-11,0.8-16.5,1.2c2.8-1.5,5.5-3.5,8.4-4.7
	c3.1-0.2,6.2-0.3,9.3-0.4C703.6,404.5,703.5,405.6,703.5,406.7z M705.4,415.9c0.1-1,0.1-2,0.2-3c3.8,0,7.5-0.1,11.3-0.3
	C712,414.3,710.5,415.5,705.4,415.9z M706,405.2l0-1.9c1.1-0.1,2.2-0.1,3.3-0.2C708.2,403.8,707,404.5,706,405.2z M710.6,406.6
	c0.6-0.3,1.1-0.7,1.7-1c2.6-1.5,6.2-1.5,8.9-3c6.8,0,13.7,0.1,20.5-0.1c-2.6,0.4-4.6,2-6.8,3.3C726.7,406.2,718.6,406.1,710.6,406.6
	z M724,414.4c6.5-3,11.9-3.5,19.7-4.4c1.2-0.2,2.4-0.4,3.7-0.4C739.6,411.7,732,414.1,724,414.4z M782.5,395.9l-12.3,0.1
	c-20.2,0.4-40.3,0-60.5,0.5c2.2-2.8-2.7-2-3.7-1.7c0-0.2-0.1-0.3-0.1-0.4c-0.6,0-1.1,0.1-1.7,0.1c-0.1,0.3-0.2,0.6-0.2,1
	c-0.9,0.4-1.7,0.9-2.6,1.3c-73.8,3-147.9,0.1-221.7,0.8c-0.1,0.5-61.2-0.3-66.9-0.2c10.8-7.6,21.1-16.4,32.4-23.1
	c-1-0.4-1.3-1.5-1-3.3c-6.9,4.5-13.5,9.2-20,14.3c-1.7,4.7-12.2,6.8-11,1.2c1.1-5.2,5.4-0.8,8.2-5.8c-3.5-4.7,7.5-5.1,3.8,0.3
	c-0.2,1-0.2,2.1-0.5,3.1c2.3-1.9,4.5-4,6.8-5.8c-1.6-0.2-1.4-2.1-1.8-3.3c1.4-0.7,2.8-1.3,4.2-1.9c0.1,1.2,0.1,2.3-0.1,3.5
	c3.7-2.8,6.9-5.7,10-9.1c0-0.1,0-0.2-0.1-0.3h0.4c18.4-20.2,37.3-40.1,55.4-60.6c0.1,0.2,29.2,0.8,30.5,0.2
	c13.8-6.4-17-7.2-21.4-7.5c7.9-0.5,16.3-2.8,23.8-3.8c6.9-1,17.4-1.7,5.7-6.2c1.2-0.7,12.4-0.8,12.9-0.5c-5.6,9.2-27.6,33-26.3,44.9
	c-6.8-1.3-13.9-3.2-20.9-3.2c3.4-3.1-16.1,5.2-20.3,8.4c-11.5,8.5-25.4,17.9-35.2,28.3h0.6c0,0.1-0.1,0.1-0.1,0.2
	c17.9-1,39.1-23.6,53.3-35.3c14.7,10.1,44.6,11.5,61.9,14.7c20.5,3.7,40.7,9,61.2,12.5c1.1-2.5,2.4-4.9,4.1-7.1
	c3.3,0.5,5.7,5.3,3.5,8.3c21.6,3.5,43.3,9.8,64.6,14.5c0,0.4,0,0.8,0.1,1.3c0,0,0.1,0,0.1,0c0-0.4-0.1-0.9-0.1-1.3
	c25.5,5.6,50.9,12.4,76.4,17.9l10,2.1c2.1,0.4,4.2,0.9,6.4,1.4C787.8,396,785.1,395.9,782.5,395.9z"/>
</svg>
