<?xml version="1.0" encoding="UTF-8"?><svg id="Layer_1" xmlns="http://www.w3.org/2000/svg" viewBox="0 0 626.16113 105.0708"><defs><style>.cls-1{fill:#191816;}</style></defs><g><path class="cls-1" d="M37.22168,1.12793l-3.31934,36.35156c-.17236,1.69727-.25781,2.81494-.25781,3.35156,0,.85938,.16113,1.51465,.4834,1.96582,.40771,.62354,.96143,1.08496,1.65967,1.38574,.69775,.30127,1.87402,.45117,3.52881,.45117l-.35449,1.19238H21.75293l.35449-1.19238h.74121c1.39648,0,2.53467-.30078,3.41602-.90234,.62305-.40771,1.10645-1.08447,1.4502-2.03027,.23633-.66553,.46191-2.23438,.67676-4.70508l.51562-5.54297h-12.50391l-4.44727,6.02637c-1.01025,1.35352-1.64355,2.32568-1.90137,2.9165-.25781,.59131-.38672,1.14404-.38672,1.65967,0,.68799,.27881,1.27832,.83789,1.77246,.55859,.49463,1.48242,.7627,2.77148,.80566l-.35449,1.19238H0l.35449-1.19238c1.59033-.06445,2.9917-.59619,4.20557-1.59521,1.21338-.99902,3.02393-3.13086,5.43018-6.39697L36.09375,1.12793h1.12793Zm-6.38086,10.73145l-12.66504,17.24121h10.98926l1.67578-17.24121Z"/><path class="cls-1" d="M79.24512,0l-11.08594,38.02734c-.60156,2.0625-.90234,3.41602-.90234,4.06055,0,.21484,.09131,.41895,.27393,.6123,.18213,.19336,.37061,.29004,.56396,.29004,.27881,0,.6123-.13965,.99902-.41895,.72998-.51562,1.95459-1.80469,3.67383-3.86719l1.0957,.67676c-1.54688,2.14844-3.10986,3.88867-4.68896,5.2207s-3.05664,1.99805-4.43115,1.99805c-.73047,0-1.33252-.25781-1.80469-.77344-.47266-.51562-.70898-1.24561-.70898-2.19141,0-1.22461,.32227-2.86816,.9668-4.93066l1.25684-3.99609c-3.11523,4.81299-5.95117,8.14258-8.50781,9.99023-1.76172,1.26758-3.44824,1.90137-5.05957,1.90137-1.63281,0-3.05664-.7251-4.27002-2.17529-1.21387-1.4502-1.8208-3.4209-1.8208-5.91357,0-3.20117,1.02002-6.61719,3.06152-10.24805,2.04102-3.63037,4.7373-6.58496,8.08887-8.8623,2.64258-1.82568,5.07031-2.73926,7.2832-2.73926,1.16016,0,2.15918,.23682,2.99707,.70898,.83789,.47266,1.66455,1.25684,2.48145,2.35254l3.1582-11.21484c.23633-.79443,.42969-1.42871,.58008-1.90137,.25781-.85889,.38672-1.56787,.38672-2.12695,0-.45117-.16113-.82666-.4834-1.12793-.45117-.36523-1.03125-.54785-1.74023-.54785-.49463,0-1.31055,.07568-2.44922,.22559V1.83691l11.08594-1.83691Zm-11.95605,22.88086c0-1.37451-.39795-2.48145-1.19238-3.31934-.79492-.83789-1.80469-1.25684-3.0293-1.25684-2.70703,0-5.52686,2.23486-8.45947,6.70312-2.93262,4.46875-4.39893,8.74463-4.39893,12.82617,0,1.61133,.35449,2.84131,1.06348,3.68994,.70898,.84912,1.55762,1.27295,2.5459,1.27295,2.23438,0,5.03809-2.41699,8.41113-7.25098,3.37256-4.83398,5.05957-9.05566,5.05957-12.66504Z"/><path class="cls-1" d="M77.95605,18.65918l9.31348-1.99805c.66553,1.59033,1.20312,3.21191,1.61133,4.86621,.58008,2.42822,1.05225,5.30664,1.41797,8.63672,.17188,1.67578,.40771,5.2207,.70898,10.63477,2.68555-2.96484,4.28613-4.80176,4.80176-5.51074,2.83594-3.8457,4.46826-6.10156,4.89844-6.76758,.70898-1.13867,1.20312-2.1377,1.48242-2.99707,.23633-.64453,.35449-1.25684,.35449-1.83691,0-.55859-.49951-1.20312-1.49854-1.93359-.99902-.72998-1.49854-1.54688-1.49854-2.44922,0-.6875,.27393-1.2998,.82178-1.83691,.54785-.53662,1.19727-.80566,1.94971-.80566,.90234,0,1.69678,.37061,2.38477,1.11182,.6875,.74121,1.03125,1.65967,1.03125,2.75537s-.17236,2.14844-.51562,3.1582c-.55908,1.63281-1.60059,3.62549-3.12598,5.97803-1.52588,2.35254-3.98535,5.50586-7.37988,9.4585-.43018,.49463-2.81494,2.98633-7.1543,7.47656h-1.19238c-.51562-13.59961-1.59033-22.08594-3.22266-25.45898-.53711-1.0957-1.4292-1.64355-2.6748-1.64355-.53711,0-1.30029,.09668-2.28809,.29004l-.22559-1.12793Z"/><path class="cls-1" d="M113.69531,33.67676c-.15039,1.07471-.22559,1.96582-.22559,2.6748,0,1.9126,.67676,3.54004,2.03027,4.88232,1.35352,1.34277,2.99707,2.01416,4.93066,2.01416,1.54688,0,3.03418-.31689,4.46338-.95068,1.42871-.6333,3.5498-2.03516,6.36475-4.20557l.67676,.93457c-5.0918,5.04883-9.94727,7.57324-14.56641,7.57324-3.13721,0-5.5-.98779-7.08984-2.96484-1.59033-1.97656-2.38477-4.15723-2.38477-6.54199,0-3.20117,.98779-6.47754,2.96484-9.8291,1.97656-3.35156,4.45801-5.95654,7.44434-7.81494,2.98584-1.85791,6.05859-2.7876,9.2168-2.7876,2.27686,0,3.96387,.4624,5.05957,1.38574,1.0957,.92383,1.64355,2.01953,1.64355,3.28711,0,1.78369-.70898,3.4917-2.12695,5.12402-1.86914,2.12695-4.61963,3.84619-8.25,5.15625-2.40625,.88135-5.79004,1.56836-10.15137,2.0625Zm.22559-1.5791c3.1792-.36523,5.76855-.98779,7.7666-1.86914,2.64258-1.18115,4.62451-2.59424,5.9458-4.23779s1.98193-3.20654,1.98193-4.68896c0-.90234-.28516-1.63232-.854-2.19141-.56934-.55859-1.38086-.83789-2.43311-.83789-2.19141,0-4.51709,1.16553-6.97705,3.49658-2.46045,2.33154-4.27002,5.77393-5.43018,10.32861Z"/><path class="cls-1" d="M149.69238,16.66113l-4.28613,14.66309c4.01709-5.99414,7.09473-9.93652,9.23291-11.82715,2.1377-1.89014,4.19434-2.83594,6.17139-2.83594,1.07422,0,1.96045,.35449,2.65869,1.06348,.69775,.70898,1.04736,1.63281,1.04736,2.77148,0,1.28906-.31152,3.0083-.93457,5.15625l-3.93164,13.56738c-.45117,1.56836-.67676,2.5249-.67676,2.86816,0,.30127,.08545,.55322,.25781,.75732,.17188,.20459,.35449,.30615,.54785,.30615,.25781,0,.56885-.13965,.93457-.41895,1.13867-.90234,2.38477-2.27686,3.73828-4.125l.99902,.6123c-1.99805,2.85742-3.88867,4.89844-5.67188,6.12305-1.24609,.83789-2.36377,1.25684-3.35156,1.25684-.79492,0-1.4292-.2417-1.90137-.7251-.47266-.4834-.70898-1.13281-.70898-1.94971,0-1.03125,.36523-2.80371,1.0957-5.31738l3.73828-12.95508c.47217-1.61133,.70898-2.86816,.70898-3.77051,0-.42969-.14014-.77832-.41895-1.04736-.2793-.26855-.62354-.40283-1.03125-.40283-.60156,0-1.32129,.25781-2.15918,.77344-1.59033,.9668-3.24414,2.56201-4.96289,4.78564-1.71924,2.22363-3.53418,5.06494-5.44629,8.52393-1.01025,1.82617-1.84814,3.82422-2.51367,5.99414l-1.61133,5.31738h-4.83398l5.86523-20.17383c.6875-2.42773,1.03125-3.88818,1.03125-4.38281,0-.47217-.18848-.88623-.56396-1.24072-.37598-.35449-.84326-.53174-1.40186-.53174-.25781,0-.70898,.04346-1.35352,.12891l-1.22461,.19336-.19336-1.16016,11.15039-1.99805Z"/><path class="cls-1" d="M185.27051,8.66895l-2.51367,8.76562h5.05957l-.54785,2.03027h-5.02734l-5.54297,19.01367c-.60156,2.0415-.90234,3.36279-.90234,3.96387,0,.36572,.08545,.64453,.25781,.83789,.17188,.19336,.37549,.29004,.6123,.29004,.53662,0,1.24561-.37549,2.12695-1.12793,.51562-.42969,1.66455-1.75098,3.44824-3.96387l1.06348,.80566c-1.97705,2.87939-3.84619,4.90967-5.60742,6.09082-1.20361,.81641-2.41699,1.22461-3.6416,1.22461-.9458,0-1.71924-.29541-2.32031-.88623-.60156-.59082-.90234-1.34814-.90234-2.27197,0-1.16016,.34326-2.93262,1.03125-5.31738l5.38184-18.65918h-4.86621l.32227-1.25684c2.36328-.64453,4.3291-1.60596,5.89746-2.88428,1.56787-1.27783,3.31934-3.49658,5.25293-6.65479h1.41797Z"/><path class="cls-1" d="M217.5293,17.43457l-5.60742,19.20703c-.83789,2.85742-1.25684,4.66211-1.25684,5.41406,0,.38672,.06934,.67188,.20947,.854,.13965,.18262,.32715,.27393,.56396,.27393,.36523,0,.76807-.16602,1.2085-.49951,.43994-.33301,1.55176-1.65967,3.33545-3.97998l.9668,.74121c-1.69727,2.68604-3.4375,4.66211-5.2207,5.92969-1.18164,.81641-2.32031,1.22461-3.41602,1.22461-.83789,0-1.49365-.23682-1.96582-.70898-.47266-.47217-.70898-1.08447-.70898-1.83691,0-.72998,.13965-1.69678,.41895-2.90039,.34326-1.58984,1.32129-5.04834,2.93262-10.37695-3.65283,5.99414-6.7085,10.13037-9.16846,12.40723-2.46045,2.27734-4.74268,3.41602-6.84814,3.41602-.98828,0-1.82617-.34375-2.51367-1.03125-.68799-.6875-1.03125-1.55762-1.03125-2.61035,0-1.61133,.47217-4.08154,1.41797-7.41211l2.80371-9.95801c.6875-2.38477,1.03125-3.86719,1.03125-4.44727,0-.25781-.0918-.47803-.27393-.66064-.18262-.18213-.38184-.27393-.59619-.27393-.45117,0-.90234,.16113-1.35352,.4834s-1.47168,1.51465-3.06152,3.57715l-.99902-.70898c1.61133-2.49219,3.31934-4.3291,5.12402-5.51074,1.37451-.92334,2.64258-1.38574,3.80273-1.38574,.79443,0,1.44482,.25293,1.94971,.75732,.50439,.50488,.75732,1.15527,.75732,1.94971,0,1.16016-.43018,3.23389-1.28906,6.21973l-3.0293,10.40918c-.83789,2.83594-1.25684,4.62988-1.25684,5.38184,0,.4082,.13379,.73633,.40283,.98291,.26855,.24707,.62842,.37061,1.07959,.37061,.70898,0,1.63232-.35449,2.77148-1.06348,1.13867-.70898,2.65869-2.28271,4.56006-4.72119,1.90137-2.43799,3.46924-4.72607,4.70508-6.86426,1.23535-2.1377,2.55078-5.5376,3.94775-10.19971l.70898-2.44922h4.89844Z"/><path class="cls-1" d="M222.91113,18.46582l11.11816-1.80469-4.64062,15.66211c3.75928-6.42383,7.17529-10.91357,10.24805-13.4707,1.74023-1.46094,3.1582-2.19141,4.25391-2.19141,.70898,0,1.26758,.20947,1.67578,.62842,.40771,.41895,.6123,1.02637,.6123,1.8208,0,1.41797-.36572,2.77148-1.0957,4.06055-.51562,.9668-1.25684,1.4502-2.22363,1.4502-.49463,0-.91846-.16113-1.27295-.4834s-.5752-.81641-.66064-1.48242c-.04346-.40771-.14014-.67676-.29004-.80566-.17236-.17188-.37598-.25781-.6123-.25781-.36572,0-.70898,.08594-1.03125,.25781-.55908,.30127-1.40723,1.13916-2.5459,2.51367-1.78369,2.10596-3.71729,4.83398-5.80078,8.18555-.90234,1.41797-1.67578,3.01855-2.32031,4.80176-.90234,2.44922-1.41797,3.9209-1.54688,4.41504l-1.03125,4.06055h-4.93066l5.96191-20.0127c.6875-2.32031,1.03125-3.97461,1.03125-4.96289,0-.38672-.16113-.70898-.4834-.9668-.43018-.34326-.99902-.51562-1.70801-.51562-.45117,0-1.27832,.09668-2.48145,.29004l-.22559-1.19238Z"/><path class="cls-1" d="M250.56152,33.67676c-.15039,1.07471-.22559,1.96582-.22559,2.6748,0,1.9126,.67676,3.54004,2.03027,4.88232,1.35352,1.34277,2.99707,2.01416,4.93066,2.01416,1.54688,0,3.03418-.31689,4.46338-.95068,1.42871-.6333,3.5498-2.03516,6.36475-4.20557l.67676,.93457c-5.0918,5.04883-9.94727,7.57324-14.56641,7.57324-3.13721,0-5.5-.98779-7.08984-2.96484-1.59033-1.97656-2.38477-4.15723-2.38477-6.54199,0-3.20117,.98779-6.47754,2.96484-9.8291,1.97656-3.35156,4.45801-5.95654,7.44434-7.81494,2.98584-1.85791,6.05859-2.7876,9.2168-2.7876,2.27686,0,3.96387,.4624,5.05957,1.38574,1.0957,.92383,1.64355,2.01953,1.64355,3.28711,0,1.78369-.70898,3.4917-2.12695,5.12402-1.86914,2.12695-4.61963,3.84619-8.25,5.15625-2.40625,.88135-5.79004,1.56836-10.15137,2.0625Zm.22559-1.5791c3.1792-.36523,5.76855-.98779,7.7666-1.86914,2.64258-1.18115,4.62451-2.59424,5.9458-4.23779s1.98193-3.20654,1.98193-4.68896c0-.90234-.28516-1.63232-.854-2.19141-.56934-.55859-1.38086-.83789-2.43311-.83789-2.19141,0-4.51709,1.16553-6.97705,3.49658-2.46045,2.33154-4.27002,5.77393-5.43018,10.32861Z"/><path class="cls-1" d="M303.6709,16.66113l-6.38086,22.59082c-.43018,1.52588-.64453,2.43848-.64453,2.73926,0,.34375,.10156,.62354,.30615,.83789,.2041,.21484,.4458,.32227,.7251,.32227,.32227,0,.70898-.17188,1.16016-.51562,1.22461-.9668,2.45996-2.34131,3.70605-4.125l1.12793,.74121c-1.46143,2.23486-3.17969,4.11426-5.15625,5.63965-1.46143,1.13867-2.85742,1.70801-4.18945,1.70801-.88135,0-1.60059-.26318-2.15918-.78955-.55908-.52637-.83789-1.18701-.83789-1.98193,0-.79443,.26855-2.11572,.80566-3.96387l4.18945-14.4375c.6875-2.36328,1.03125-3.8457,1.03125-4.44727,0-.47217-.1665-.85889-.49951-1.16016-.3335-.30078-.78955-.45117-1.36963-.45117-.47266,0-1.4502,.11816-2.93262,.35449v-1.25684l11.11816-1.80469Zm-.41895-12.79395c.90234,0,1.66455,.31152,2.28809,.93457,.62305,.62354,.93457,1.38574,.93457,2.28809,0,.88135-.31738,1.63867-.95068,2.27197-.63379,.63379-1.39111,.95068-2.27197,.95068-.88135,0-1.63867-.31689-2.27197-.95068-.63379-.6333-.95068-1.39062-.95068-2.27197,0-.90234,.31104-1.66455,.93457-2.28809,.62305-.62305,1.38574-.93457,2.28809-.93457Z"/><path class="cls-1" d="M330.77344,16.66113l-1.96582,9.89355h-1.19238c-.10742-2.87891-.71973-4.97363-1.83691-6.28418-1.11719-1.31006-2.50293-1.96582-4.15723-1.96582-1.33203,0-2.38965,.36572-3.17383,1.0957-.78516,.73047-1.17676,1.61133-1.17676,2.64258,0,.70898,.15625,1.38574,.46777,2.03027,.31055,.64453,.99316,1.54688,2.0459,2.70703,2.79297,3.05078,4.59766,5.34961,5.41406,6.89648s1.22461,3.0083,1.22461,4.38281c0,2.23486-.92969,4.2168-2.78711,5.9458-1.8584,1.72949-4.20605,2.59424-7.04199,2.59424-1.54688,0-3.33057-.36572-5.34961-1.0957-.70898-.25781-1.25684-.38672-1.64355-.38672-.9668,0-1.69727,.49463-2.19141,1.48242h-1.19238l1.96582-10.44141h1.19238c.12891,3.26611,.80566,5.5752,2.03027,6.92871s2.90039,2.03027,5.02734,2.03027c1.63281,0,2.92773-.45605,3.88379-1.36963,.95508-.91309,1.43359-2.03516,1.43359-3.36768,0-.85889-.17188-1.6543-.51562-2.38477-.60156-1.28906-1.86426-3.07227-3.78613-5.34961-1.92285-2.27686-3.1582-3.98486-3.70605-5.12402-.54834-1.13867-.82227-2.27686-.82227-3.41602,0-2.0835,.75781-3.8457,2.27246-5.28516,1.51465-1.43896,3.46387-2.15918,5.84863-2.15918,.6875,0,1.31055,.05371,1.86914,.16113,.30078,.06445,1.00391,.30615,2.11133,.7251,1.10645,.41895,1.8418,.62842,2.20703,.62842,.92383,0,1.69727-.50439,2.32031-1.51465h1.22461Z"/><path class="cls-1" d="M379.53223,26.74805c0,3.22266-.85352,6.41309-2.56152,9.57129s-4.08789,5.66113-7.13867,7.50879c-3.05078,1.84814-6.01562,2.77148-8.89453,2.77148-2.94336,0-5.34473-.93945-7.20215-2.81982-1.8584-1.87988-2.78809-4.31299-2.78809-7.29932,0-3.1582,.90723-6.32715,2.72363-9.50684,1.81543-3.1792,4.24219-5.69287,7.2832-7.54102,3.04004-1.84766,5.97754-2.77148,8.81348-2.77148s5.17285,.93457,7.00977,2.80371,2.75488,4.29736,2.75488,7.2832Zm-5.34961-2.22363c0-1.99805-.48828-3.52881-1.46582-4.59229-.97852-1.06348-2.24023-1.59521-3.78711-1.59521-3.1582,0-6.06348,2.26123-8.7168,6.78369-2.6543,4.52295-3.98047,9.01855-3.98047,13.48682,0,2.0415,.51562,3.61475,1.54688,4.72119,1.03125,1.10693,2.33105,1.65967,3.89941,1.65967,3.0293,0,5.87012-2.25049,8.52441-6.75146,2.65332-4.50049,3.97949-9.07178,3.97949-13.7124Z"/><path class="cls-1" d="M413.08008,17.43457l-5.60742,19.20703c-.83789,2.85742-1.25684,4.66211-1.25684,5.41406,0,.38672,.06934,.67188,.20996,.854,.13867,.18262,.32715,.27393,.56348,.27393,.36523,0,.76758-.16602,1.20801-.49951,.44043-.33301,1.55273-1.65967,3.33594-3.97998l.9668,.74121c-1.69727,2.68604-3.4375,4.66211-5.2207,5.92969-1.18164,.81641-2.32031,1.22461-3.41602,1.22461-.83789,0-1.49316-.23682-1.96582-.70898s-.70898-1.08447-.70898-1.83691c0-.72998,.13965-1.69678,.41895-2.90039,.34375-1.58984,1.32129-5.04834,2.93262-10.37695-3.65234,5.99414-6.70898,10.13037-9.16797,12.40723-2.46094,2.27734-4.74316,3.41602-6.84863,3.41602-.98828,0-1.82617-.34375-2.51367-1.03125s-1.03125-1.55762-1.03125-2.61035c0-1.61133,.47266-4.08154,1.41797-7.41211l2.80371-9.95801c.6875-2.38477,1.03125-3.86719,1.03125-4.44727,0-.25781-.0918-.47803-.27344-.66064-.18262-.18213-.38184-.27393-.59668-.27393-.45117,0-.90234,.16113-1.35352,.4834s-1.47168,1.51465-3.06152,3.57715l-.99902-.70898c1.61133-2.49219,3.31934-4.3291,5.12402-5.51074,1.375-.92334,2.64258-1.38574,3.80273-1.38574,.79492,0,1.44531,.25293,1.9502,.75732,.50391,.50488,.75684,1.15527,.75684,1.94971,0,1.16016-.42969,3.23389-1.28906,6.21973l-3.0293,10.40918c-.83789,2.83594-1.25684,4.62988-1.25684,5.38184,0,.4082,.13379,.73633,.40332,.98291,.26855,.24707,.62793,.37061,1.0791,.37061,.70898,0,1.63281-.35449,2.77148-1.06348s2.65918-2.28271,4.56055-4.72119c1.90039-2.43799,3.46875-4.72607,4.70508-6.86426,1.23438-2.1377,2.55078-5.5376,3.94727-10.19971l.70898-2.44922h4.89844Z"/><path class="cls-1" d="M432.1582,8.66895l-2.51367,8.76562h5.05957l-.54785,2.03027h-5.02734l-5.54297,19.01367c-.60156,2.0415-.90234,3.36279-.90234,3.96387,0,.36572,.08594,.64453,.25781,.83789s.37598,.29004,.6123,.29004c.53711,0,1.24609-.37549,2.12695-1.12793,.51562-.42969,1.66504-1.75098,3.44824-3.96387l1.06348,.80566c-1.97656,2.87939-3.8457,4.90967-5.60742,6.09082-1.20312,.81641-2.41699,1.22461-3.6416,1.22461-.94531,0-1.71875-.29541-2.32031-.88623s-.90234-1.34814-.90234-2.27197c0-1.16016,.34375-2.93262,1.03125-5.31738l5.38184-18.65918h-4.86621l.32227-1.25684c2.36328-.64453,4.3291-1.60596,5.89746-2.88428,1.56836-1.27783,3.31934-3.49658,5.25293-6.65479h1.41797Z"/><path class="cls-1" d="M466.99512,8.66895l-2.51367,8.76562h5.05957l-.54785,2.03027h-5.02734l-5.54297,19.01367c-.60156,2.0415-.90234,3.36279-.90234,3.96387,0,.36572,.08594,.64453,.25781,.83789s.37598,.29004,.6123,.29004c.53711,0,1.24609-.37549,2.12695-1.12793,.51562-.42969,1.66504-1.75098,3.44824-3.96387l1.06348,.80566c-1.97656,2.87939-3.8457,4.90967-5.60742,6.09082-1.20312,.81641-2.41699,1.22461-3.6416,1.22461-.94531,0-1.71875-.29541-2.32031-.88623s-.90234-1.34814-.90234-2.27197c0-1.16016,.34375-2.93262,1.03125-5.31738l5.38184-18.65918h-4.86621l.32227-1.25684c2.36328-.64453,4.3291-1.60596,5.89746-2.88428,1.56836-1.27783,3.31934-3.49658,5.25293-6.65479h1.41797Z"/><path class="cls-1" d="M487.55566,0l-9.05566,31.29199c3.91016-5.88623,6.96094-9.79688,9.15234-11.73047s4.28613-2.90039,6.28418-2.90039c1.03125,0,1.89062,.35449,2.57812,1.06348s1.03125,1.65479,1.03125,2.83594c0,1.41797-.30078,3.13721-.90234,5.15625l-3.93164,13.50293c-.49414,1.63281-.74121,2.53516-.74121,2.70703,0,.30127,.09082,.54785,.27344,.74121s.39258,.29004,.62891,.29004c.2793,0,.60156-.13965,.9668-.41895,1.22461-.94531,2.43848-2.25586,3.6416-3.93164l.99902,.6123c-.73047,1.13916-1.74609,2.39014-3.04492,3.75439-1.30078,1.36475-2.41797,2.30957-3.35156,2.83594-.93555,.52637-1.76758,.78955-2.49805,.78955-.79492,0-1.44531-.25293-1.94922-.75732-.50586-.50439-.75781-1.15479-.75781-1.94971,0-.94531,.37598-2.70703,1.12793-5.28516l3.70605-12.89062c.47266-1.61133,.70898-2.87891,.70898-3.80273,0-.42969-.13477-.77344-.40234-1.03125-.26953-.25781-.61816-.38672-1.04785-.38672-.62305,0-1.33203,.23682-2.12695,.70898-1.46094,.90234-3.14746,2.57812-5.05957,5.02734-.51562,.66602-2.23438,3.35156-5.15625,8.05664-.90234,1.50391-1.64355,3.14746-2.22363,4.93066l-2.0625,6.60645h-4.83398l10.60254-36.86719,1.12793-3.99609c0-.55859-.23145-1.05225-.69238-1.48242-.46289-.42969-1.02637-.64453-1.69238-.64453-.38672,0-.97754,.06445-1.77246,.19336l-.67676,.09668V1.86914l11.15039-1.86914Z"/><path class="cls-1" d="M509.05078,33.67676c-.15039,1.07471-.22559,1.96582-.22559,2.6748,0,1.9126,.67676,3.54004,2.03027,4.88232,1.35352,1.34277,2.99707,2.01416,4.93066,2.01416,1.54688,0,3.03418-.31689,4.46387-.95068,1.42773-.6333,3.5498-2.03516,6.36426-4.20557l.67676,.93457c-5.0918,5.04883-9.94727,7.57324-14.56641,7.57324-3.13672,0-5.5-.98779-7.08984-2.96484-1.58984-1.97656-2.38477-4.15723-2.38477-6.54199,0-3.20117,.98828-6.47754,2.96484-9.8291s4.45801-5.95654,7.44434-7.81494c2.98633-1.85791,6.05859-2.7876,9.2168-2.7876,2.27734,0,3.96387,.4624,5.05957,1.38574,1.0957,.92383,1.64355,2.01953,1.64355,3.28711,0,1.78369-.70898,3.4917-2.12695,5.12402-1.86914,2.12695-4.61914,3.84619-8.25,5.15625-2.40625,.88135-5.79004,1.56836-10.15137,2.0625Zm.22559-1.5791c3.17969-.36523,5.76855-.98779,7.7666-1.86914,2.64258-1.18115,4.625-2.59424,5.94531-4.23779,1.32227-1.64355,1.98242-3.20654,1.98242-4.68896,0-.90234-.28516-1.63232-.85352-2.19141-.57031-.55859-1.38086-.83789-2.43359-.83789-2.19141,0-4.51758,1.16553-6.97656,3.49658-2.46094,2.33154-4.27051,5.77393-5.43066,10.32861Z"/><path class="cls-1" d="M533.92969,18.46582l11.11816-1.80469-4.64062,15.66211c3.75977-6.42383,7.17578-10.91357,10.24805-13.4707,1.74023-1.46094,3.1582-2.19141,4.25391-2.19141,.70898,0,1.26758,.20947,1.67578,.62842s.6123,1.02637,.6123,1.8208c0,1.41797-.36523,2.77148-1.0957,4.06055-.51562,.9668-1.25684,1.4502-2.22363,1.4502-.49414,0-.91797-.16113-1.27344-.4834-.35352-.32227-.57422-.81641-.66016-1.48242-.04297-.40771-.13965-.67676-.29004-.80566-.17188-.17188-.37598-.25781-.6123-.25781-.36523,0-.70898,.08594-1.03125,.25781-.55859,.30127-1.40723,1.13916-2.5459,2.51367-1.7832,2.10596-3.7168,4.83398-5.80078,8.18555-.90234,1.41797-1.67578,3.01855-2.32031,4.80176-.90234,2.44922-1.41797,3.9209-1.54688,4.41504l-1.03125,4.06055h-4.93066l5.96191-20.0127c.6875-2.32031,1.03125-3.97461,1.03125-4.96289,0-.38672-.16113-.70898-.4834-.9668-.42969-.34326-.99902-.51562-1.70801-.51562-.45117,0-1.27832,.09668-2.48145,.29004l-.22559-1.19238Z"/><path class="cls-1" d="M561.58008,33.67676c-.15039,1.07471-.22559,1.96582-.22559,2.6748,0,1.9126,.67676,3.54004,2.03027,4.88232,1.35352,1.34277,2.99707,2.01416,4.93066,2.01416,1.54688,0,3.03418-.31689,4.46387-.95068,1.42773-.6333,3.5498-2.03516,6.36426-4.20557l.67676,.93457c-5.0918,5.04883-9.94727,7.57324-14.56641,7.57324-3.13672,0-5.5-.98779-7.08984-2.96484-1.58984-1.97656-2.38477-4.15723-2.38477-6.54199,0-3.20117,.98828-6.47754,2.96484-9.8291s4.45801-5.95654,7.44434-7.81494c2.98633-1.85791,6.05859-2.7876,9.2168-2.7876,2.27734,0,3.96387,.4624,5.05957,1.38574,1.0957,.92383,1.64355,2.01953,1.64355,3.28711,0,1.78369-.70898,3.4917-2.12695,5.12402-1.86914,2.12695-4.61914,3.84619-8.25,5.15625-2.40625,.88135-5.79004,1.56836-10.15137,2.0625Zm.22559-1.5791c3.17969-.36523,5.76855-.98779,7.7666-1.86914,2.64258-1.18115,4.625-2.59424,5.94531-4.23779,1.32227-1.64355,1.98242-3.20654,1.98242-4.68896,0-.90234-.28516-1.63232-.85352-2.19141-.57031-.55859-1.38086-.83789-2.43359-.83789-2.19141,0-4.51758,1.16553-6.97656,3.49658-2.46094,2.33154-4.27051,5.77393-5.43066,10.32861Z"/><path class="cls-1" d="M588.48926,40.05762c.92383,0,1.70215,.31738,2.33594,.95068,.63379,.63379,.95117,1.40186,.95117,2.3042s-.32227,1.6709-.9668,2.3042-1.41797,.95068-2.32031,.95068-1.6709-.31738-2.30469-.95068-.9502-1.40186-.9502-2.3042,.31641-1.67041,.9502-2.3042c.63379-.6333,1.40234-.95068,2.30469-.95068Z"/></g><g><path class="cls-1" d="M392.79883,96.09033h-19.64941v-1.35449h19.64941v1.35449Z"/><path class="cls-1" d="M424.86133,78.76025l.5752,8.55371h-.5752c-.76758-2.56055-1.8623-4.40332-3.28418-5.5293-1.42285-1.12549-3.12988-1.68848-5.12109-1.68848-1.66992,0-3.17969,.42383-4.52734,1.271-1.34863,.84766-2.40918,2.19873-3.18262,4.0542s-1.15918,4.1626-1.15918,6.9209c0,2.27637,.36426,4.24902,1.09473,5.91895,.72949,1.66992,1.82715,2.9502,3.29297,3.84082s3.13867,1.33594,5.01953,1.33594c1.63281,0,3.07324-.34912,4.32324-1.04834,1.24902-.69873,2.62207-2.0874,4.11914-4.16553l.5752,.37109c-1.26172,2.23926-2.73438,3.87793-4.41602,4.91699-1.68262,1.03906-3.68066,1.55859-5.99316,1.55859-4.16895,0-7.39746-1.5459-9.68555-4.63867-1.70703-2.30078-2.56055-5.00977-2.56055-8.12695,0-2.51074,.5625-4.81787,1.68848-6.9209,1.125-2.10254,2.6748-3.73242,4.64746-4.88916,1.97266-1.15625,4.12891-1.73486,6.4668-1.73486,1.81836,0,3.61133,.44531,5.38086,1.33594,.51953,.27246,.89062,.4082,1.11328,.4082,.33398,0,.62402-.11719,.87207-.35254,.32129-.33398,.5498-.79785,.68652-1.3916h.64941Z"/><path class="cls-1" d="M433.50781,78.11084v12.43164c1.37305-1.50879,2.46094-2.47705,3.26562-2.90381,.80371-.42676,1.60742-.64014,2.41211-.64014,.96484,0,1.79297,.26611,2.48633,.79785,.69238,.53223,1.20605,1.36719,1.54004,2.50488,.23438,.79199,.35254,2.23926,.35254,4.3418v6.01172c0,1.07617,.08594,1.8125,.25977,2.20801,.12305,.29688,.33398,.53223,.63086,.70508,.29688,.17334,.84082,.25977,1.63281,.25977v.66797h-8.34961v-.66797h.38965c.79102,0,1.3418-.12061,1.65137-.36182,.30859-.24121,.52539-.59668,.64941-1.06689,.03711-.19775,.05566-.7793,.05566-1.74414v-6.01172c0-1.85547-.09668-3.07373-.28809-3.65527-.19141-.58105-.49805-1.01709-.91797-1.30811-.4209-.29053-.92773-.43604-1.52148-.43604-.60645,0-1.2373,.16113-1.89258,.48242-.65625,.32178-1.44141,.97119-2.35645,1.94824v8.98047c0,1.16309,.06445,1.88672,.19434,2.1709,.12988,.28467,.37109,.52295,.72363,.71436,.35254,.19189,.96191,.2876,1.82812,.2876v.66797h-8.42383v-.66797c.75391,0,1.34766-.11719,1.78125-.35254,.24707-.12354,.44531-.3584,.59375-.70508,.14844-.34619,.22266-1.05127,.22266-2.11523v-15.38184c0-1.94189-.04688-3.13574-.13965-3.58105s-.23535-.74805-.42676-.90918c-.19141-.16064-.44824-.24121-.76953-.24121-.25977,0-.68066,.09912-1.26172,.29688l-.25977-.64941,5.08398-2.07812h.85352Z"/><path class="cls-1" d="M457.14648,102.04639c-1.74414,1.34863-2.83887,2.12793-3.28418,2.33789-.66797,.30908-1.37988,.46387-2.13379,.46387-1.17578,0-2.14355-.40186-2.9043-1.20605-.76074-.80371-1.14062-1.86133-1.14062-3.17285,0-.82861,.18555-1.5459,.55664-2.15234,.50684-.84082,1.3877-1.63281,2.64355-2.375s3.34277-1.64502,6.2627-2.70898v-.66797c0-1.69434-.26953-2.85742-.80762-3.48828s-1.32031-.94629-2.34668-.94629c-.7793,0-1.39844,.21045-1.85547,.63086-.4707,.4209-.70508,.90332-.70508,1.44727l.03711,1.07617c0,.56934-.14551,1.0083-.43652,1.31738-.29102,.30957-.6709,.46387-1.14062,.46387-.45801,0-.83203-.16064-1.12305-.48242-.29102-.32129-.43555-.76074-.43555-1.31738,0-1.06348,.54395-2.04102,1.63281-2.93164,1.08789-.89062,2.61621-1.33594,4.58301-1.33594,1.50879,0,2.74609,.25391,3.71094,.76074,.72949,.38379,1.26758,.9834,1.61426,1.7998,.22266,.53223,.33398,1.62061,.33398,3.26562v5.77051c0,1.62061,.03027,2.61328,.09277,2.97803,.06152,.36523,.16309,.60938,.30566,.73291,.14258,.12402,.30664,.18555,.49219,.18555,.19727,0,.37109-.04297,.51953-.12988,.25977-.16064,.76074-.6123,1.50293-1.35449v1.03906c-1.38574,1.85547-2.70898,2.7832-3.9707,2.7832-.60645,0-1.08887-.21045-1.44727-.63086-.35938-.42041-.54492-1.1377-.55664-2.15234Zm0-1.20605v-6.47559c-1.86816,.74219-3.07422,1.26807-3.61816,1.57715-.97754,.54443-1.67676,1.11328-2.09668,1.70703-.4209,.59375-.63086,1.24316-.63086,1.94824,0,.89062,.26562,1.62988,.79785,2.21729,.53125,.58789,1.14355,.88135,1.83691,.88135,.93945,0,2.17676-.61816,3.71094-1.85547Z"/><path class="cls-1" d="M469.35547,86.99854v3.82227c1.42188-2.54785,2.88184-3.82227,4.37891-3.82227,.67969,0,1.24316,.20752,1.68848,.62158,.44531,.41455,.66797,.89404,.66797,1.43799,0,.48242-.16113,.89062-.48242,1.22461-.32227,.33398-.70508,.50098-1.15039,.50098-.43359,0-.91895-.21338-1.45703-.64014s-.93652-.64014-1.19629-.64014c-.22266,0-.46387,.12402-.72363,.37109-.55664,.50732-1.13184,1.34229-1.72559,2.50488v8.14551c0,.94043,.11719,1.65137,.35254,2.13379,.16016,.33398,.44531,.6123,.85352,.83496s.99512,.33398,1.7627,.33398v.66797h-8.70215v-.66797c.86523,0,1.50879-.13574,1.92969-.4082,.30859-.19775,.52539-.51318,.64941-.94629,.06152-.20996,.09277-.81006,.09277-1.7998v-6.58691c0-1.979-.04102-3.15723-.12109-3.53467-.08008-.37695-.22852-.65234-.44531-.82568-.2168-.17285-.48535-.25977-.80664-.25977-.38379,0-.81641,.09277-1.29883,.27832l-.18555-.66797,5.13965-2.07812h.7793Z"/><path class="cls-1" d="M482.88184,78.11084v22.54395c0,1.06396,.07715,1.76904,.23145,2.11523,.1543,.34668,.39258,.60938,.71484,.78857,.32129,.17969,.9209,.26904,1.7998,.26904v.66797h-8.33105v-.66797c.7793,0,1.31055-.08008,1.5957-.24121,.28418-.16064,.50684-.42676,.66797-.79785,.16016-.37109,.24121-1.08203,.24121-2.13379v-15.4375c0-1.91699-.04395-3.09521-.12988-3.53467-.08691-.43896-.22656-.73877-.41797-.8999-.19141-.16064-.43555-.24121-.73242-.24121-.32227,0-.73047,.09912-1.22461,.29688l-.31543-.64941,5.06543-2.07812h.83496Z"/><path class="cls-1" d="M490.45215,93.90088c-.0127,2.52344,.59961,4.50293,1.83691,5.9375,1.23633,1.43506,2.69043,2.15234,4.36035,2.15234,1.11328,0,2.08105-.30615,2.90332-.91846s1.5127-1.66064,2.06934-3.14502l.5752,.37109c-.25977,1.69482-1.01465,3.23779-2.26367,4.62939-1.25,1.3916-2.81445,2.0874-4.69434,2.0874-2.04102,0-3.78906-.79443-5.24219-2.38428-1.45312-1.58936-2.17969-3.72607-2.17969-6.41064,0-2.90674,.74512-5.17334,2.23535-6.80029,1.49023-1.62646,3.36133-2.43994,5.61328-2.43994,1.9043,0,3.46973,.62793,4.69434,1.8833,1.22461,1.25586,1.83691,2.93506,1.83691,5.0376h-11.74512Zm0-1.07617h7.86719c-.0625-1.08838-.19238-1.85547-.38965-2.30078-.30957-.69238-.77051-1.23682-1.38281-1.63281-.6123-.39551-1.25195-.59375-1.91992-.59375-1.02734,0-1.94531,.39893-2.75586,1.19678s-1.2832,1.9082-1.41895,3.33057Z"/><path class="cls-1" d="M515.44531,86.99854v5.78906h-.6123c-.4707-1.81836-1.07324-3.05518-1.80957-3.71094-.73633-.65527-1.67285-.9834-2.81055-.9834-.86621,0-1.56543,.229-2.09668,.68652-.53223,.45801-.79785,.96484-.79785,1.52148,0,.69287,.19727,1.28662,.59375,1.78125,.38281,.50732,1.16211,1.04541,2.33789,1.61426l2.70898,1.31738c2.51074,1.22461,3.7666,2.83887,3.7666,4.84277,0,1.54639-.58496,2.79248-1.75391,3.73877s-2.47656,1.41943-3.92383,1.41943c-1.03906,0-2.22656-.18555-3.5625-.55664-.4082-.12354-.74219-.18555-1.00195-.18555-.28516,0-.50781,.16113-.66797,.48242h-.6123v-6.06738h.6123c.3457,1.73193,1.00781,3.03711,1.98535,3.91504,.97656,.87842,2.07129,1.31738,3.28418,1.31738,.85352,0,1.54883-.25049,2.08691-.75146s.80762-1.104,.80762-1.80908c0-.85352-.30078-1.5708-.90039-2.15234-.59961-.58105-1.79688-1.31738-3.58984-2.20801-1.79395-.89062-2.96875-1.69434-3.52539-2.41211-.55664-.70508-.83496-1.5957-.83496-2.67188,0-1.39746,.47852-2.56641,1.4375-3.50684,.95898-.93994,2.19922-1.41016,3.7207-1.41016,.66797,0,1.47754,.14258,2.43066,.42676,.63086,.18555,1.05078,.27832,1.26172,.27832,.19727,0,.35254-.04297,.46387-.12988,.11133-.08643,.24121-.27832,.38965-.5752h.6123Z"/><path class="cls-1" d="M543.11035,104.49561l-9.72266-21.1709v16.81055c0,1.54639,.16699,2.51123,.50098,2.89453,.45703,.51953,1.18066,.7793,2.1709,.7793h.89062v.68652h-8.75781v-.68652h.89062c1.06348,0,1.81836-.32129,2.26367-.96484,.27148-.39551,.4082-1.29883,.4082-2.70898v-16.43945c0-1.11328-.12402-1.91699-.37109-2.41211-.17383-.3584-.49219-.65869-.95605-.8999s-1.20898-.36182-2.23535-.36182v-.68652h7.125l9.12891,19.68652,8.98047-19.68652h7.125v.68652h-.87207c-1.07617,0-1.83691,.32178-2.28223,.96484-.27246,.396-.4082,1.29883-.4082,2.70898v16.43945c0,1.54639,.17285,2.51123,.51953,2.89453,.45703,.51953,1.18066,.7793,2.1709,.7793h.87207v.68652h-10.6875v-.68652h.89062c1.07617,0,1.83008-.32129,2.26367-.96484,.27148-.39551,.4082-1.29883,.4082-2.70898v-16.81055l-9.7041,21.1709h-.6123Z"/><path class="cls-1" d="M577.43652,87.49951v10.29785c0,1.9668,.0459,3.16992,.13867,3.60889,.09277,.43945,.24121,.74561,.44531,.91846,.2041,.17334,.44238,.25977,.71484,.25977,.38281,0,.81641-.10498,1.29883-.31543l.25977,.64941-5.08398,2.09668h-.83496v-3.59961c-1.45996,1.5835-2.57324,2.5791-3.33984,2.9873-.76758,.4082-1.57715,.6123-2.43066,.6123-.95312,0-1.77832-.27539-2.47754-.82568s-1.18457-1.2583-1.45605-2.12451c-.27246-.86572-.4082-2.09033-.4082-3.67383v-7.58887c0-.80371-.08691-1.36035-.25977-1.66992-.17383-.30908-.43066-.54736-.77051-.71436s-.95508-.24414-1.8457-.23193v-.68652h5.95605v11.37402c0,1.5835,.27441,2.62256,.8252,3.11719,.55078,.49512,1.21582,.74219,1.99512,.74219,.53125,0,1.13477-.16699,1.80859-.50098s1.47559-.9707,2.40332-1.91113v-9.62988c0-.96484-.17676-1.61719-.5293-1.95752-.35254-.33984-1.08496-.52246-2.19824-.54736v-.68652h5.78906Z"/><path class="cls-1" d="M586.49121,90.59814c1.99121-2.39941,3.88965-3.59961,5.69629-3.59961,.92773,0,1.72559,.23193,2.39355,.6958s1.19922,1.22803,1.5957,2.2915c.27148,.74219,.4082,1.88037,.4082,3.41406v7.25488c0,1.07617,.08594,1.80615,.25977,2.18945,.13574,.30957,.35547,.55078,.6582,.72363,.30273,.17334,.86328,.25977,1.67969,.25977v.66797h-8.40527v-.66797h.35254c.79102,0,1.34473-.12061,1.66016-.36182s.53516-.59668,.65918-1.06689c.04883-.18555,.07422-.7666,.07422-1.74414v-6.95801c0-1.5459-.20117-2.66846-.60352-3.36768-.40234-.69873-1.0791-1.04834-2.03125-1.04834-1.47266,0-2.93848,.8042-4.39746,2.41211v8.96191c0,1.15039,.06738,1.86182,.2041,2.13379,.17285,.35889,.41113,.62158,.71387,.78857s.91895,.25049,1.84668,.25049v.66797h-8.40527v-.66797h.37109c.86523,0,1.4502-.21924,1.75293-.65869,.30273-.43896,.45508-1.27686,.45508-2.51416v-6.30859c0-2.04102-.04688-3.28418-.13965-3.72949s-.23535-.74805-.42676-.90918c-.19141-.16064-.44824-.24121-.76953-.24121-.34668,0-.76074,.09277-1.24316,.27832l-.27832-.66797,5.12109-2.07812h.79785v3.59961Z"/><path class="cls-1" d="M605.47266,81.91455v5.58496h3.9707v1.29883h-3.9707v11.02148c0,1.10107,.15723,1.84326,.47266,2.22656,.31543,.38379,.7207,.5752,1.21582,.5752,.4082,0,.80371-.12646,1.1875-.38037,.38281-.25342,.67969-.62744,.89062-1.12256h.72363c-.43359,1.2124-1.0459,2.12451-1.83691,2.73682-.79199,.6123-1.6084,.91846-2.44922,.91846-.56934,0-1.12598-.15771-1.66992-.47314-.54492-.31543-.94629-.7666-1.20605-1.35449-.25977-.5874-.38965-1.49365-.38965-2.71826v-11.42969h-2.69043v-.6123c.67969-.27197,1.37598-.73291,2.08691-1.38232s1.3457-1.41943,1.90234-2.31006c.28418-.46973,.67969-1.32959,1.1875-2.5791h.5752Z"/><path class="cls-1" d="M625.86426,99.28174l-.2041,5.21387h-14.99219v-.66797l11.28125-15.0293h-5.56641c-1.2002,0-1.98535,.07764-2.35645,.23193-.37109,.15479-.6748,.44873-.90918,.88135-.33398,.61865-.52637,1.38574-.5752,2.30078h-.74219l.11133-4.71289h14.25v.68652l-11.39258,15.06641h6.19727c1.29883,0,2.17969-.10791,2.64355-.32471,.46387-.21631,.83789-.59668,1.12305-1.14111,.19727-.39551,.36426-1.23047,.50098-2.50488h.63086Z"/></g></svg>